<?xml version="1.0" encoding="UTF-8" standalone="no"?>
<svg width="35px" height="35px" viewBox="0 0 35 35" version="1.1" xmlns="http://www.w3.org/2000/svg" xmlns:xlink="http://www.w3.org/1999/xlink">
    <!-- Generator: Sketch 3.6.1 (26313) - http://www.bohemiancoding.com/sketch -->
    <title>Facebook</title>
    <desc>Created with Sketch.</desc>
    <defs></defs>
    <g id="Landing" stroke="none" stroke-width="1" fill="none" fill-rule="evenodd">
        <g id="Desktop-HD" transform="translate(-599.000000, -959.000000)" fill="#FFFFFF">
            <g id="Group-3" transform="translate(599.000000, 959.000000)">
                <path d="M18.694634,35 L1.93173132,35 C0.864552979,35 0,34.1349105 0,33.0681479 L0,1.93171633 C0,0.864682076 0.864688787,0 1.93173132,0 L33.0684045,0 C34.1351754,0 35,0.864682076 35,1.93171633 L35,33.0681479 C35,34.1350463 34.1350396,35 33.0684045,35 L24.1494934,35 L24.1494934,21.4460711 L28.6989217,21.4460711 L29.380134,16.1638645 L24.1494934,16.1638645 L24.1494934,12.7915094 C24.1494934,11.2621887 24.5741647,10.2200071 26.7671904,10.2200071 L29.5642895,10.2187848 L29.5642895,5.49433686 C29.0805418,5.42996442 27.4201547,5.28614499 25.4884233,5.28614499 C21.4556083,5.28614499 18.694634,7.74777956 18.694634,12.2683815 L18.694634,16.1638645 L14.1335263,16.1638645 L14.1335263,21.4460711 L18.694634,21.4460711 L18.694634,35 L18.694634,35 Z" id="Facebook"></path>
            </g>
        </g>
    </g>
</svg>