<svg width="22" height="22" viewBox="0 0 22 22" xmlns="http://www.w3.org/2000/svg">
  <path d="M17.2822 22h-2.1025v-8.5196h2.8596l.4282-3.3203h-3.2878V8.0406c0-.9613.267-1.6164 1.6454-1.6164l1.7584-.0007V3.4536c-.304-.0405-1.3478-.131-2.562-.131-2.535 0-4.2704 1.5474-4.2704 4.389V10.16H8.884v3.3204h2.867V22H2.615C1.1708 22 0 20.832 0 19.391V2.609C0 1.168 1.1708 0 2.6153 0h16.7694C20.8293 0 22 1.168 22 2.609v16.782C22 20.832 20.8292 22 19.3848 22h-2.1026z" fill="#FFF" fill-rule="evenodd"/>
</svg>
