<?xml version="1.0" encoding="UTF-8" standalone="no"?>
<svg width="35px" height="35px" viewBox="0 0 35 35" version="1.1" xmlns="http://www.w3.org/2000/svg" xmlns:xlink="http://www.w3.org/1999/xlink">
    <!-- Generator: Sketch 3.6.1 (26313) - http://www.bohemiancoding.com/sketch -->
    <title>Instagram</title>
    <desc>Created with Sketch.</desc>
    <defs></defs>
    <g id="Landing" stroke="none" stroke-width="1" fill="none" fill-rule="evenodd">
        <g id="Desktop-HD" transform="translate(-737.000000, -959.000000)" fill="#FFFFFF">
            <g id="Group-3" transform="translate(599.000000, 959.000000)">
                <path d="M168.625,31.71875 L142.375,31.71875 C141.77125,31.71875 141.28125,31.22875 141.28125,30.625 L141.28125,14.21875 L145.65625,14.21875 C145.086406,15.0390625 144.893906,16.5692187 144.893906,17.5404688 C144.893906,23.3975 149.670312,28.1629688 155.540469,28.1629688 C161.411719,28.1629688 166.188125,23.3975 166.188125,17.5404688 C166.188125,16.5692187 166.050313,15.0620312 165.34375,14.21875 L169.71875,14.21875 L169.71875,30.625 C169.71875,31.22875 169.22875,31.71875 168.625,31.71875 M155.540469,10.8259375 C159.258125,10.8259375 162.271406,13.8326563 162.271406,17.5404688 C162.271406,21.249375 159.258125,24.2560938 155.540469,24.2560938 C151.823906,24.2560938 148.810625,21.249375 148.810625,17.5404688 C148.810625,13.8326563 151.823906,10.8259375 155.540469,10.8259375 M164.25,4.375 L167.53125,4.375 C168.135,4.375 168.625,4.865 168.625,5.46875 L168.625,8.75 C168.625,9.35375 168.135,9.84375 167.53125,9.84375 L164.25,9.84375 C163.64625,9.84375 163.15625,9.35375 163.15625,8.75 L163.15625,5.46875 C163.15625,4.865 163.64625,4.375 164.25,4.375 M168.839375,0 L142.160625,0 C139.862656,0 138,1.85828125 138,4.15078125 L138,30.8492188 C138,33.1417188 139.862656,35 142.160625,35 L168.839375,35 C171.137344,35 173,33.1417188 173,30.8492188 L173,4.15078125 C173,1.85828125 171.137344,0 168.839375,0" id="Instagram"></path>
            </g>
        </g>
    </g>
</svg>