<svg width="22" height="22" viewBox="0 0 22 22" xmlns="http://www.w3.org/2000/svg">
  <path d="M19.25 19.9375H2.75c-.3795 0-.6875-.308-.6875-.6875V8.9375h2.75c-.3582.5156-.4792 1.4774-.4792 2.088 0 3.6815 3.0023 6.677 6.692 6.677 3.6906 0 6.693-2.9955 6.693-6.677 0-.6106-.0867-1.558-.5308-2.088h2.75V19.25c0 .3795-.308.6875-.6875.6875M11.0254 6.805c2.337 0 4.231 1.8898 4.231 4.2204 0 2.3314-1.894 4.2213-4.231 4.2213-2.336 0-4.23-1.89-4.23-4.2213 0-2.3306 1.894-4.2205 4.23-4.2205M16.5 2.75h2.0625c.3795 0 .6875.308.6875.6875V5.5c0 .3795-.308.6875-.6875.6875H16.5c-.3795 0-.6875-.308-.6875-.6875V3.4375c0-.3795.308-.6875.6875-.6875M19.3847 0H2.6153C1.1708 0 0 1.168 0 2.609v16.782C0 20.832 1.1708 22 2.6153 22h16.7694C20.8292 22 22 20.832 22 19.391V2.609C22 1.168 20.8292 0 19.3847 0" fill="#FFF" fill-rule="evenodd"/>
</svg>
