<svg width="22" height="22" viewBox="0 0 22 22" xmlns="http://www.w3.org/2000/svg">
  <path d="M19.3847 0H2.6153C1.1708 0 0 1.168 0 2.609v16.782C0 20.832 1.1708 22 2.6153 22h16.7694C20.8292 22 22 20.832 22 19.391V2.609C22 1.168 20.8292 0 19.3847 0zM11.366 9.0842V8.521c0-.813-.6606-1.4695-1.4818-1.4695H5.3726c-.818 0-1.4805.6565-1.4805 1.4694v6.7863c0 .813.6627 1.4726 1.4808 1.4726h4.5116c.0987 0 .1942-.011.287-.028v-5.8924c0-.7997.494-1.4863 1.1948-1.7755zm5.2566.305h-4.514c-.8185 0-1.4806.6606-1.4806 1.4706v6.7897c0 .8123.662 1.4683 1.4807 1.4683h4.514c.8195 0 1.4812-.656 1.4812-1.4683v-6.7897c0-.81-.662-1.4706-1.4816-1.4706zm-4.799-.8682v.4387c.093-.0145.188-.0237.2855-.0237h3.5848V4.3663c0-.8142-.665-1.4707-1.4845-1.4707H9.698c-.819 0-1.4838.6565-1.4838 1.4707v2.231h1.6705c1.0688 0 1.939.8627 1.939 1.9237z" fill="#FFF" fill-rule="evenodd"/>
</svg>
