<?xml version="1.0" encoding="UTF-8" standalone="no"?>
<svg width="35px" height="35px" viewBox="0 0 35 35" version="1.1" xmlns="http://www.w3.org/2000/svg" xmlns:xlink="http://www.w3.org/1999/xlink">
    <!-- Generator: Sketch 3.6.1 (26313) - http://www.bohemiancoding.com/sketch -->
    <title>Pinterest</title>
    <desc>Created with Sketch.</desc>
    <defs></defs>
    <g id="Landing" stroke="none" stroke-width="1" fill="none" fill-rule="evenodd">
        <g id="Desktop-HD" transform="translate(-806.000000, -959.000000)" fill="#FFFFFF">
            <g id="Group-3" transform="translate(599.000000, 959.000000)">
                <path d="M224.501029,0 C214.836773,0 207,7.83471512 207,17.501029 C207,24.6648439 211.309402,30.8223085 217.477156,33.5285471 C217.427765,32.3081672 217.468925,30.8387723 217.779679,29.5093197 C218.117187,28.0893162 220.031105,19.9747163 220.031105,19.9747163 C220.031105,19.9747163 219.473393,18.8572353 219.473393,17.2046804 C219.473393,14.6116305 220.977774,12.675075 222.848474,12.675075 C224.43929,12.675075 225.208973,13.8707591 225.208973,15.3031105 C225.208973,16.9021579 224.188217,19.2955842 223.663433,21.5120245 C223.225084,23.3703769 224.593638,24.8829894 226.425237,24.8829894 C229.740636,24.8829894 231.97354,20.6250367 231.97354,15.5788793 C231.97354,11.7448698 229.39078,8.87399306 224.692421,8.87399306 C219.3849,8.87399306 216.077733,12.8314812 216.077733,17.2520139 C216.077733,18.7790322 216.526371,19.8532957 217.230199,20.6847181 C217.55536,21.0695596 217.598577,21.2218498 217.481272,21.6622567 C217.398953,21.981243 217.205504,22.759158 217.125243,23.0657964 C217.007938,23.5082613 216.64985,23.6687834 216.250603,23.5041454 C213.803669,22.5060269 212.665608,19.8286 212.665608,16.8177809 C212.665608,11.8477686 216.857706,5.88375375 225.171929,5.88375375 C231.854178,5.88375375 236.252073,10.7220556 236.252073,15.9102134 C236.252073,22.7756218 232.436585,27.9040983 226.80802,27.9040983 C224.920856,27.9040983 223.142765,26.8833422 222.533604,25.7247016 C222.533604,25.7247016 221.516964,29.7562768 221.302934,30.5341918 C220.932498,31.8821662 220.206033,33.2321985 219.541307,34.2817663 C221.115658,34.7468689 222.778503,35 224.501029,35 C234.165285,35 242,27.1652849 242,17.501029 C242,7.83471512 234.165285,0 224.501029,0" id="Pinterest"></path>
            </g>
        </g>
    </g>
</svg>