<?xml version="1.0" encoding="UTF-8" standalone="no"?>
<svg width="35px" height="30px" viewBox="0 0 35 30" version="1.1" xmlns="http://www.w3.org/2000/svg" xmlns:xlink="http://www.w3.org/1999/xlink">
    <!-- Generator: Sketch 3.6.1 (26313) - http://www.bohemiancoding.com/sketch -->
    <title>Twitter</title>
    <desc>Created with Sketch.</desc>
    <defs></defs>
    <g id="Landing" stroke="none" stroke-width="1" fill="none" fill-rule="evenodd">
        <g id="Desktop-HD" transform="translate(-668.000000, -961.000000)" fill="#FFFFFF">
            <g id="Group-3" transform="translate(599.000000, 959.000000)">
                <path d="M104,5.45281088 C102.713975,6.03846154 101.329342,6.43451306 99.8769149,6.61147225 C101.360157,5.70139641 102.498268,4.25833634 103.034454,2.5393042 C101.645712,3.38196702 100.111111,3.99500421 98.471738,4.32364271 C97.1651699,2.89322258 95.2977637,2 93.2310853,2 C89.2682397,2 86.0531784,5.29691826 86.0531784,9.36276634 C86.0531784,9.93999037 86.1148089,10.5003611 86.2380701,11.0396653 C80.2701767,10.7320934 74.9802195,7.80384013 71.4364618,3.34404719 C70.8181018,4.43529553 70.4647532,5.70139641 70.4647532,7.04965692 C70.4647532,9.60292524 71.7322885,11.8570483 73.659271,13.1779222 C72.4841815,13.1421091 71.3748312,12.8071506 70.405177,12.2594198 L70.405177,12.350006 C70.405177,15.918683 72.8806715,18.8953894 76.1676351,19.5695197 C75.5657099,19.7422656 74.9309151,19.8286385 74.2755767,19.8286385 C73.8133474,19.8286385 73.3613899,19.7843987 72.9238129,19.6980258 C73.8379996,22.6220657 76.4881141,24.751896 79.6312731,24.8087757 C77.1742678,26.78482 74.0763045,27.9624413 70.7133298,27.9624413 C70.1340025,27.9624413 69.5608382,27.9287348 69,27.8613218 C72.178083,29.9469122 75.9539825,31.1666667 80.0072196,31.1666667 C93.2167048,31.1666667 100.437753,19.9487179 100.437753,10.2180691 C100.437753,9.89785723 100.43159,9.57764536 100.419264,9.26375346 C101.822387,8.22517154 103.040617,6.92957746 104,5.45281088" id="Twitter"></path>
            </g>
        </g>
    </g>
</svg>