<svg width="22" height="22" viewBox="0 0 22 22" xmlns="http://www.w3.org/2000/svg">
  <path d="M19.3847 0H2.6153C1.1708 0 0 1.168 0 2.609v16.782C0 20.832 1.1708 22 2.6153 22h16.7694C20.8292 22 22 20.832 22 19.391V2.609C22 1.168 20.8292 0 19.3847 0zm-1.7224 6.8054c.661-.4056 1.1684-1.0488 1.4073-1.815-.619.3756-1.303.6488-2.0336.7953C16.4536 5.148 15.6213 4.75 14.7 4.75c-1.7662 0-3.1992 1.4695-3.1992 3.2817 0 .2573.0275.507.0825.7474-2.66-.137-5.0178-1.442-6.5973-3.43-.2756.487-.433 1.051-.433 1.652 0 1.138.5648 2.143 1.4237 2.732-.5238-.016-1.0182-.1653-1.4504-.4094v.0403c0 1.5907 1.1034 2.9174 2.5684 3.218-.2683.077-.5512.1154-.8433.1154-.206 0-.4075-.0196-.6025-.058.407 1.303 1.588 2.2524 2.989 2.278-1.095.8805-2.476 1.4054-3.975 1.4054-.2584 0-.5138-.015-.7638-.045 1.4164.9296 3.0994 1.4733 4.906 1.4733 5.8876 0 9.1062-5 9.1062-9.337 0-.143-.003-.2855-.0084-.4254.6254-.463 1.1684-1.0405 1.596-1.6987-.5732.261-1.1903.4374-1.8377.5163z" fill="#FFF" fill-rule="evenodd"/>
</svg>
