<svg width="328" height="57" viewBox="0 0 328 57" xmlns="http://www.w3.org/2000/svg">
  <title>Border</title>
  <path d="M324.897 7.648V2.676c0-.081.006-.163-.02-.244-.038-.132-.236-.22-.693-.226-.425-.007-.848-.024-1.272-.026-3.548-.02-7.094-.04-10.641-.055-4.57-.02-9.139-.05-13.709-.052-8.517-.002-17.034.014-25.551.022-3.834.003-7.667.004-11.5.01-8.546.014-17.09.037-25.636.042-7.183.003-14.363-.01-21.546-.024-4.824-.01-9.649-.034-14.474-.053-4.086-.017-8.173-.04-12.26-.054-5.988-.02-11.977-.04-17.967-.054-4.968-.011-9.937-.014-14.906-.02-9.454-.012-18.908-.032-28.363-.033-10.505-.001-21.01.002-31.515.027-6.043.015-12.086.073-18.128.12-3.488.026-6.975.077-10.463.1-3.804.026-7.604-.03-11.397-.118-2.008-.046-4.008-.127-6.012-.188-1.948-.06-3.894-.138-5.847-.166-4.8-.07-9.587.043-14.367.17-4.923.13-9.848.234-14.791.205-3.324-.02-6.627-.111-9.895-.313-.529-.033-1.057-.067-1.59-.091-.628-.028-.808.027-.824.234-.003.045-.002.09.016.135.189.44.372.879.575 1.317.423.914.845 1.828.902 2.752.054.869.045 1.739.036 2.608-.04 4.174-.078 8.349-.14 12.523-.023 1.584-.098 3.168-.168 4.752-.033.76-.105 1.52-.167 2.28-.11 1.33-.252 2.659-.333 3.989-.097 1.593-.18 3.186-.2 4.779-.017 1.394.053 2.788.1 4.182.059 1.71.153 3.422.196 5.132.064 2.544.097 5.089.143 7.633.001.036-.003.072.001.108.015.118.018.236.053.353.145.478.859.745 2.333.839.634.04 1.295.052 1.944.052 4.43-.002 8.859-.019 13.288-.014 8.971.008 17.942.023 26.913.044 2.723.006 5.446.062 8.17.061 2.835-.001 5.68-.007 8.504-.078 3.31-.083 6.617-.181 9.937-.179 3.973.003 7.945.056 11.917.055 4.03-.002 8.059-.068 12.087-.062 5.05.007 10.1.058 15.149.092 2.24.015 4.48.04 6.722.053 3.632.022 7.264.041 10.896.053 1.36.005 2.723-.012 4.084-.023 3.177-.025 6.354-.05 9.53-.08 3.29-.03 6.578-.072 9.868-.099 1.466-.012 2.873.087 4.197.296.83.13 1.722.182 2.637.19 2.354.017 4.71.033 7.064.044 2.327.01 4.656.022 6.983.018 4.371-.008 8.742-.026 13.113-.042l13.366-.054c4.258-.018 8.514-.038 12.771-.054 5.392-.02 10.786-.038 16.178-.054 2.412-.008 4.827-.014 7.24-.01 5.335.008 10.67.02 16.004.034 1.816.005 3.633.013 5.45.026 3.573.025 7.146.057 10.72.082 3.746.026 7.49.049 11.236.07 3.744.022 7.49.047 11.237.054 1.33.002 2.666-.032 3.991-.075 3.016-.099 6.024-.236 9.047-.316 4.542-.12 9.067-.046 13.563.213.83.048 1.688.073 2.532.069 1-.005 1.78-.17 2.294-.446.545-.293.875-.608.878-.952.002-.797-.011-1.594.002-2.39.04-2.6.077-5.198.136-7.796.054-2.29.122-4.58.207-6.871.04-1.077.113-2.154.218-3.23.113-1.158.314-2.314.414-3.471.081-.95.092-1.902.1-2.852.01-1.123-.004-2.246-.032-3.369-.023-.832-.087-1.665-.134-2.497-.058-1.06-.113-2.118-.17-3.177-.029-.515-.048-1.031-.084-1.547-.081-1.185-.184-2.37-.25-3.555-.017-.333.096-.666.098-1 .011-1.612.005-3.224.005-4.836m1.918 34.947c-.09 1.24-.137 2.48-.283 3.718-.222 1.92-.173 3.838-.097 5.758.032.76.101 1.52.171 2.28.133 1.429-3.99 2.726-9.09 2.391-1.123-.073-2.283-.114-3.427-.118-3.348-.012-6.695-.001-10.042.005-6.073.013-12.145.032-18.22.042-2.501.004-5.005-.003-7.509-.02-4.495-.03-8.99-.07-13.485-.106-2.388-.02-4.777-.029-7.164-.056-3.18-.037-6.34.067-9.507.12-2.497.041-5.003.044-7.504.041-2.865-.004-5.732-.037-8.6-.05-4.47-.021-8.94-.044-13.41-.053-2.528-.004-5.06.017-7.59.028-1.77.007-3.541.022-5.312.023-10.745.006-21.49.008-32.234.011-3.178.001-6.348.038-9.51.154-2.292.083-4.547-.028-6.745-.242-1.892-.184-3.794-.346-5.792-.298-1.232.029-2.455.09-3.685.128-2.014.06-4.027.124-6.045.165-1.429.028-2.866.038-4.297.025-3.876-.035-7.75-.086-11.624-.135-3.258-.04-6.514-.092-9.771-.132-4.633-.058-9.27-.094-13.9-.17-2.827-.046-5.61.053-8.397.164-2.4.096-4.805.196-7.225.163-2.638-.035-5.274-.097-7.904-.17-2.44-.07-4.874-.107-7.323-.05-1.091.027-2.192.016-3.288.018l-12.066.02c-9.337.012-18.674.018-28.01.037-3.092.006-6.187.017-9.273.068-3.395.056-6.781.157-10.17.243-2.378.06-4.552-.084-6.252-.666-1.296-.443-2.026-.973-2.1-1.588-.005-.036-.003-.072-.004-.109C.105 52.596.07 50.957.06 49.318c-.004-.715-.065-1.432.093-2.144.39-1.753.065-3.507.177-5.26.091-1.439.161-2.878.23-4.317.037-.778.1-1.556.063-2.334-.037-.796-.2-1.59-.266-2.387-.015-.176.065-.361.23-.53.36-.368.511-.744.466-1.124-.123-1.043.155-2.08.266-3.12.11-1.04.183-2.08.215-3.121.043-1.368.043-2.735.035-4.103-.006-.923-.034-1.847-.094-2.77-.091-1.393-.22-2.786-.332-4.179-.058-.724-.132-1.447-.164-2.17-.044-.996-.086-1.992-.071-2.987.013-.914.14-1.828.15-2.742.016-1.36-.392-2.71-.98-4.056-.059-.134-.084-.27-.077-.406C.033 1.006 1.013.661 2.764.65 4.051.641 5.354.666 6.63.722c2.177.096 4.355.155 6.551.155.758 0 1.516.02 2.274.022 3.32.01 6.624-.078 9.927-.178 1.734-.052 3.478-.074 5.22-.09 2.274-.02 4.553-.04 6.827-.021 2.554.02 5.105.082 7.658.126 1.627.028 3.255.076 4.883.082 4.891.018 9.784.044 14.674.02 3.199-.017 6.393-.116 9.59-.176C75.89.63 77.544.596 79.201.577 80.8.56 82.404.545 84.005.552c3.85.02 7.7.054 11.548.079 3.879.025 7.757.052 11.636.07 2.39.011 4.781.008 7.172.012 8.717.014 17.435.04 26.153.04 4.328 0 8.657-.04 12.985-.072 2.95-.021 5.898-.058 8.846-.088.197-.002.397-.002.588-.015 1.323-.095 2.59-.025 3.766.17 1.655.274 3.404.347 5.231.332 4.692-.04 9.384-.098 14.077-.1 6.917-.002 13.833.05 20.75.055 9.395.007 18.79-.009 28.184-.015 3.347-.003 6.694-.006 10.039-.011 7.48-.011 14.962-.028 22.443-.034 9.76-.007 19.52-.008 29.28-.009 2.532 0 5.063.003 7.594.02 3.258.025 6.518.046 9.773.105 2.803.051 5.599.155 8.396.235 1.009.029 2.015.059 3.026.083 1.507.037 2.131.236 2.114.726-.017.551-.114 1.103-.163 1.654-.031.344-.038.688-.052 1.032-.038.87-.093 1.738-.108 2.607-.023 1.44-.026 2.88-.03 4.32-.006 1.53.002 3.06-.002 4.59-.004 1.114.015 2.228-.042 3.341-.038.742-.27 1.483-.273 2.224-.002.732.205 1.463.26 2.196.04.551-.013 1.104-.032 1.656-.014.407-.044.814-.07 1.221-.07 1.177-.147 2.353-.209 3.53-.048.86.06 1.719.326 2.575.169.537-.159 1.064-.313 1.595-.21.73-.463 1.461-.461 2.192.004 1.338.195 2.677.281 4.016.036.57.007 1.14.007 1.71h.09" fill="#FFF" fill-rule="evenodd"/>
</svg>
