<svg id="EVERGREEN" xmlns="http://www.w3.org/2000/svg" viewBox="0 0 129.86 78.76"><defs><style>.cls-1{font-size:30px;letter-spacing:1px;}.cls-1,.cls-2,.cls-4{fill:#fff;}.cls-1,.cls-2{font-family:Retrosans;}.cls-2{font-size:8px;}.cls-3{font-size:19.54px;fill:#fdfdfd;font-family:Summer Font;}.cls-5{fill:none;stroke:#fff;stroke-width:0.25px;}</style></defs><title>logo A</title><text class="cls-1" transform="translate(0 54.41)">EVERGREEN</text><text class="cls-2" transform="translate(49.17 77.13)">hood river, or</text><text class="cls-3" transform="translate(9.72 70.03) scale(1.41 1)">CANNABIS SUPPLY</text><path class="cls-4" d="M107.59,39.53a0.31,0.31,0,0,1,0,.12,3.1,3.1,0,0,1-.3.29,1.4,1.4,0,0,0-.2.2,0.23,0.23,0,0,1-.09.09,0.87,0.87,0,0,0-.38.34,1.82,1.82,0,0,1-.46.36,1.2,1.2,0,0,0-.26.2c-0.08.06-.16,0.13-0.24,0.18l-0.38.22a4.65,4.65,0,0,0-.42.26,0.43,0.43,0,0,0-.26.15c-0.12,0-.15.09-0.22,0.13l-0.26.14a1.39,1.39,0,0,0-.44.25,1.5,1.5,0,0,1-.53.27,0.76,0.76,0,0,0-.24.12,0.37,0.37,0,0,1-.25.1,1.58,1.58,0,0,1-.32.11,1.11,1.11,0,0,1-.47.22,5.68,5.68,0,0,1-.58.32,0.48,0.48,0,0,1-.33.11l-0.14,0-0.16,0a0.32,0.32,0,0,0-.19.06l-0.06,0a1.46,1.46,0,0,0-.62.35,4.44,4.44,0,0,0-.37.25l-0.16.13-0.15.09c-0.35.18-.72,0.34-1.09,0.5s-0.76.28-1.15,0.41c-0.08,0-.17,0-0.25,0l-0.32.11c-0.1,0-.22.06-0.33,0.1a1.48,1.48,0,0,0-.42.24,0.24,0.24,0,0,1-.19.06,0.2,0.2,0,0,0-.16.05,2.49,2.49,0,0,1-.74.31,1.35,1.35,0,0,1-.51.11l-0.07,0c-0.15.12-.35,0.08-0.51,0.18H93.26a5.9,5.9,0,0,1-1,0,8.22,8.22,0,0,0-1,0,3.1,3.1,0,0,0-.71.12,0.47,0.47,0,0,0-.21.06,0.66,0.66,0,0,1-.2.09,2.68,2.68,0,0,0-.39.14l-0.36.14-0.38.17c-0.12.06-.22,0.12-0.35,0.17a1,1,0,0,1-.35.11l-0.07,0a1.52,1.52,0,0,1-.74.24,2.32,2.32,0,0,0-.46.17c-0.24.11-.49,0.17-0.72,0.3l-0.24.11a1.19,1.19,0,0,1-.34.14,2.16,2.16,0,0,1-.35.12,2,2,0,0,0-.38.17c-0.27.12-.54,0.22-0.82,0.31l-0.09,0c-0.11.08-.25,0.12-0.37,0.2a1.7,1.7,0,0,1-.37.12l-0.5.19a0.5,0.5,0,0,0-.35.19,1.12,1.12,0,0,0-.4.12,2.3,2.3,0,0,0-.33.1l-0.32.06-0.06,0a0.89,0.89,0,0,1-.29.12,1.09,1.09,0,0,0-.5.13,0.73,0.73,0,0,0-.44.08c-0.27.08-.54,0.12-0.8,0.22a2.24,2.24,0,0,1-.5.13c-0.12,0-.22.09-0.35,0.1a1,1,0,0,0-.31.14,2.69,2.69,0,0,1-.37.13,0.58,0.58,0,0,0-.34.1,0.73,0.73,0,0,1-.31.07l-0.11.05a2.48,2.48,0,0,1-.82.32,0.37,0.37,0,0,0-.18.06,1.08,1.08,0,0,1-.58.2l-0.19.06c-0.26.08-.51,0.24-0.77,0.3a3.22,3.22,0,0,1-.77.18,1.66,1.66,0,0,0-.47.13,1.88,1.88,0,0,1-.61.18l-0.07,0-0.58.19a1,1,0,0,0-.46.15c-0.06-.08-0.13,0-0.19,0l-0.19,0a0.68,0.68,0,0,0-.33.12,0.37,0.37,0,0,0-.3.16s-0.11,0-.15,0a0.34,0.34,0,0,1-.09.14,1.61,1.61,0,0,1-.3.16,1.63,1.63,0,0,1-.31.08l-0.13,0-0.13,0a0.89,0.89,0,0,0-.57,0H68.87c-0.22,0-.46,0-0.69.06l-0.37.06-0.32.11a0.45,0.45,0,0,1-.19,0,0.42,0.42,0,0,0-.31.14l0,0a1.11,1.11,0,0,0-.54.23,1.13,1.13,0,0,1-.25.08,0.32,0.32,0,0,0-.24.21l-0.07,0a1.13,1.13,0,0,1-.31,0,1,1,0,0,0-.3.1l-0.1,0a2.64,2.64,0,0,0-.84.19,0.22,0.22,0,0,1-.24,0l-0.06,0c0,0.11-.11.06-0.13,0.13a1.61,1.61,0,0,0-.47.15l-0.27,0a0.29,0.29,0,0,1-.1.1,1.9,1.9,0,0,0-.58.13c-0.2,0-.37.17-0.58,0.2a1.58,1.58,0,0,0-.44.17c-0.1.05-.19,0-0.3,0.06a7.43,7.43,0,0,1-.71.25,1.07,1.07,0,0,0-.37.14,1.15,1.15,0,0,1-.35.16,2.76,2.76,0,0,1-.6.22,0.38,0.38,0,0,0-.19.1,0.75,0.75,0,0,1-.41.16,4.59,4.59,0,0,0-.53.12l-0.7.22a2.29,2.29,0,0,1-.37.05c-0.21,0-.38.15-0.59,0.18a1.62,1.62,0,0,0-.2.09,2.14,2.14,0,0,1-.48.05,2.75,2.75,0,0,0-.67.06l-0.46.11c-0.14,0-.28.1-0.43,0.11a0.84,0.84,0,0,0-.14,0H53.8c-0.08,0-.07.16-0.18,0.07a0.23,0.23,0,0,0-.18,0,0.76,0.76,0,0,0-.2.1c-0.22,0-.38.15-0.59,0.18s-0.34,0-.51,0l-0.4,0a2,2,0,0,0-.38.1l-0.1,0a2.2,2.2,0,0,0-.62.1,3.76,3.76,0,0,1-.56.06l-0.2,0a0.49,0.49,0,0,0-.18,0,0.27,0.27,0,0,1-.19,0l-0.19,0a3,3,0,0,0-.43.06,0.51,0.51,0,0,1-.19,0,1.36,1.36,0,0,0-.5.07c-0.18,0-.35.1-0.52,0.14a0.93,0.93,0,0,0-.22.09,1.69,1.69,0,0,1-.47.14,1.06,1.06,0,0,0-.48.12,0.25,0.25,0,0,1-.12,0H46.18a4.71,4.71,0,0,0-1.25.16l-0.32.13-0.19,0c0-.1-0.14-0.17,0-0.26a0.83,0.83,0,0,1,.06-0.06,1.87,1.87,0,0,1,.57-0.2l0,0a0.3,0.3,0,0,1,.18-0.07l0,0,0.51-.05a1.09,1.09,0,0,0,.29,0,0.82,0.82,0,0,1,.25,0h0.08a1,1,0,0,1,.48-0.12l0.14,0a0.82,0.82,0,0,0,.32-0.11,0.82,0.82,0,0,1,.31-0.14L48,59.28a2.61,2.61,0,0,1,.43-0.05,2,2,0,0,1,.44,0,0.52,0.52,0,0,1,.22,0c0.06,0,.17-0.06.26,0a0.47,0.47,0,0,0,.24,0,1.94,1.94,0,0,1,.24,0,1.88,1.88,0,0,1,.44,0A3.41,3.41,0,0,0,51,58.95l0.2,0a0.71,0.71,0,0,0,.4-0.12l0,0c0.11,0.12.22,0,.33,0h0.34a0.57,0.57,0,0,0,.32-0.05c0.1-.06.24,0,0.34-0.08l0.33-.09c0.16-.08.34-0.06,0.49-0.14h0.13a0.34,0.34,0,0,0,.22-0.07,1.06,1.06,0,0,1,.36-0.14l0.29,0a3.41,3.41,0,0,1,.71-0.06A1.47,1.47,0,0,0,56,58c0.16,0,.33-0.07.5-0.13a1.82,1.82,0,0,1,.5-0.12,1.36,1.36,0,0,0,.32-0.12,0.36,0.36,0,0,0,.31-0.14,1.71,1.71,0,0,0,.32-0.05,2.49,2.49,0,0,0,.73-0.21A0.54,0.54,0,0,0,59,57.11,2.06,2.06,0,0,1,59.34,57a1.73,1.73,0,0,0,.34-0.14,9,9,0,0,1,1-.38c0.36-.09.68-0.27,1-0.34a3.45,3.45,0,0,1,.59-0.23c0.19-.09.4-0.13,0.59-0.22a0.14,0.14,0,0,1,.13,0,0.18,0.18,0,0,0,.22,0,1.53,1.53,0,0,1,.22,0,0.31,0.31,0,0,1,.22-0.08,0.67,0.67,0,0,0,.16-0.12,0.93,0.93,0,0,0,.43-0.11l0.42-.14h0.05l0.61-.05,0.1,0A0.39,0.39,0,0,1,65.66,55c0.06-.06.18,0,0.18-0.14l0.07,0a0.46,0.46,0,0,0,.31-0.09,1.19,1.19,0,0,0,.37-0.2,0.55,0.55,0,0,1,.26-0.07,1,1,0,0,0,.39-0.15,0.16,0.16,0,0,1,.23,0l0,0h0a0.51,0.51,0,0,1,.37-0.08H68a0.47,0.47,0,0,1,.35-0.1,0.81,0.81,0,0,1,.33-0.06l0,0,0,0c0.06,0,.1.06,0.18,0a0.66,0.66,0,0,1,.22,0,0.5,0.5,0,0,1,.18,0,1.22,1.22,0,0,0,.52,0,0.63,0.63,0,0,0,.38-0.17,0.86,0.86,0,0,1,.49-0.22l0.07,0a0.35,0.35,0,0,1,.31-0.16,0.77,0.77,0,0,0,.2-0.08c0.05,0,.08-0.09.17,0a0.49,0.49,0,0,0,.18-0.08l0.19-.05H72c0.12,0,.2-0.11.32-0.12A1,1,0,0,0,72.63,53l0.28-.09a0.82,0.82,0,0,1,.3-0.12s0.06,0,.09,0a1.38,1.38,0,0,0,.57-0.14l0.29-.07a0.71,0.71,0,0,0,.46-0.16c0.12,0.1.18-.06,0.27-0.06a1,1,0,0,0,.27-0.1A7.45,7.45,0,0,0,76,51.92c0.28-.14.59-0.18,0.89-0.3s0.57-.19.86-0.28,0.6-.22.89-0.32,0.6-.18.89-0.25a0.62,0.62,0,0,0,.21-0.06,1.68,1.68,0,0,1,.63-0.19,0.62,0.62,0,0,1,.35-0.06c0.06-.08.11,0,0.17,0L81,50.4a0.43,0.43,0,0,0,.18-0.07,0.33,0.33,0,0,1,.22-0.1,7.5,7.5,0,0,1,.77-0.2,0.44,0.44,0,0,0,.2-0.09,1.55,1.55,0,0,1,.4-0.18,2.68,2.68,0,0,0,.55-0.2,3.36,3.36,0,0,0,.42-0.2,1,1,0,0,1,.38-0.11,0.83,0.83,0,0,0,.22-0.06A4.77,4.77,0,0,1,84.84,49a4.11,4.11,0,0,1,.64-0.24,0.34,0.34,0,0,0,.13-0.06,0.36,0.36,0,0,1,.15-0.09,2.51,2.51,0,0,0,.73-0.35,1.7,1.7,0,0,1,.44-0.13A0.2,0.2,0,0,0,87.08,48,0.31,0.31,0,0,1,87.31,48c0.14-.06.29-0.1,0.43-0.17A0.88,0.88,0,0,1,88,47.71l0.32-.12a1,1,0,0,0,.26-0.13c0.24-.15.53-0.21,0.77-0.37a0.92,0.92,0,0,0,.45-0.18c0.11,0,.22,0,0.32-0.07l0.41-.15A0.6,0.6,0,0,1,91,46.61c0.08,0,.12-0.1.2,0s0.14,0,.21,0a0.28,0.28,0,0,0,.22,0,0.19,0.19,0,0,1,.13,0,0.82,0.82,0,0,1,.38,0,0.78,0.78,0,0,1,.34.07,3.28,3.28,0,0,0,.5,0h0.17c0.06,0,.13,0,0.19,0a1.64,1.64,0,0,0,.5-0.12,1.33,1.33,0,0,0,.53-0.19h0a0.7,0.7,0,0,0,.49-0.16,5.2,5.2,0,0,1,.79-0.38,1.23,1.23,0,0,1,.39-0.16,2.07,2.07,0,0,1,.41-0.1l0.07,0A0.84,0.84,0,0,1,97,45.3a0.17,0.17,0,0,0,.11-0.05,3,3,0,0,1,.6-0.26c0.12,0,.15-0.15.27-0.11s0.18-.06.27-0.12a0.41,0.41,0,0,0,.23-0.19,0.14,0.14,0,0,1,.11-0.05,3.14,3.14,0,0,0,.88-0.37c0.06,0,0-.13.13-0.12a0.73,0.73,0,0,1,.4-0.25,3.25,3.25,0,0,1,1-.33,0.45,0.45,0,0,0,.29-0.13,0.78,0.78,0,0,1,.29-0.18,1.45,1.45,0,0,0,.47-0.22,0.71,0.71,0,0,1,.21-0.06l0.25-.09a0.63,0.63,0,0,1,.24-0.07,0.2,0.2,0,0,0,.15-0.07,0.63,0.63,0,0,1,.3-0.18,2.71,2.71,0,0,0,.67-0.39L104,42l0.37-.2a0.19,0.19,0,0,0,.14-0.13,0.13,0.13,0,0,1,.08,0,0.5,0.5,0,0,0,.21-0.06,6.23,6.23,0,0,0,.55-0.39A0.76,0.76,0,0,0,105.7,41a3.29,3.29,0,0,0,.36-0.28l0.13-.08a0.24,0.24,0,0,0,.21-0.2,0.61,0.61,0,0,1,.19-0.21l0.25-.15a0.51,0.51,0,0,1,.17-0.22l0,0a2.68,2.68,0,0,1,.41-0.6l0.19-.27a5.43,5.43,0,0,0,.3-0.51,0.47,0.47,0,0,1,.27-0.26s0,0,0,0l0,0,0,0v0c0.18-.3.36-0.59,0.55-0.89,0,0,0-.08.07-0.08a0.1,0.1,0,0,0,.08-0.06,0.87,0.87,0,0,1,.34-0.44,3.18,3.18,0,0,0,.37-0.43,0.89,0.89,0,0,1,.16-0.17,1.89,1.89,0,0,0,.35-0.41c0.08-.14.2-0.22,0.28-0.36s0.24-.28.33-0.44,0.17,0,.15-0.14a0.62,0.62,0,0,0,.26-0.26l0-.07a3.44,3.44,0,0,0,.59-0.49,0.12,0.12,0,0,0,0-.06,0.24,0.24,0,0,1,0-.09,0.41,0.41,0,0,1,.22-0.17,0.36,0.36,0,0,1,.13-0.24,0.8,0.8,0,0,0,.26-0.34,0.48,0.48,0,0,1,.12-0.14,3.67,3.67,0,0,0,.53-0.58s0.07,0,.08,0l0.2-.18a0.7,0.7,0,0,1,.22-0.14,0.41,0.41,0,0,0,.12-0.14,1,1,0,0,1,.65-0.42,0.22,0.22,0,0,1,.18,0c0.11,0.08.26,0.07,0.36,0.15a1.93,1.93,0,0,0,.36.09,1.26,1.26,0,0,0,.53.12,0.85,0.85,0,0,0,.29,0,4.47,4.47,0,0,1,.56-0.06,0.59,0.59,0,0,1,.34,0,0.13,0.13,0,0,1,.09,0c0.06,0.08.13-.09,0.19,0a0.29,0.29,0,0,0,.2,0,1.37,1.37,0,0,1,.64.11,1.78,1.78,0,0,1,.35.22,0.11,0.11,0,0,1,.05.06c0,0.2.17,0.2,0.27,0.29L119,32.67a0.45,0.45,0,0,0,.19.1,0.57,0.57,0,0,1,.2.11,1.73,1.73,0,0,1,.33.22,1.78,1.78,0,0,1,.34.26l0.09,0.12a0.22,0.22,0,0,0,.09.09,2.2,2.2,0,0,1,.71.44c0.2,0.14.31,0.36,0.5,0.51a1.06,1.06,0,0,0,.24.3,2.57,2.57,0,0,1,.31.2,2.75,2.75,0,0,0,.35.18,4.69,4.69,0,0,0,.75.22c0.25,0.06.51,0.06,0.76,0.14a0.87,0.87,0,0,0,.26,0h0.5a2.51,2.51,0,0,1,.4.05h0c0.19,0.22.51,0.22,0.72,0.44a2.59,2.59,0,0,1,.51.76c0.07,0.22.17,0.44,0.26,0.67L126.71,38a0.2,0.2,0,0,0,0,0,1,1,0,0,1,.19.24,1.64,1.64,0,0,0,.18.24,0.81,0.81,0,0,0,.22.22q0.22,0.16.46,0.3a0.84,0.84,0,0,1,.38.28,0.6,0.6,0,0,1,.29.17,1.82,1.82,0,0,1,.29.2,2.29,2.29,0,0,1,.32.18,2.35,2.35,0,0,0,.29.18,1.54,1.54,0,0,1,.44.22h0a1.08,1.08,0,0,1,.44.15,1.59,1.59,0,0,1,.38.22,3.59,3.59,0,0,0,.65.4l0.22,0.12a0.87,0.87,0,0,0,.4.18,0.4,0.4,0,0,1,.15.09,1.09,1.09,0,0,0,.38.16,0.47,0.47,0,0,1,.31.18A0.65,0.65,0,0,0,133,42c0.07,0.07.15,0.11,0.22,0.18a2.65,2.65,0,0,0,.49.29l0.41,0.33c0.22,0.19.42,0.41,0.65,0.59a3.63,3.63,0,0,1,.38.34,1.17,1.17,0,0,0,.17.22,1.11,1.11,0,0,0,.19.16,0.71,0.71,0,0,1,.1.14,1.64,1.64,0,0,0,.26.26c0.1,0.06.17,0.16,0.27,0.22a3,3,0,0,1,.41.35l0.6,0.54a1.58,1.58,0,0,0,.16.06,0.35,0.35,0,0,0,.09.1,1.26,1.26,0,0,1,.4.44,0.51,0.51,0,0,0,.14.17,7,7,0,0,1,.46.52c0.19,0.2.37,0.41,0.56,0.61a1,1,0,0,0,.29.19c0.14,0.06.29,0.11,0.44,0.16l0.11,0.05a1.66,1.66,0,0,0,.44.22,0.7,0.7,0,0,0,.38.1,0.13,0.13,0,0,1,.1.08,2.3,2.3,0,0,0,.4.17,1.27,1.27,0,0,1,.55.27,0.32,0.32,0,0,1,.22.22,3.17,3.17,0,0,1,.43.43,1.07,1.07,0,0,1,.31.2c0.28,0.06.48,0.27,0.76,0.35a0.3,0.3,0,0,1,.29.12,0.76,0.76,0,0,1,.3.12c0.13,0.07.27,0.1,0.4,0.19a2.06,2.06,0,0,1,.38.22,0.14,0.14,0,0,0,.09,0,1.68,1.68,0,0,1,.51.18,1.19,1.19,0,0,1,.34.2,0.92,0.92,0,0,0,.24.12,1.5,1.5,0,0,0,.59.1,2.85,2.85,0,0,1,.59.11,0.25,0.25,0,0,1,.13.06c0.16,0.16.38,0.22,0.53,0.38a5.09,5.09,0,0,1,.41.34,1.56,1.56,0,0,1,.47.27c0.24,0.15.46,0.34,0.69,0.51l0.33,0.22,0.44,0.27a1.44,1.44,0,0,0,.35.1,0.92,0.92,0,0,0,.43.06,1.94,1.94,0,0,0,.44.1,1,1,0,0,0,.34.05L152,53.8a0.44,0.44,0,0,1,.35,0c0.27,0,.51.17,0.77,0.1,0.08,0,.11.12,0.18,0s0.08,0,.15,0a0.25,0.25,0,0,1,.22,0,0.51,0.51,0,0,0,.23,0,0.32,0.32,0,0,1,.19.06,1.19,1.19,0,0,0,.39.15,1.14,1.14,0,0,1,.44.16l0.27,0.11a0.32,0.32,0,0,1,.31,0,2.18,2.18,0,0,0,.36,0,6.53,6.53,0,0,1,1,.22l0.22,0.06a2.23,2.23,0,0,1,.78.42l0.34,0.19a0.22,0.22,0,0,1,.2.17,0.05,0.05,0,0,0,0,0,0.87,0.87,0,0,1,.38.17l0.09,0a4.8,4.8,0,0,0,.74.06,3.79,3.79,0,0,1,.39,0,1,1,0,0,0,.26,0c0.08,0,.15,0,0.22,0l0.37-.06a1.76,1.76,0,0,0,.35,0,2.73,2.73,0,0,1,.55-0.06,0.59,0.59,0,0,0,.22,0,0.24,0.24,0,0,1,.18,0,3.2,3.2,0,0,1,.46,0,1.71,1.71,0,0,1,.46.1h0.21a0.35,0.35,0,0,1,.36.09,0.16,0.16,0,0,0,.1,0,0.25,0.25,0,0,1,.26.08l0.07,0,0.58,0.05a0.25,0.25,0,0,1,.12,0c0.13,0.1.31,0.06,0.44,0.16a1.58,1.58,0,0,0,.42.13l0.15,0.07a1.76,1.76,0,0,0,.77.3,2.58,2.58,0,0,1,.43.17,3.87,3.87,0,0,0,.47.22,1.21,1.21,0,0,1,.29.24,0.64,0.64,0,0,1,.3.19L168,58a0.92,0.92,0,0,1-.41-0.14c-0.09-.05-0.16-0.12-0.24-0.18a0.46,0.46,0,0,0-.15-0.09,2.29,2.29,0,0,1-.62-0.3,0.81,0.81,0,0,0-.28-0.08,1.42,1.42,0,0,1-.46-0.17,1.63,1.63,0,0,0-.67-0.25,0.66,0.66,0,0,1-.22-0.08,1.39,1.39,0,0,0-.55-0.14,0.71,0.71,0,0,1-.32-0.06,6.63,6.63,0,0,0-.71-0.2c-0.11,0-.24,0-0.37-0.05a2.49,2.49,0,0,0-.5-0.06,0.67,0.67,0,0,0-.24,0,3.51,3.51,0,0,1-.41,0c-0.06-.08-0.1,0-0.15,0s-0.36,0-.53.06a7.74,7.74,0,0,1-1,.06h-0.3a0.25,0.25,0,0,1-.21,0,0.33,0.33,0,0,0-.17,0,0.69,0.69,0,0,0-.24,0,1,1,0,0,1-.6-0.14c-0.32-.15-0.62-0.33-0.93-0.51a1.1,1.1,0,0,0-.27-0.17,1,1,0,0,1-.26-0.2,0.27,0.27,0,0,0-.13-0.07c-0.25,0-.46-0.18-0.72-0.18l-0.12,0a1.78,1.78,0,0,0-.58-0.12c-0.18,0-.36-0.09-0.54-0.11a4.6,4.6,0,0,1-.5-0.13c-0.17,0-.33-0.09-0.49-0.14h0a2,2,0,0,0-.94-0.17,2.94,2.94,0,0,1-.73-0.14H152.3a2.62,2.62,0,0,1-.75-0.17l-0.12,0a2,2,0,0,1-.63-0.13,1.41,1.41,0,0,0-.36-0.08c-0.1,0-.18-0.14-0.28,0l-0.26-.09-0.25-.1-0.25-.1a0.37,0.37,0,0,0-.22-0.13,0.55,0.55,0,0,1-.22-0.15,2.47,2.47,0,0,1-.22-0.15c-0.06-.06-0.09-0.11-0.14-0.16l-0.16-.12c-0.16-.11-0.32-0.2-0.47-0.32a0.44,0.44,0,0,1-.21-0.09l-0.16-.12a0.91,0.91,0,0,0-.22-0.22c-0.06-.08-0.16-0.12-0.22-0.19a1.58,1.58,0,0,0-.31-0.15,0.55,0.55,0,0,0-.34-0.07,0.26,0.26,0,0,1-.13,0A1,1,0,0,0,146,51.5a1,1,0,0,0-.39-0.14,1.31,1.31,0,0,0-.51-0.29,8.17,8.17,0,0,0-.78-0.34l-0.09-.1-0.14,0-0.4-.18-0.42-.14a1,1,0,0,1-.48-0.22l-0.07,0a0.52,0.52,0,0,1-.2,0,2,2,0,0,1-.5-0.33,1.43,1.43,0,0,1-.36-0.46,0.22,0.22,0,0,0-.18-0.14,0.25,0.25,0,0,1-.14-0.09,2.15,2.15,0,0,0-.37-0.19,0.61,0.61,0,0,0-.39-0.13l-0.09,0-0.08-.06a0.41,0.41,0,0,1-.29-0.08,1.24,1.24,0,0,0-.24-0.13,3.4,3.4,0,0,0-.6-0.26,1.19,1.19,0,0,0-.44-0.16,0.49,0.49,0,0,0-.21-0.2c-0.06-.08-0.16-0.13-0.22-0.2a1.61,1.61,0,0,1-.18-0.22c-0.05-.08-0.1-0.17-0.15-0.25a2.74,2.74,0,0,0-.33-0.33,2.62,2.62,0,0,1-.28-0.33,1.19,1.19,0,0,0-.4-0.43c-0.27-.16-0.46-0.41-0.72-0.56a1,1,0,0,0-.2-0.21,0.63,0.63,0,0,1-.24-0.19,0.29,0.29,0,0,0-.22-0.14l0,0a0.64,0.64,0,0,0-.25-0.34,4.23,4.23,0,0,0-.33-0.34,1.09,1.09,0,0,1-.22-0.22,0.86,0.86,0,0,0-.22-0.22c-0.22-.2-0.42-0.41-0.65-0.59s-0.22-.21-0.35-0.3l-0.47-.32a1.77,1.77,0,0,1-.29-0.19,1.19,1.19,0,0,0-.62-0.35c0-.1-0.17,0-0.18-0.1s-0.12,0-.16-0.08a1,1,0,0,0-.48-0.22,1.45,1.45,0,0,0-.29-0.18,1.48,1.48,0,0,1-.31-0.14,1.69,1.69,0,0,0-.52-0.4,1.34,1.34,0,0,0-.44-0.17h-0.08a0.75,0.75,0,0,0-.35-0.18,1.82,1.82,0,0,0-.36-0.15,0.28,0.28,0,0,1-.13-0.07,4.88,4.88,0,0,1-.5-0.33,0.42,0.42,0,0,1-.32-0.22,1,1,0,0,0-.21-0.09,2.36,2.36,0,0,0-.4-0.29c-0.12-.08-0.26-0.14-0.38-0.22a1.43,1.43,0,0,1-.39-0.39,0.2,0.2,0,0,0-.2-0.1,0.59,0.59,0,0,0-.17-0.44s0-.08,0-0.11,0-.21-0.13-0.22l0,0a1,1,0,0,0-.16-0.49c-0.06-.16-0.09-0.33-0.17-0.49s0-.15-0.12-0.17a0.36,0.36,0,0,1-.14-0.19,0.49,0.49,0,0,0-.25-0.23l-0.15-.09a0.78,0.78,0,0,0-.6-0.22,0.42,0.42,0,0,1-.22-0.05c-0.08,0-.13.12-0.22,0a0.39,0.39,0,0,0-.22,0,1.73,1.73,0,0,1-.57-0.1h-0.21l-0.19-.05c-0.12-.05-0.26,0-0.39-0.09s-0.27-.08-0.39-0.14-0.22-.13-0.35-0.18a1.85,1.85,0,0,1-.42-0.33,0.44,0.44,0,0,1-.22-0.19A0.51,0.51,0,0,0,121,34.5c-0.26-.19-0.46-0.46-0.74-0.63a2.76,2.76,0,0,1-.52-0.38c-0.2-.2-0.46-0.32-0.66-0.5l-0.19-.06c-0.06,0-.06-0.16-0.18-0.13a0.39,0.39,0,0,1-.19-0.11l-0.2-.14a0.92,0.92,0,0,1-.19-0.1,0.22,0.22,0,0,0-.19-0.06,0.67,0.67,0,0,1-.52-0.15,0.69,0.69,0,0,0-.54-0.11,0.15,0.15,0,0,1-.1,0,0.22,0.22,0,0,0-.22,0,1.73,1.73,0,0,1-.8,0,1.44,1.44,0,0,1-.74-0.18,0.19,0.19,0,0,0-.12,0,0.38,0.38,0,0,1-.27-0.06c-0.06,0-.09-0.07-0.15,0a0.13,0.13,0,0,1-.09,0,0.34,0.34,0,0,0-.41.1,1,1,0,0,1-.35.3c-0.09.25-.42,0.29-0.51,0.55a0.8,0.8,0,0,1-.19.16,3.55,3.55,0,0,1-.3.34,1.81,1.81,0,0,0-.27.33,13.42,13.42,0,0,1-1.09,1.21,2.17,2.17,0,0,0-.51.67,1.06,1.06,0,0,1-.2.26,0.16,0.16,0,0,0-.06.14,0.07,0.07,0,0,1,0,.05c-0.15,0-.15.1-0.22,0.18-0.2.22-.39,0.44-0.59,0.65s-0.17.2-.27,0.29a3.56,3.56,0,0,0-.27.3,0.5,0.5,0,0,0-.09.15,1.06,1.06,0,0,1-.3.46,0.82,0.82,0,0,0-.11.16,0.35,0.35,0,0,1-.08.12,0.81,0.81,0,0,0-.31.37,3,3,0,0,0-.32.53c0,0.06,0,.12-0.07.18s0,0.12-.14.11,0,0.06,0,.1l0,0Z" transform="translate(-42.2 -31.27)"/><path class="cls-4" d="M121.44,59.53l0.07-.22a0.55,0.55,0,0,0,0-.3,0.72,0.72,0,0,1-.05-0.16,1.68,1.68,0,0,1,0-.22,1.52,1.52,0,0,1,.48-0.4,0.19,0.19,0,0,1,.12,0,0.15,0.15,0,0,0,.18-0.08c0-.09.1,0.1,0.12,0a0.41,0.41,0,0,1,.1-0.14l0.1-.14a0.46,0.46,0,0,0,.12-0.22,0.55,0.55,0,0,0,.1-0.22,0.13,0.13,0,0,1,.06-0.1A0.49,0.49,0,0,1,123,57.2a0.39,0.39,0,0,1,.22.12,1.39,1.39,0,0,1,.28.46c0.07,0.17.12,0.34,0.17,0.51a0.75,0.75,0,0,1,.15.28,1.13,1.13,0,0,0,0,.32,0.57,0.57,0,0,0,.18.42,0.44,0.44,0,0,0,.22.22,2.4,2.4,0,0,1,.18.22,0.28,0.28,0,0,0,.17.07l0.5,0.06a0.37,0.37,0,0,0,.33-0.17,0.69,0.69,0,0,1,.25-0.22,0.17,0.17,0,0,1,.18,0,0.15,0.15,0,0,0,.12,0,0.17,0.17,0,0,1,.24,0h0a1.22,1.22,0,0,0,.38.11,4.24,4.24,0,0,0,.56,0,1.29,1.29,0,0,0,.7-0.22l0.18-.18a0.22,0.22,0,0,0,.17-0.15,0.08,0.08,0,0,1,.06,0,1.85,1.85,0,0,0,.44.09c0.15,0.09.28,0.07,0.41,0.16a0.15,0.15,0,0,0,.1,0,0.69,0.69,0,0,1,.29.05c0.07,0,.14.08,0.22,0a0.09,0.09,0,0,1,.08,0,0.83,0.83,0,0,0,.41,0,0.41,0.41,0,0,0,.31-0.18,0.36,0.36,0,0,1,.09-0.09l0.16-.06c0.08-.06.08,0,0.11,0s0.27,0.17.4,0.23,0.17,0,.2.1,0.16,0,.14.15a1.86,1.86,0,0,0,.51.36,0.56,0.56,0,0,1,.31.26,0.44,0.44,0,0,0,.24.19,0.31,0.31,0,0,1,.2.27,0.57,0.57,0,0,0,.16.36,1,1,0,0,0,.14.28l0.27,0.1a0.94,0.94,0,0,1,.33.16,5.2,5.2,0,0,1,.6.52l0.05,0.11a0.39,0.39,0,0,0,.24-0.06,1.1,1.1,0,0,1,.39-0.21,0.84,0.84,0,0,0,.2-0.15l0.2-.08c0-.15.12,0,0.17-0.08a0.44,0.44,0,0,0,.25-0.22,0.59,0.59,0,0,1,.12-0.24,0.93,0.93,0,0,1,.66-0.33c0.12,0,.22,0,0.35,0a1.06,1.06,0,0,0,.35,0,0.48,0.48,0,0,0,.32-0.41A0.67,0.67,0,0,1,137.8,60a0.76,0.76,0,0,0,.09-0.44,0.35,0.35,0,0,1,0-.22,1.23,1.23,0,0,0,.09-0.2c0.1,0,.06-0.14.16-0.11a1.17,1.17,0,0,1,.38-0.25l0.08-.05a0.31,0.31,0,0,1,.22-0.12l0.17-.1a0.56,0.56,0,0,1,.31-0.15c0-.06.1-0.11,0.14-0.18a0.85,0.85,0,0,1,.22-0.31,0.54,0.54,0,0,0,.18-0.34,0.57,0.57,0,0,1,.26-0.33,0.38,0.38,0,0,1,.4,0,0.3,0.3,0,0,1,.22.19,4.55,4.55,0,0,0,.3.54L141.12,58a0.32,0.32,0,0,1,.16.3,1.06,1.06,0,0,1,.18.3,0.66,0.66,0,0,0,.13.18,1.09,1.09,0,0,1,.16.36,0.11,0.11,0,0,1,0,.1,0.22,0.22,0,0,0,0,.22,0.72,0.72,0,0,1,0,.14,0.44,0.44,0,0,0,.19.29,0.84,0.84,0,0,0,.79.1,1.11,1.11,0,0,1,.34,0,6,6,0,0,0,.82-0.06,1.42,1.42,0,0,1,.68.1l0.19,0.06,0.19,0,0.39,0.14,0.27,0a2.9,2.9,0,0,1,.24.31,1.05,1.05,0,0,0,.59.41l0.1,0a1.33,1.33,0,0,0,.55.27l0.15,0h0.21c0.18,0,.18,0,0.21.18a0.16,0.16,0,0,0,.05.1,0.9,0.9,0,0,0,.36.07,0.61,0.61,0,0,0,.22-0.08c0.06,0,.06-0.15.12-0.21a2,2,0,0,0,.37-0.59,0.27,0.27,0,0,0,0-.09,0.36,0.36,0,0,1,.18-0.38,0.24,0.24,0,0,0,.09-0.22,0.16,0.16,0,0,1,.08-0.2,0.22,0.22,0,0,1,.28.07,1.51,1.51,0,0,0,.46.41,0.15,0.15,0,0,0,.09,0,1.18,1.18,0,0,1,.38.12,0.67,0.67,0,0,1,.31.25,0.28,0.28,0,0,1,.15.2,0.25,0.25,0,0,0,.18.18l0.19,0.05a0.48,0.48,0,0,1,.36.28,1.17,1.17,0,0,0,.31.3,0.66,0.66,0,0,0,.25,0,0.9,0.9,0,0,1,.34,0,0.54,0.54,0,0,0,.42-0.18l0.37-.24a2,2,0,0,0,.35-0.29,0.31,0.31,0,0,0,.1-0.22,1.14,1.14,0,0,1,.12-0.56c0.05-.15.09-0.31,0.16-0.46s0-.17.12-0.16l0,0c-0.09,0,0-.1,0-0.12s0.22-.31.33-0.47a0.84,0.84,0,0,0,.13-0.18,0.27,0.27,0,0,1,.29-0.19,1.37,1.37,0,0,1,.78.22,1.7,1.7,0,0,0,.61.25,1.48,1.48,0,0,0,1-.06l0.18-.08a0.47,0.47,0,0,0,.22-0.11,0.3,0.3,0,0,1,.15,0,0.48,0.48,0,0,1-.31.22,1.49,1.49,0,0,1-1,.3,1.91,1.91,0,0,1-.86-0.28,1.24,1.24,0,0,0-.44-0.13,0.63,0.63,0,0,1-.22,0,0.28,0.28,0,0,0-.28.16,2.09,2.09,0,0,1-.3.43,1.29,1.29,0,0,0-.13.22,0.46,0.46,0,0,0-.09.25c0,0.12-.12.2-0.11,0.32s-0.15.06,0,.15a1,1,0,0,0-.1.19,0.27,0.27,0,0,1-.06.19,0.37,0.37,0,0,1-.13.29,4.49,4.49,0,0,1-.8.74,0.59,0.59,0,0,1-.36.11,0.94,0.94,0,0,0-.32.06,0.35,0.35,0,0,1-.27,0,0.15,0.15,0,0,0-.2.06h0a1.33,1.33,0,0,0-.25-0.13,1,1,0,0,0-.17-0.2,0.74,0.74,0,0,1-.15-0.3,0.87,0.87,0,0,1-.58-0.2,0.19,0.19,0,0,1-.1-0.17,0.08,0.08,0,0,0,0-.06,1.4,1.4,0,0,0-.49-0.34c-0.2-.05-0.39-0.12-0.58-0.18a0.22,0.22,0,0,0-.19,0,0.53,0.53,0,0,0-.22.17,0.52,0.52,0,0,0-.13.32,0.83,0.83,0,0,0-.11.27,0.41,0.41,0,0,0-.14.26,0.65,0.65,0,0,1-.51.35l-0.22.05a0.51,0.51,0,0,1-.5-0.18l0,0a1.42,1.42,0,0,1-.5-0.2,3,3,0,0,1-.5-0.19,1.67,1.67,0,0,1-.67-0.38,0.09,0.09,0,0,0-.06,0,0.2,0.2,0,0,1-.19-0.12,2.22,2.22,0,0,1-.15-0.25c-0.2,0-.37-0.14-0.57-0.16l-0.22-.05-0.11,0a1.52,1.52,0,0,0-.48-0.11l-0.24.05a0.53,0.53,0,0,0-.19,0s-0.12-.06-0.16,0a1.14,1.14,0,0,1-.51,0h-0.53a1.9,1.9,0,0,1-.79-0.26l0,0a1.13,1.13,0,0,1-.16-0.59,0.56,0.56,0,0,0-.05-0.36,1.45,1.45,0,0,0-.22-0.38,0.52,0.52,0,0,1-.09-0.4,1.84,1.84,0,0,1-.43-0.57,0.39,0.39,0,0,0-.09-0.1c-0.13-.14-0.29-0.13-0.32,0a1.58,1.58,0,0,1-.32.5c-0.07.12-.2,0.2-0.28,0.33a0.14,0.14,0,0,1-.15.09,0.11,0.11,0,0,0-.08,0,1.82,1.82,0,0,1-.34.22,2.2,2.2,0,0,1-.36.22l-0.33.24a2.74,2.74,0,0,1-.07.32,1.15,1.15,0,0,0-.06.27,1.19,1.19,0,0,1-.08.28,0.86,0.86,0,0,0-.08.23,0.72,0.72,0,0,1-.11.22,0.84,0.84,0,0,1-.52.46,1.4,1.4,0,0,1-.46.09,0.86,0.86,0,0,0-.35,0,0.61,0.61,0,0,0-.38.28,0.58,0.58,0,0,1-.34.26,0.86,0.86,0,0,0-.28.16,4.66,4.66,0,0,0-.72.49,0.36,0.36,0,0,1-.17.09l-0.27.06a0.21,0.21,0,0,1-.28-0.1v0a0.41,0.41,0,0,0-.16-0.25,2.38,2.38,0,0,0-.87-0.52l-0.25-.11c-0.11-.09-0.11-0.09-0.09-0.27a0.17,0.17,0,0,0,0-.08,2.44,2.44,0,0,1-.22-0.49,0.14,0.14,0,0,0-.08-0.07,1.31,1.31,0,0,1-.38-0.34,0.62,0.62,0,0,0-.22-0.17A0.22,0.22,0,0,1,131.7,60s0-.14-0.14-0.1h0a1.48,1.48,0,0,0-.52-0.34,0.54,0.54,0,0,0-.28-0.07l-0.07,0a1.32,1.32,0,0,1-.77.24h-0.08a2.12,2.12,0,0,1-1-.17,0.75,0.75,0,0,0-.75.15c0,0.12-.09.09-0.13,0.12a1.13,1.13,0,0,1-.32.12l-0.24.05h-0.24l-0.14,0a0.48,0.48,0,0,1-.25,0,0.24,0.24,0,0,0-.14-0.05l-0.43-.06-0.07,0a0.24,0.24,0,0,0-.34,0h0l-0.22.18a0.81,0.81,0,0,1-.7.12c-0.07,0-.16.08-0.21,0a0.38,0.38,0,0,1-.25-0.1,1.7,1.7,0,0,1-.27-0.23,0.37,0.37,0,0,1-.22-0.22,0.59,0.59,0,0,1-.27-0.28,0.2,0.2,0,0,1,0-.11,2.35,2.35,0,0,0-.19-0.87,3.53,3.53,0,0,1-.19-0.48A0.13,0.13,0,0,0,123,57.8a0.13,0.13,0,0,0-.08.07,1.82,1.82,0,0,1-.56.55,0.86,0.86,0,0,1-.3.16,0.59,0.59,0,0,0-.22.14l0.11,0.09,0,0.11a0.36,0.36,0,0,0,0,.11l0,0.11s0,0,0,.06a2.3,2.3,0,0,0-.06.24,0.42,0.42,0,0,1-.2.38,1.05,1.05,0,0,0-.32.35c-0.14.18-.24,0.4-0.39,0.57a0.5,0.5,0,0,1-.34.23,0.73,0.73,0,0,0-.21.07,0.56,0.56,0,0,1-.29,0,1.41,1.41,0,0,1-.4.05,1,1,0,0,1-.48.05,0.72,0.72,0,0,0-.34.06,2.32,2.32,0,0,0-.54.36l-0.08.08c0,0.25-.09.49-0.05,0.74a1.4,1.4,0,0,1-.42.77,0.18,0.18,0,0,1-.21,0,0.58,0.58,0,0,0-.31,0,1.79,1.79,0,0,1-.44-0.06,0.15,0.15,0,0,1-.16-0.13s-0.1,0-.14,0l-0.07-.09a6.64,6.64,0,0,1-.56-0.43,0.63,0.63,0,0,1-.22-0.46c0-.09,0-0.18,0-0.27a1.23,1.23,0,0,0,0-.27,3.1,3.1,0,0,1-.17-0.38,0.56,0.56,0,0,0-.37-0.22l-0.06,0a0.73,0.73,0,0,0-.46-0.17,0.73,0.73,0,0,1-.31-0.07,1.72,1.72,0,0,1-.31-0.2,0.25,0.25,0,0,0-.2-0.1,0.12,0.12,0,0,1-.1-0.05,0.38,0.38,0,0,0-.31-0.21A1.42,1.42,0,0,1,113,59.9c-0.1-.09-0.2-0.2-0.3-0.3a3.94,3.94,0,0,0-.71-0.07l-0.27,0-0.12,0a0.79,0.79,0,0,1-.75,0l-0.21-.07a1.29,1.29,0,0,1-.34-0.15,0.62,0.62,0,0,0-.32-0.13,0.56,0.56,0,0,1-.33-0.13,1,1,0,0,1-.29-0.16c0-.06-0.14,0-0.17,0a1.34,1.34,0,0,1-.26.37,0.06,0.06,0,0,0,0,0,1,1,0,0,1-.2.55l-0.06.13-0.12.26a2.85,2.85,0,0,0-.3.36,0.45,0.45,0,0,1-.36.18,0.32,0.32,0,0,1,0-.43,0.1,0.1,0,0,0,0,0,1.59,1.59,0,0,1-.46-0.67,0.93,0.93,0,0,0-.16-0.22c-0.06-.08-0.2-0.1-0.16-0.25a0.21,0.21,0,0,0-.08-0.1,0.19,0.19,0,0,1-.08-0.15,0.15,0.15,0,0,0-.07-0.1,1.61,1.61,0,0,1-.29-0.19,0.44,0.44,0,0,0-.37-0.14,0.51,0.51,0,0,0-.54.29,0.79,0.79,0,0,0-.24.24c-0.11,0-.07.12-0.14,0.15a0.18,0.18,0,0,0-.1.2l-0.24.18a2,2,0,0,1-.58.2c-0.15.06-.41,0.15-0.54,0.22a1.85,1.85,0,0,1-.68.26,0.52,0.52,0,0,1-.34-0.08l-0.22-.11a0.12,0.12,0,0,0-.16,0,1.35,1.35,0,0,1-.63.34c-0.05,0-.1.06-0.15,0.07a0.39,0.39,0,0,1-.24,0c-0.08,0-.22,0-0.24-0.15a0.44,0.44,0,0,0-.13-0.21,0.32,0.32,0,0,0-.52,0l-0.08.07a1.25,1.25,0,0,1-.74.44,0.23,0.23,0,0,1-.27,0h-0.1l-0.61-.06a0.22,0.22,0,0,1-.17-0.17,0.28,0.28,0,0,0-.34-0.2l-0.1,0c-0.2.12-.42,0.19-0.62,0.3a5.16,5.16,0,0,1-.62.22,0.89,0.89,0,0,1-.54-0.07L96,60.56V60.23A0.28,0.28,0,0,0,96,60a0.25,0.25,0,0,1-.05-0.11l0-.1a0.42,0.42,0,0,1-.11-0.22,0.27,0.27,0,0,1,0-.09,0.74,0.74,0,0,0-.11-0.41l-0.08-.18a0.31,0.31,0,0,1,0-.27,0.66,0.66,0,0,0-.1-0.48A0.63,0.63,0,0,0,95.32,58a0.51,0.51,0,0,0-.14.32,2.26,2.26,0,0,1-.1.33,0.65,0.65,0,0,1-.43.4,1.38,1.38,0,0,1-.67.1,0.4,0.4,0,0,0-.08-0.12,0.55,0.55,0,0,0-.2-0.2,0.35,0.35,0,0,0-.12-0.24,1.47,1.47,0,0,1-.16-0.35,2.35,2.35,0,0,0-.15-0.31l-0.36-.06a0.17,0.17,0,0,1-.24.05,0.44,0.44,0,0,0-.38.14l-0.21.2a0.78,0.78,0,0,0-.17.13,0.14,0.14,0,0,1-.15.1,0.2,0.2,0,0,0-.13.06,2.09,2.09,0,0,0-.54.67,0.08,0.08,0,0,1,0,0,0.83,0.83,0,0,0-.28.22l-0.38.22a0.17,0.17,0,0,1-.15.08,0.91,0.91,0,0,1-.22-0.08c-0.06,0-.11-0.12-0.17-0.16s-0.17,0-.16-0.11a0.35,0.35,0,0,0-.31,0,0.72,0.72,0,0,0-.29.19l-0.06,0a1,1,0,0,0-.34.33,1.76,1.76,0,0,1-.12.14,1,1,0,0,0-.26.31,0.13,0.13,0,0,1-.08.06,2.6,2.6,0,0,1-.84.33c-0.05.09-.1-0.06-0.17,0a0.22,0.22,0,0,1-.18.07c-0.18-.06-0.39,0-0.55-0.05a1.19,1.19,0,0,0-.52,0l-0.06,0L85.85,61a0.66,0.66,0,0,1-.26.21l-0.31.09a1.7,1.7,0,0,1-.64-0.07l-0.12,0A4.27,4.27,0,0,1,84,61.18a0.41,0.41,0,0,0-.35,0,1.92,1.92,0,0,0-.53-0.06,1.31,1.31,0,0,0-.59,0A1,1,0,0,1,81.81,61a5.81,5.81,0,0,1-.44-0.45,0.3,0.3,0,0,1,0-.14H81.12l0.06-.14a0.56,0.56,0,0,0-.52-0.18,1.44,1.44,0,0,0-.25.19,0.62,0.62,0,0,0-.11.24,0.22,0.22,0,0,1-.17.13,1.75,1.75,0,0,1-.34.07,0.59,0.59,0,0,0-.32,0,0.22,0.22,0,0,1-.16,0l-0.62-.16a0.31,0.31,0,0,1-.13-0.07,0.94,0.94,0,0,0-.34-0.2l-0.36-.16a1.06,1.06,0,0,0-.38,0,1.6,1.6,0,0,0-.59.22c0,0.08-.18.1-0.13,0.22a1.3,1.3,0,0,0-.47.44v0a0.38,0.38,0,0,1-.44.24,5.45,5.45,0,0,1-.69-0.06,0.67,0.67,0,0,1-.32-0.12,1.55,1.55,0,0,0-.32,0A0.9,0.9,0,0,0,74.23,61a0.56,0.56,0,0,0-.41.08,0.14,0.14,0,0,1-.09,0,0.63,0.63,0,0,0-.37.13,0.61,0.61,0,0,1-.49.05l0,0c-0.21,0-.4-0.09-0.62,0A1.19,1.19,0,0,1,72,60.88a0.52,0.52,0,0,0-.41-0.29,2.58,2.58,0,0,0-.48-0.08,1.18,1.18,0,0,1-.79.38L70,61H69.74a0.33,0.33,0,0,1-.28,0,1.32,1.32,0,0,1-.29-0.06,0.19,0.19,0,0,0-.13,0,0.22,0.22,0,0,1-.2-0.08l-0.09,0V60.69a0.71,0.71,0,0,1-.37-0.21l-0.19-.16c-0.09,0,0-.17-0.16-0.13A0.32,0.32,0,0,0,67.86,60a0.7,0.7,0,0,0-.09-0.1l-0.09-.15c-0.06.06-.07,0-0.1,0a0.38,0.38,0,0,0-.15-0.07,0.22,0.22,0,0,1-.17-0.15l0,0L66.71,59a0.24,0.24,0,0,0-.11,0H66.52c-0.11,0-.19-0.19-0.33-0.05a0.81,0.81,0,0,0-.37.06,1,1,0,0,1-.36,0l-0.43,0a1.34,1.34,0,0,0-.44.06s0,0,0,0a0.75,0.75,0,0,0-.54.22,0.14,0.14,0,0,1-.16,0,0.85,0.85,0,0,0-.39-0.09l-0.19,0a1.6,1.6,0,0,0-.41.1,2.24,2.24,0,0,0-.34.16,0.13,0.13,0,0,0-.06.11,0.56,0.56,0,0,1-.16.35,1,1,0,0,1-.35.3,0.14,0.14,0,0,0-.06.08,0.82,0.82,0,0,1,0,.11,1.36,1.36,0,0,0-.3.22,0.78,0.78,0,0,1-.36.1,0.22,0.22,0,0,0-.15,0,0.61,0.61,0,0,1-.42.08H60.48A1.11,1.11,0,0,0,60,60.46h0a0.77,0.77,0,0,0-.6-0.2H59.29a0.79,0.79,0,0,1-.38.26l-0.07,0a1,1,0,0,1-.53.32s0,0-.08,0a0.36,0.36,0,0,0-.26,0,0.22,0.22,0,0,0-.19.18,2.53,2.53,0,0,1-.49.65,0.55,0.55,0,0,1-.3.09,1,1,0,0,0-.52.1,0.2,0.2,0,0,1-.12,0,0.69,0.69,0,0,1-.06,0c-0.19,0-.39,0-0.58-0.06A2.46,2.46,0,0,1,55,61.64c-0.09,0-.19-0.06-0.28-0.1a0.4,0.4,0,0,1-.28-0.2,0.14,0.14,0,0,0-.13-0.07A2.31,2.31,0,0,1,53.55,61,1.06,1.06,0,0,0,53,60.91a0.19,0.19,0,0,1-.19,0,0.11,0.11,0,0,0-.1,0L52.3,61a3.13,3.13,0,0,0-.41.15,0.35,0.35,0,0,1-.15,0h-1a0.83,0.83,0,0,0-.22.11,4.55,4.55,0,0,0-.44.22,1.91,1.91,0,0,1-.43.17l-0.07,0a6.85,6.85,0,0,0-.77.1,0.23,0.23,0,0,0-.14.05s-0.12,0-.18.08a0.14,0.14,0,0,1-.18,0,0.21,0.21,0,0,0-.18,0,1.21,1.21,0,0,1-.48,0,0.28,0.28,0,0,0-.25,0,0.41,0.41,0,0,0-.11,0H47.14a0.19,0.19,0,0,1-.14,0,0.33,0.33,0,0,1-.21,0,0.13,0.13,0,0,0-.18,0l0,0a0.32,0.32,0,0,0-.22-0.06,0.76,0.76,0,0,0-.35,0,0.25,0.25,0,0,0-.26.08,0.13,0.13,0,0,1-.09,0h-0.3l-0.05-.1a0.13,0.13,0,0,1,0-.18,0.82,0.82,0,0,1,.34-0.19,0.46,0.46,0,0,1,.38,0l0.32,0.11c0.1,0,.21,0,0.32,0a1.08,1.08,0,0,0,.42,0,0.74,0.74,0,0,0,.4,0,0.3,0.3,0,0,1,.15,0,0.81,0.81,0,0,1,.3,0l0.26,0a1.62,1.62,0,0,0,.67-0.12,2.61,2.61,0,0,1,.44-0.1,1.39,1.39,0,0,0,.7-0.22,0.53,0.53,0,0,1,.3-0.16,1.39,1.39,0,0,0,.28-0.14,0.63,0.63,0,0,1,.49,0h0.08a1.65,1.65,0,0,1,.67,0,1.16,1.16,0,0,0,.43-0.11,1.07,1.07,0,0,1,.35-0.1,0.57,0.57,0,0,1,.38,0,0.56,0.56,0,0,1,.26.06,0.48,0.48,0,0,1,.4.11c0.22,0.1.44,0.16,0.65,0.27a0.49,0.49,0,0,1,.28.1,0.75,0.75,0,0,0,.22.15,2.11,2.11,0,0,0,.41.1c0.09,0,.21,0,0.29.06a0.36,0.36,0,0,0,.19,0,0.5,0.5,0,0,1,.31.07,0.3,0.3,0,0,0,.14,0h0.39a2.65,2.65,0,0,1,.48-0.06,0.4,0.4,0,0,0,.09-0.1c0.07-.07.16-0.13,0.22-0.2A0.54,0.54,0,0,0,57.5,61a0.39,0.39,0,0,1,.06-0.11,0.54,0.54,0,0,1,.52-0.27,1.07,1.07,0,0,0,.65-0.15l0.18-.14L59.23,60a0.35,0.35,0,0,1,.4,0c0.17,0.1.35,0.18,0.52,0.28a0.32,0.32,0,0,0,.19.15,1.17,1.17,0,0,0,.24.13,0.42,0.42,0,0,0,.22,0,1.27,1.27,0,0,0,.79-0.26c0.05,0,.09-0.11.14-0.16L61.92,60a0.75,0.75,0,0,0,.16-0.17,1.35,1.35,0,0,0,.14-0.33,0.62,0.62,0,0,1,.32-0.39A1.49,1.49,0,0,1,63.48,59a0.36,0.36,0,0,1,.22.08c0.13,0.16.26,0,.36,0a0.5,0.5,0,0,1,.29-0.13l0.08-.06,0.06,0a2.92,2.92,0,0,1,.85,0,0.5,0.5,0,0,0,.27,0,1.28,1.28,0,0,0,.5-0.12,0.24,0.24,0,0,1,.17,0,3.29,3.29,0,0,1,.51.11A0.3,0.3,0,0,1,67,59a0.76,0.76,0,0,0,.18.24,0.51,0.51,0,0,0,.22.22,0.44,0.44,0,0,1,.13.13,0.24,0.24,0,0,0,.09.09,0.82,0.82,0,0,1,.4.29,5,5,0,0,1,.46.35,0.47,0.47,0,0,0,.19.18,0.65,0.65,0,0,1,.22.15,0.71,0.71,0,0,0,.49.16,0.26,0.26,0,0,1,.25,0,0.1,0.1,0,0,0,.1,0,0.3,0.3,0,0,1,.24,0l0.14,0s0.1-.09.17,0l0.14,0,0.22-.06a0.21,0.21,0,0,0,.11-0.05c0.08-.13.22-0.19,0.31-0.31a0.64,0.64,0,0,1,.35.06c0.13,0.06.28,0.1,0.41,0.15a0.82,0.82,0,0,1,.41.27,0.43,0.43,0,0,0,.12.19,0.78,0.78,0,0,0,.35.12A0.65,0.65,0,0,0,73.25,61a0.44,0.44,0,0,0,.35-0.11,0.22,0.22,0,0,1,.14-0.05,0.13,0.13,0,0,0,.1,0,0.29,0.29,0,0,1,.33-0.08l0.44,0.08a0.41,0.41,0,0,0,.29.06h0a1.55,1.55,0,0,0,.7.15,0.4,0.4,0,0,0,.49-0.2,0.52,0.52,0,0,1,.25-0.22,0.32,0.32,0,0,0,.09-0.11l0.17-.24a0.94,0.94,0,0,1,.67-0.33,0.76,0.76,0,0,0,.1,0c0.06,0.08.08,0,.12,0l0.12,0a0.22,0.22,0,0,1,.14,0c0.07,0.07.22,0,.24,0.12h0a0.32,0.32,0,0,1,.27,0c0.07,0.1.18,0,.24,0.12a0.35,0.35,0,0,0,.22.1,1,1,0,0,1,.14.15,0.92,0.92,0,0,0,.38.12,0.57,0.57,0,0,0,.36,0A3,3,0,0,0,80,60.42a0.18,0.18,0,0,0,.14-0.1,2.75,2.75,0,0,1,.27-0.42A1.43,1.43,0,0,1,81,59.73L81,59.78a0.78,0.78,0,0,0,.28.15,0.69,0.69,0,0,0,.29.12,0.33,0.33,0,0,1,.13.26,0.59,0.59,0,0,0,.09.33l0.22,0.19a0.92,0.92,0,0,0,.62,0l0.09,0a0.23,0.23,0,0,0,.12,0,0.37,0.37,0,0,1,.38,0,0.76,0.76,0,0,0,.23,0,0.32,0.32,0,0,1,.22,0,0.28,0.28,0,0,0,.17,0l0.12,0a1.91,1.91,0,0,1,.3,0,0.32,0.32,0,0,1,.27.05,5.25,5.25,0,0,0,.62.11,0.48,0.48,0,0,0,.41-0.17,1.83,1.83,0,0,0,.33-0.33,0.3,0.3,0,0,1,.22-0.08,1.71,1.71,0,0,1,.78.09,1.48,1.48,0,0,0,.39,0,0.18,0.18,0,0,1,.19,0c0.06,0,.11-0.1.17,0l0.2-.1a1.47,1.47,0,0,0,.35-0.22A3.41,3.41,0,0,1,88.53,60a1.49,1.49,0,0,0,.25-0.37l0-.06A0.5,0.5,0,0,0,89,59.42a0.32,0.32,0,0,1,.17-0.16,4.57,4.57,0,0,1,.49-0.16,0.31,0.31,0,0,1,.18.09,3.14,3.14,0,0,1,.32.26,0.13,0.13,0,0,0,.18,0h0a0.46,0.46,0,0,1,.22-0.08,0.21,0.21,0,0,0,.14-0.09A2.56,2.56,0,0,0,91,59a1.24,1.24,0,0,1,.63-0.67,0.79,0.79,0,0,0,.22-0.15,4.67,4.67,0,0,1,.74-0.57,0.41,0.41,0,0,1,.31-0.06c0.22-.2.21-0.19,0.48-0.07a0.44,0.44,0,0,1,.24.3l0.16,0.51a4.87,4.87,0,0,0,.28.42l0.12,0.2a0.57,0.57,0,0,0,.39-0.07,0.44,0.44,0,0,0,.27-0.33c0.1-.3.18-0.59,0.27-0.89a1.12,1.12,0,0,1,.08-0.16l0.26,0.18,0.06,0.05a0.36,0.36,0,0,1,.25.22,1.89,1.89,0,0,1,.11.33,1.85,1.85,0,0,1,0,.45,0.18,0.18,0,0,0,.06.14,1.17,1.17,0,0,1,.13.18,0.34,0.34,0,0,1,.08.26,1.18,1.18,0,0,0,.06.44,0.37,0.37,0,0,0,.2.31v0.27a0.13,0.13,0,0,0,.12.14h0.53a0.58,0.58,0,0,0,.22-0.05,3,3,0,0,0,.54-0.28,2.28,2.28,0,0,1,.4-0.19l0.09,0c0.07-.06.14-0.15,0.22,0s0.17,0,.17.16a0.57,0.57,0,0,0,.12.22,1.3,1.3,0,0,1,.36,0c0.1,0,.22,0,0.35.05a0.37,0.37,0,0,0,.34,0,1,1,0,0,0,.38-0.31,0.92,0.92,0,0,1,.49-0.32c0.09,0,.18.09,0.29,0a0.87,0.87,0,0,1,.4.33,0.28,0.28,0,0,0,.14.14,0.35,0.35,0,0,0,.16,0L102,60a0.46,0.46,0,0,0,.27-0.2,1.86,1.86,0,0,1,.18-0.27,0.2,0.2,0,0,1,.28-0.06l0.06,0.06,0.1,0.09,0.06,0.11a0.78,0.78,0,0,0,.26.13l0.42-.14c0.09,0,.17-0.1.26-0.14a0.73,0.73,0,0,1,.34-0.14h0.05l0.15-.08h0.14c0.13,0,.2-0.15.34-0.14a0,0,0,0,0,0,0,0.44,0.44,0,0,1,.22-0.31,0.57,0.57,0,0,1,.17-0.22,0.73,0.73,0,0,0,.16-0.18c0.05,0,0-.15.16-0.12s0-.13.11-0.1a0.43,0.43,0,0,1,.35-0.16,0.82,0.82,0,0,0,.29-0.05,0.61,0.61,0,0,0,.33.07c0.17,0.19.38,0.4,0.56,0.62a1.56,1.56,0,0,1,.15.3,0.35,0.35,0,0,0,.16.18,0.27,0.27,0,0,1,.19.28,0.1,0.1,0,0,0,0,.07L108.15,60a0.11,0.11,0,0,0,.16,0l0,0a0.87,0.87,0,0,0,.2-0.31,0.44,0.44,0,0,0,.08-0.22c0-.1,0-0.13.06-0.19a0.48,0.48,0,0,1,.12-0.21,0.19,0.19,0,0,0,.08-0.25h0c0.08,0,.14.05,0.15,0a0.56,0.56,0,0,1,.13-0.24,0.28,0.28,0,0,1,.39-0.07h0a1.8,1.8,0,0,0,.69.36c0.09,0,.12.11,0.21,0.13a0.64,0.64,0,0,0,.28.08,0.15,0.15,0,0,1,.13.06l0.11,0a0.74,0.74,0,0,0,.52,0,1.23,1.23,0,0,0,.46-0.1l0,0,0.39,0.09a3.93,3.93,0,0,1,.38.08,0.66,0.66,0,0,1,.34.18,1,1,0,0,0,.36.32,3.76,3.76,0,0,1,.8.49,0.28,0.28,0,0,0,.21.08,1.3,1.3,0,0,1,.38.1,1,1,0,0,1,.37.13,1.83,1.83,0,0,1,.57.52,1.09,1.09,0,0,1,.09.31,0.52,0.52,0,0,0,0,.08,1.22,1.22,0,0,1,.06.24,0.51,0.51,0,0,0,.17.41c0.07,0.07.13,0.16,0.2,0.22l0.21,0.17,0.33,0.28a0.3,0.3,0,0,0,.13.06l0.44,0.05a0.22,0.22,0,0,0,.25-0.17,1.82,1.82,0,0,0,.16-0.91V61.75a0.62,0.62,0,0,1,.39-0.63,4.73,4.73,0,0,1,.63-0.32l0.11,0a6.75,6.75,0,0,0,.77-0.06,3.26,3.26,0,0,0,.83-0.17,0.48,0.48,0,0,0,.28-0.32c0.06-.13.15-0.25,0.21-0.39A0.61,0.61,0,0,1,121.44,59.53Z" transform="translate(-42.2 -31.27)"/><path class="cls-4" d="M93.78,57.79a0.9,0.9,0,0,1-.07-0.18,0.17,0.17,0,0,1,0-.17A1.25,1.25,0,0,0,94,57.2a2.4,2.4,0,0,0,.14-0.31l0,0a0.3,0.3,0,0,1,0-.19,0.85,0.85,0,0,1,.44-0.21c0.09,0,.18-0.1.27,0a0.5,0.5,0,0,0,.41-0.26,0.76,0.76,0,0,0,.22-0.41s0.12,0,.1-0.11,0.09-.05.12-0.1a0.41,0.41,0,0,1,.14-0.1c0.31-.19.67-0.29,1-0.44a2.27,2.27,0,0,0,.48-0.11,2.65,2.65,0,0,0,.59-0.16l0.27-.17a0.89,0.89,0,0,0,0-.14,0.54,0.54,0,0,1,.28-0.57,2,2,0,0,1,.73-0.39,3.89,3.89,0,0,1,.67-0.37c0.18-.12.33-0.26,0.49-0.4a1.17,1.17,0,0,1,.51-0.29l0.11-.06a1,1,0,0,0,.28.18,0.3,0.3,0,0,0,.28,0h0.1a0.51,0.51,0,0,0,.33-0.1,1,1,0,0,1,.42-0.11,1.14,1.14,0,0,1,.29,0,0.41,0.41,0,0,0,.27-0.06c0.06,0,.12,0,0.16-0.05a0.79,0.79,0,0,0,.21,0,0.16,0.16,0,0,1,.22,0h0l0,0a0.64,0.64,0,0,1,.34,0,0.77,0.77,0,0,0,.47,0l0.33-.05a1.53,1.53,0,0,1,.44-0.29,0.22,0.22,0,0,1,.2,0,0.76,0.76,0,0,0,.35,0,0.81,0.81,0,0,1,.33,0,0.73,0.73,0,0,0,.31,0,0.85,0.85,0,0,1,.2,0L106.68,52h1a0.93,0.93,0,0,0,.53-0.24,0.33,0.33,0,0,0,.18-0.08,1.88,1.88,0,0,0,.61-0.44,0.38,0.38,0,0,1,.15-0.08A1.23,1.23,0,0,0,109.4,51a1.8,1.8,0,0,0,.58-0.73,0.84,0.84,0,0,0,.16-0.16,1.93,1.93,0,0,0,.47-0.42,1.52,1.52,0,0,0,0-.33,1.5,1.5,0,0,1,0-.44c0-.07.17-0.08,0.06-0.17l0.11-.16a0.44,0.44,0,0,0,.1-0.3,0.3,0.3,0,0,1,0-.27l-0.1-.22c0.13-.08,0-0.15,0-0.22a1.83,1.83,0,0,1-.14-0.22,0.37,0.37,0,0,0-.14-0.21,0.4,0.4,0,0,1-.07-0.39,2.25,2.25,0,0,1,.61-1,2.38,2.38,0,0,1,.54-0.44c0.08-.16.26-0.22,0.34-0.38a0.78,0.78,0,0,1,.35-0.28,0.25,0.25,0,0,0,.1-0.08,2,2,0,0,1,.42-0.37,4.23,4.23,0,0,0,.52-0.63,0.81,0.81,0,0,0,.16-0.22,1,1,0,0,1,.18-0.24c0.06-.07.12-0.14,0.17-0.22s0.08-.16.13-0.25a0.33,0.33,0,0,1,0-.39c0.06-.11.13-0.22,0.19-0.34a3.36,3.36,0,0,1,.2-0.34c0.17-.26.35-0.52,0.52-0.79,0.05-.09.06-0.2,0.12-0.29a1.29,1.29,0,0,1,.33-0.46,1.06,1.06,0,0,1,.29-0.25,0.71,0.71,0,0,0,.28-0.27,0.57,0.57,0,0,1,.17-0.16,2.89,2.89,0,0,0,.58-0.37,0.11,0.11,0,0,1,.09,0,0.27,0.27,0,0,0,.3,0h0a1,1,0,0,1-.47.36,0.49,0.49,0,0,0-.33.21,0.23,0.23,0,0,1-.11.05l-0.07,0a0.35,0.35,0,0,1-.22.22,1.93,1.93,0,0,1-.24.19c-0.08,0-.11.17-0.19,0.22s-0.06.2-.15,0.26a0.83,0.83,0,0,1-.17.43c-0.12.22-.29,0.44-0.44,0.67a0.25,0.25,0,0,0-.07.13,0.64,0.64,0,0,1-.17.38,1.46,1.46,0,0,0-.21.47,0.57,0.57,0,0,1-.15.3,1.22,1.22,0,0,0-.31.48,3.73,3.73,0,0,1-.27.42,1.14,1.14,0,0,1-.29.3c-0.1.11-.22,0.2-0.32,0.3a0.87,0.87,0,0,1-.09,0,1.45,1.45,0,0,0-.29.24c-0.11.16-.26,0.28-0.37,0.43a4.75,4.75,0,0,1-.37.42l-0.54.54a0.92,0.92,0,0,0-.26.44,1,1,0,0,0-.11.35,0.3,0.3,0,0,0,.09.22,0.6,0.6,0,0,1,.18.27,0.83,0.83,0,0,1,.05.35,3.88,3.88,0,0,1,0,.9,0.62,0.62,0,0,0-.26.47,3.48,3.48,0,0,0,0,.37,0.55,0.55,0,0,1-.16.65l-0.27.24a2.08,2.08,0,0,0-.43.53L110,50.8a0.77,0.77,0,0,0-.22.28,1.08,1.08,0,0,0-.26.2,1.29,1.29,0,0,0-.26.22l-0.08,0a1.1,1.1,0,0,1-.32.31,3.43,3.43,0,0,1-.39.2,1,1,0,0,0-.34.22,1.09,1.09,0,0,1-.28.07,2.93,2.93,0,0,0-.49.06,0.14,0.14,0,0,1-.12,0,0.34,0.34,0,0,0-.36,0,0.45,0.45,0,0,1-.17,0,2,2,0,0,1-.37,0c-0.1,0-.17.12-0.28,0s-0.18,0-.26-0.06h-0.13a0.59,0.59,0,0,0-.19,0l-0.19-.05a0.68,0.68,0,0,0-.29.14l-0.1.07a1.71,1.71,0,0,0-.35.11,0.52,0.52,0,0,0-.33.11h0c-0.19.08-.21,0.08-0.31-0.11-0.24,0-.49,0-0.74,0s-0.25.06-.37,0.06-0.12,0-.15,0a0.2,0.2,0,0,0-.27,0c-0.12-.1-0.17.06-0.23,0.09a0.82,0.82,0,0,1-.4.12h-0.39a0.27,0.27,0,0,1-.22-0.07,0.28,0.28,0,0,0-.35,0,1.86,1.86,0,0,0-.31.26,1.65,1.65,0,0,1-.42.32,0.33,0.33,0,0,1-.22.1,4.49,4.49,0,0,0-.52.27l-0.17.1a0.72,0.72,0,0,0-.27.17,1.14,1.14,0,0,1-.25.22,0.14,0.14,0,0,0-.05.18v0a0.28,0.28,0,0,1,0,.19,1.22,1.22,0,0,1-.11.22,4,4,0,0,1-.41.17,0.53,0.53,0,0,1-.22.1c-0.22.15-.53,0.11-0.76,0.26a1.78,1.78,0,0,0-.77.25,0.65,0.65,0,0,0-.31.15,0.53,0.53,0,0,0-.17.27,1,1,0,0,1-.29.4,1,1,0,0,1-.41.27,1.19,1.19,0,0,1-.38,0,0.22,0.22,0,0,0-.26.17,0.22,0.22,0,0,0,0,0,0.61,0.61,0,0,1-.14.22,0.4,0.4,0,0,1-.15.2,0.38,0.38,0,0,0-.13.2C94,57.78,94,57.78,93.78,57.79Zm19.56-14.23v0l0,0a0.08,0.08,0,0,0,0,0,0.25,0.25,0,0,0,.06-0.1l0,0,0,0,0,0s0,0,0,.06h0Z" transform="translate(-42.2 -31.27)"/><path class="cls-4" d="M134.66,49.14v0.19l0,0a1.31,1.31,0,0,0-.67.17,0.78,0.78,0,0,1-.33.1,0.3,0.3,0,0,0-.19.05l-0.35.24a2.8,2.8,0,0,1-.37.26,0.42,0.42,0,0,0-.19.18,0.89,0.89,0,0,1-.35.22c-0.17.1-.38,0.09-0.55,0.2a1.12,1.12,0,0,1-.39.06l-0.27.05h-0.29l-0.09,0a0.31,0.31,0,0,1-.13.06,2.74,2.74,0,0,0-.53.13,1.68,1.68,0,0,0-.6.22,1.27,1.27,0,0,1-.29.12,0.68,0.68,0,0,0-.3.11,0.37,0.37,0,0,0-.3,0,1.35,1.35,0,0,0-.49.09h-0.37a0.24,0.24,0,0,0-.22,0,0.12,0.12,0,0,0-.17,0l0,0a0.08,0.08,0,0,1-.07,0,1.41,1.41,0,0,0-.43,0c-0.11.12-.29,0-0.4,0.11s-0.44.13-.66,0.11h-0.05a1.24,1.24,0,0,1-.64.11l-0.27.06-0.29.07-0.22,0a0.2,0.2,0,0,1-.13,0,1.14,1.14,0,0,0-.54,0l-0.21,0a0.48,0.48,0,0,0-.33,0,0.44,0.44,0,0,0-.35,0,0.1,0.1,0,0,1-.1,0,0.22,0.22,0,0,0-.2,0,0.36,0.36,0,0,0-.21,0,0.17,0.17,0,0,1-.17,0l-1.24,0a0.34,0.34,0,0,0-.3,0h-0.05c-0.1-.06-0.22,0-0.33-0.06a0.22,0.22,0,0,0-.12,0,2.44,2.44,0,0,1-.32,0,3.1,3.1,0,0,1-.63-0.09v-0.1a0.11,0.11,0,0,1,.09-0.13h0a1.67,1.67,0,0,1,.43,0,1.16,1.16,0,0,0,.42.06c0.08,0,.15.11,0.22,0l0.24,0.05h0.79a0.25,0.25,0,0,1,.22,0,0.07,0.07,0,0,0,.07,0,1.63,1.63,0,0,0,.34,0,0.18,0.18,0,0,1,.12,0c0.08,0,.15.06,0.24,0.06s0.13-.1.19,0a1.8,1.8,0,0,1,.32,0,0.68,0.68,0,0,1,.32,0,0.85,0.85,0,0,0,.36,0,1.75,1.75,0,0,0,.46-0.09,0.65,0.65,0,0,0,.37.05,0.63,0.63,0,0,0,.32,0,0.67,0.67,0,0,0,.29-0.05,0.16,0.16,0,0,1,.1,0,1.44,1.44,0,0,0,.68-0.14,1,1,0,0,1,.39-0.07,0.92,0.92,0,0,0,.44-0.06,3.39,3.39,0,0,1,.37-0.07,1.06,1.06,0,0,1,.38,0,2,2,0,0,1,.39,0,0.44,0.44,0,0,0,.17,0c0.26,0,.53-0.09.8-0.12a1.56,1.56,0,0,0,.76-0.26l0.14,0,0.13-.08c0.08,0.06.08,0,.12,0l0.16-.05,0.15,0h0c0.06,0,.06-0.16.18-0.06a0.42,0.42,0,0,0,.21,0l0.22-.05a0.37,0.37,0,0,1,.15,0c0.07,0.09.09-.05,0.15,0h0.18a1.19,1.19,0,0,0,.35-0.06,1.28,1.28,0,0,0,.32-0.06,1.55,1.55,0,0,0,.68-0.4,1.13,1.13,0,0,1,.33-0.22,0.81,0.81,0,0,0,.27-0.18,0.17,0.17,0,0,1,.09,0,0.4,0.4,0,0,0,.24-0.13,0.37,0.37,0,0,1,.29-0.12,1.81,1.81,0,0,0,.55-0.14,0.26,0.26,0,0,1,.22,0A0.22,0.22,0,0,0,134.66,49.14Z" transform="translate(-42.2 -31.27)"/><path class="cls-4" d="M127.81,43.15l0.06-.09a0.38,0.38,0,0,1-.17-0.31,0.16,0.16,0,0,0-.05-0.08l-0.1-.12s0-.1-0.05-0.12a0.14,0.14,0,0,1-.11-0.12,0.15,0.15,0,0,0-.12-0.07A0.4,0.4,0,0,1,127,42a0.38,0.38,0,0,1,0-.19,0.34,0.34,0,0,1,.34.09,1.84,1.84,0,0,1,.63.73,1.51,1.51,0,0,0,.17.37c0.09,0.11.08,0.25,0.18,0.35a0.34,0.34,0,0,1,.06.29,0.72,0.72,0,0,0,.18.56c0.14,0.2.27,0.41,0.42,0.6L129.11,45a0.32,0.32,0,0,1,.06.21,0.73,0.73,0,0,1,.13.16,0.31,0.31,0,0,0,.12.18c0.11,0.1.2,0.22,0.31,0.32a1.21,1.21,0,0,1,.33.57,0.8,0.8,0,0,0,.27.39l0,0a1.2,1.2,0,0,1,.49.17,0.86,0.86,0,0,1,.29.2,1,1,0,0,1,.27.22,0.52,0.52,0,0,1,.21.25,2,2,0,0,0,.66.5,0.31,0.31,0,0,0,.14,0l0.18,0c0.07,0.08.12,0,.17,0a1.8,1.8,0,0,1,.71.13,0.55,0.55,0,0,1,.24.12,0.28,0.28,0,0,0,.23.07h0.21c0.07,0,.11.1,0.18,0a0.36,0.36,0,0,0,.08.09s0.08,0,.12,0a0.54,0.54,0,0,0,.28.08,0.13,0.13,0,0,1,.14.11,0.2,0.2,0,0,1,0,0,0.3,0.3,0,0,1-.31.28,0.11,0.11,0,0,1-.06-0.06,0.48,0.48,0,0,0-.12-0.11,0.35,0.35,0,0,0-.31-0.1,0.78,0.78,0,0,1-.64-0.19,0.37,0.37,0,0,0-.2-0.07,3.05,3.05,0,0,1-.54-0.1,1.13,1.13,0,0,1-.47,0,0.63,0.63,0,0,1-.44-0.16l-0.14-.1-0.2-.16a0.58,0.58,0,0,1-.18-0.2,1.93,1.93,0,0,0-.3-0.28l-0.1-.08a1,1,0,0,0-.67-0.34h0a0.5,0.5,0,0,0-.34-0.27,0.5,0.5,0,0,1-.2-0.31,0.73,0.73,0,0,0-.22-0.44,2.1,2.1,0,0,0-.22-0.25,0.6,0.6,0,0,0-.2-0.21,2.46,2.46,0,0,0-.33-0.55c0-.08-0.17-0.12-0.11-0.24a0.22,0.22,0,0,0-.06-0.08c-0.15-.18-0.3-0.37-0.44-0.55a0.62,0.62,0,0,1-.07-0.21,0.43,0.43,0,0,0,0-.27c0.08-.08,0-0.14,0-0.22s0-.15-0.09-0.15a0.1,0.1,0,0,1,0-.07A0.21,0.21,0,0,0,127.81,43.15Z" transform="translate(-42.2 -31.27)"/><path class="cls-4" d="M163.37,60.83V60.11a0.25,0.25,0,0,0-.16-0.26,1.85,1.85,0,0,1-.42-0.28,0.56,0.56,0,0,0-.2-0.06,1.19,1.19,0,0,0-.06.27,0.42,0.42,0,0,0-.12.14,0.24,0.24,0,0,1-.09.14,2.09,2.09,0,0,0-.37.43,1.61,1.61,0,0,0-.5.5,3.06,3.06,0,0,0-.36.35l-0.06,0-0.27.11a0.25,0.25,0,0,1-.14-0.22,1,1,0,0,0-.36-0.38,0.17,0.17,0,0,1-.17-0.16l0,0a0.78,0.78,0,0,1-.44-0.44,3.1,3.1,0,0,1-.22-0.28,5.29,5.29,0,0,1-.31-0.59,0.86,0.86,0,0,0-.06-0.24,0.73,0.73,0,0,0-.2-0.15,1.67,1.67,0,0,1-.4-0.24,0.49,0.49,0,0,0-.39.06,0.78,0.78,0,0,1-.18.1,0.45,0.45,0,0,1,.05-0.12,0.74,0.74,0,0,0,.17-0.15,0.22,0.22,0,0,1,.17-0.17,0.39,0.39,0,0,1,.35.05l0.11,0a0.81,0.81,0,0,1,.36.27,0.3,0.3,0,0,0,.16.18,0.58,0.58,0,0,1,.18.17,0.44,0.44,0,0,0,.12.39,0.07,0.07,0,0,1,0,0,0.31,0.31,0,0,0,.16.29,2.08,2.08,0,0,0,.24.33,1.75,1.75,0,0,1,.25.33,0.89,0.89,0,0,0,.25.17,0.42,0.42,0,0,1,.25.22,0.54,0.54,0,0,0,.13.15,0.33,0.33,0,0,0,.28-0.12,1.06,1.06,0,0,0,.25-0.29,0.45,0.45,0,0,1,.18-0.13c0.15-.1.27-0.22,0.42-0.32a1,1,0,0,0,.33-0.55v0a2.76,2.76,0,0,0,.15-0.41,0.85,0.85,0,0,1,.08-0.42h0.22a0.26,0.26,0,0,0,.08.19,0.1,0.1,0,0,1,0,.08,0.22,0.22,0,0,0,.11.19,1.6,1.6,0,0,0,.5.47c0.2,0.12.21,0.11,0.14,0.35a0.08,0.08,0,0,0,0,.05,0.7,0.7,0,0,1,0,.38A0.41,0.41,0,0,0,164,61a1.08,1.08,0,0,1,.39,0,1,1,0,0,0,.38,0,0.55,0.55,0,0,0,.35,0,0.51,0.51,0,0,1,.22,0,2.27,2.27,0,0,1,.52-0.08,0.29,0.29,0,0,0,.22,0,0.36,0.36,0,0,1,.18,0L166.56,61a0.13,0.13,0,0,1,.06.06l0.17,0.31h0.44a0.47,0.47,0,0,0,.28-0.08,0.36,0.36,0,0,1,.32-0.06c0.05,0,.13,0,0.07.13s-0.06.18-.24,0.18a0.76,0.76,0,0,0-.32,0c-0.1,0-.21,0-0.32,0a0.84,0.84,0,0,1-.39,0,0.15,0.15,0,0,1-.1-0.07,1.81,1.81,0,0,1-.11-0.27,0.27,0.27,0,0,0-.29-0.23h-0.42a0.88,0.88,0,0,0-.38.1,1.48,1.48,0,0,1-.59.16,0.61,0.61,0,0,1-.3.06l-0.27-.11a3.07,3.07,0,0,1-.51-0.16l-0.1-.06A0.74,0.74,0,0,0,163.37,60.83Z" transform="translate(-42.2 -31.27)"/><path class="cls-4" d="M80.78,55.68H80.54a0.22,0.22,0,0,1,0-.31l0.07-.06a0.48,0.48,0,0,1,.33-0.1,2.16,2.16,0,0,1,.42-0.26l0.11-.06A2,2,0,0,0,82,54.61a0.75,0.75,0,0,1,.36-0.15,0.22,0.22,0,0,0,.12-0.07,1.29,1.29,0,0,1,.73-0.34,1.47,1.47,0,0,0,.41-0.15,2.33,2.33,0,0,1,.6-0.28l0,0a0.85,0.85,0,0,1,.43-0.25,0.83,0.83,0,0,0,.25-0.16c0.15-.13.31-0.24,0.44-0.37l0.25-.25,0.26-.22a1.49,1.49,0,0,1,.27-0.22l0.07,0a0.48,0.48,0,0,1,.19-0.29,1.31,1.31,0,0,1,.21-0.26,1.39,1.39,0,0,0,.26-0.26,0.19,0.19,0,0,1,.08-0.07,3.45,3.45,0,0,0,.49-0.39,1,1,0,0,1,.6-0.3l0.07,0.13a1.74,1.74,0,0,0-.29.21,0.5,0.5,0,0,0-.28.27c-0.14.08-.22,0.2-0.35,0.28a2.53,2.53,0,0,0-.59.63l0,0.07a3.35,3.35,0,0,1-.64.6l-0.08.07c-0.2.18-.39,0.37-0.59,0.54a0.88,0.88,0,0,1-.3.16,1.51,1.51,0,0,0-.36.18,1.75,1.75,0,0,0-.3.16,0.72,0.72,0,0,1-.39.2l-0.06,0a1.73,1.73,0,0,1-.32.17,0.66,0.66,0,0,1-.35.11,2.44,2.44,0,0,0-.73.33,0.83,0.83,0,0,1-.2.1l-0.63.32a0.47,0.47,0,0,0-.14.09,1,1,0,0,1-.4.24A0.32,0.32,0,0,0,80.78,55.68Z" transform="translate(-42.2 -31.27)"/><path class="cls-4" d="M114.74,36.38l0-.18a1.48,1.48,0,0,0,.25-0.32c0.1,0,.09-0.06.08-0.12a0.68,0.68,0,0,1,.06-0.29,1,1,0,0,1,.25-0.44,0.61,0.61,0,0,1,.11-0.32,2.6,2.6,0,0,0,.06-0.35,1.33,1.33,0,0,0,0-.31,1.17,1.17,0,0,1,0-.29,2.21,2.21,0,0,1,.08-0.31l0.09-.3c0.06-.15.1-0.31,0.14-0.47a0.89,0.89,0,0,1,.17-0.28c0.09,0.07,0,.1,0,0.15a5.49,5.49,0,0,1-.16.62,1.63,1.63,0,0,0-.1.72,2,2,0,0,1-.06.67,2.09,2.09,0,0,1-.18.48,2.08,2.08,0,0,0-.13.32A2.07,2.07,0,0,1,114.74,36.38Z" transform="translate(-42.2 -31.27)"/><path class="cls-4" d="M59,64.17c0.06,0.25-.11.31-0.31,0.37a0.19,0.19,0,0,1,0-.09A0.7,0.7,0,0,1,59,64.17Z" transform="translate(-42.2 -31.27)"/><path class="cls-4" d="M58.67,64.66H58.49C58.55,64.55,58.61,64.55,58.67,64.66Z" transform="translate(-42.2 -31.27)"/><path class="cls-4" d="M171.82,63h0.11v0h-0.11v0h0Z" transform="translate(-42.2 -31.27)"/><path class="cls-4" d="M107.59,39.48l0,0,0,0V39.48Z" transform="translate(-42.2 -31.27)"/><path class="cls-4" d="M110.31,58.9v0l0,0,0,0Z" transform="translate(-42.2 -31.27)"/><path class="cls-4" d="M117.08,38.65l0,0,0,0,0,0Z" transform="translate(-42.2 -31.27)"/><path class="cls-4" d="M171.68,62.85l0,0,0,0,0,0Z" transform="translate(-42.2 -31.27)"/><path class="cls-4" d="M59.06,64.12l0,0,0,0,0,0Z" transform="translate(-42.2 -31.27)"/><path class="cls-4" d="M107.59,39.48v0.05l0,0Z" transform="translate(-42.2 -31.27)"/><path class="cls-4" d="M108.17,38.14l0,0,0,0,0,0Z" transform="translate(-42.2 -31.27)"/><path class="cls-4" d="M113.34,43.56l0,0a0.08,0.08,0,0,1,0,0l0,0v0h0Z" transform="translate(-42.2 -31.27)"/><path class="cls-4" d="M113.37,43.49l0,0,0,0,0,0Z" transform="translate(-42.2 -31.27)"/><path class="cls-5" d="M107.59,39.53a0.31,0.31,0,0,1,0,.12,3.1,3.1,0,0,1-.3.29,1.4,1.4,0,0,0-.2.2,0.23,0.23,0,0,1-.09.09,0.87,0.87,0,0,0-.38.34,1.82,1.82,0,0,1-.46.36,1.2,1.2,0,0,0-.26.2c-0.08.06-.16,0.13-0.24,0.18l-0.38.22a4.65,4.65,0,0,0-.42.26,0.43,0.43,0,0,0-.26.15c-0.12,0-.15.09-0.22,0.13l-0.26.14a1.39,1.39,0,0,0-.44.25,1.5,1.5,0,0,1-.53.27,0.76,0.76,0,0,0-.24.12,0.37,0.37,0,0,1-.25.1,1.58,1.58,0,0,1-.32.11,1.11,1.11,0,0,1-.47.22,5.68,5.68,0,0,1-.58.32,0.48,0.48,0,0,1-.33.11l-0.14,0-0.16,0a0.32,0.32,0,0,0-.19.06l-0.06,0a1.46,1.46,0,0,0-.62.35,4.44,4.44,0,0,0-.37.25l-0.16.13-0.15.09c-0.35.18-.72,0.34-1.09,0.5s-0.76.28-1.15,0.41c-0.08,0-.17,0-0.25,0l-0.32.11c-0.1,0-.22.06-0.33,0.1a1.48,1.48,0,0,0-.42.24,0.24,0.24,0,0,1-.19.06,0.2,0.2,0,0,0-.16.05,2.49,2.49,0,0,1-.74.31,1.35,1.35,0,0,1-.51.11l-0.07,0c-0.15.12-.35,0.08-0.51,0.18H93.26a5.9,5.9,0,0,1-1,0,8.22,8.22,0,0,0-1,0,3.1,3.1,0,0,0-.71.12,0.47,0.47,0,0,0-.21.06,0.66,0.66,0,0,1-.2.09,2.68,2.68,0,0,0-.39.14l-0.36.14-0.38.17c-0.12.06-.22,0.12-0.35,0.17a1,1,0,0,1-.35.11l-0.07,0a1.52,1.52,0,0,1-.74.24,2.32,2.32,0,0,0-.46.17c-0.24.11-.49,0.17-0.72,0.3l-0.24.11a1.19,1.19,0,0,1-.34.14,2.16,2.16,0,0,1-.35.12,2,2,0,0,0-.38.17c-0.27.12-.54,0.22-0.82,0.31l-0.09,0c-0.11.08-.25,0.12-0.37,0.2a1.7,1.7,0,0,1-.37.12l-0.5.19a0.5,0.5,0,0,0-.35.19,1.12,1.12,0,0,0-.4.12,2.3,2.3,0,0,0-.33.1l-0.32.06-0.06,0a0.89,0.89,0,0,1-.29.12,1.09,1.09,0,0,0-.5.13,0.73,0.73,0,0,0-.44.08c-0.27.08-.54,0.12-0.8,0.22a2.24,2.24,0,0,1-.5.13c-0.12,0-.22.09-0.35,0.1a1,1,0,0,0-.31.14,2.69,2.69,0,0,1-.37.13,0.58,0.58,0,0,0-.34.1,0.73,0.73,0,0,1-.31.07l-0.11.05a2.48,2.48,0,0,1-.82.32,0.37,0.37,0,0,0-.18.06,1.08,1.08,0,0,1-.58.2l-0.19.06c-0.26.08-.51,0.24-0.77,0.3a3.22,3.22,0,0,1-.77.18,1.66,1.66,0,0,0-.47.13,1.88,1.88,0,0,1-.61.18l-0.07,0-0.58.19a1,1,0,0,0-.46.15c-0.06-.08-0.13,0-0.19,0l-0.19,0a0.68,0.68,0,0,0-.33.12,0.37,0.37,0,0,0-.3.16s-0.11,0-.15,0a0.34,0.34,0,0,1-.09.14,1.61,1.61,0,0,1-.3.16,1.63,1.63,0,0,1-.31.08l-0.13,0-0.13,0a0.89,0.89,0,0,0-.57,0H68.87c-0.22,0-.46,0-0.69.06l-0.37.06-0.32.11a0.45,0.45,0,0,1-.19,0,0.42,0.42,0,0,0-.31.14l0,0a1.11,1.11,0,0,0-.54.23,1.13,1.13,0,0,1-.25.08,0.32,0.32,0,0,0-.24.21l-0.07,0a1.13,1.13,0,0,1-.31,0,1,1,0,0,0-.3.1l-0.1,0a2.64,2.64,0,0,0-.84.19,0.22,0.22,0,0,1-.24,0l-0.06,0c0,0.11-.11.06-0.13,0.13a1.61,1.61,0,0,0-.47.15l-0.27,0a0.29,0.29,0,0,1-.1.1,1.9,1.9,0,0,0-.58.13c-0.2,0-.37.17-0.58,0.2a1.58,1.58,0,0,0-.44.17c-0.1.05-.19,0-0.3,0.06a7.43,7.43,0,0,1-.71.25,1.07,1.07,0,0,0-.37.14,1.15,1.15,0,0,1-.35.16,2.76,2.76,0,0,1-.6.22,0.38,0.38,0,0,0-.19.1,0.75,0.75,0,0,1-.41.16,4.59,4.59,0,0,0-.53.12l-0.7.22a2.29,2.29,0,0,1-.37.05c-0.21,0-.38.15-0.59,0.18a1.62,1.62,0,0,0-.2.09,2.14,2.14,0,0,1-.48.05,2.75,2.75,0,0,0-.67.06l-0.46.11c-0.14,0-.28.1-0.43,0.11a0.84,0.84,0,0,0-.14,0H53.8c-0.08,0-.07.16-0.18,0.07a0.23,0.23,0,0,0-.18,0,0.76,0.76,0,0,0-.2.1c-0.22,0-.38.15-0.59,0.18s-0.34,0-.51,0l-0.4,0a2,2,0,0,0-.38.1l-0.1,0a2.2,2.2,0,0,0-.62.1,3.76,3.76,0,0,1-.56.06l-0.2,0a0.49,0.49,0,0,0-.18,0,0.27,0.27,0,0,1-.19,0l-0.19,0a3,3,0,0,0-.43.06,0.51,0.51,0,0,1-.19,0,1.36,1.36,0,0,0-.5.07c-0.18,0-.35.1-0.52,0.14a0.93,0.93,0,0,0-.22.09,1.69,1.69,0,0,1-.47.14,1.06,1.06,0,0,0-.48.12,0.25,0.25,0,0,1-.12,0H46.18a4.71,4.71,0,0,0-1.25.16l-0.32.13-0.19,0c0-.1-0.14-0.17,0-0.26a0.83,0.83,0,0,1,.06-0.06,1.87,1.87,0,0,1,.57-0.2l0,0a0.3,0.3,0,0,1,.18-0.07l0,0,0.51-.05a1.09,1.09,0,0,0,.29,0,0.82,0.82,0,0,1,.25,0h0.08a1,1,0,0,1,.48-0.12l0.14,0a0.82,0.82,0,0,0,.32-0.11,0.82,0.82,0,0,1,.31-0.14L48,59.28a2.61,2.61,0,0,1,.43-0.05,2,2,0,0,1,.44,0,0.52,0.52,0,0,1,.22,0c0.06,0,.17-0.06.26,0a0.47,0.47,0,0,0,.24,0,1.94,1.94,0,0,1,.24,0,1.88,1.88,0,0,1,.44,0A3.41,3.41,0,0,0,51,58.95l0.2,0a0.71,0.71,0,0,0,.4-0.12l0,0c0.11,0.12.22,0,.33,0h0.34a0.57,0.57,0,0,0,.32-0.05c0.1-.06.24,0,0.34-0.08l0.33-.09c0.16-.08.34-0.06,0.49-0.14h0.13a0.34,0.34,0,0,0,.22-0.07,1.06,1.06,0,0,1,.36-0.14l0.29,0a3.41,3.41,0,0,1,.71-0.06A1.47,1.47,0,0,0,56,58c0.16,0,.33-0.07.5-0.13a1.82,1.82,0,0,1,.5-0.12,1.36,1.36,0,0,0,.32-0.12,0.36,0.36,0,0,0,.31-0.14,1.71,1.71,0,0,0,.32-0.05,2.49,2.49,0,0,0,.73-0.21A0.54,0.54,0,0,0,59,57.11,2.06,2.06,0,0,1,59.34,57a1.73,1.73,0,0,0,.34-0.14,9,9,0,0,1,1-.38c0.36-.09.68-0.27,1-0.34a3.45,3.45,0,0,1,.59-0.23c0.19-.09.4-0.13,0.59-0.22a0.14,0.14,0,0,1,.13,0,0.18,0.18,0,0,0,.22,0,1.53,1.53,0,0,1,.22,0,0.31,0.31,0,0,1,.22-0.08,0.67,0.67,0,0,0,.16-0.12,0.93,0.93,0,0,0,.43-0.11l0.42-.14h0.05l0.61-.05,0.1,0A0.39,0.39,0,0,1,65.66,55c0.06-.06.18,0,0.18-0.14l0.07,0a0.46,0.46,0,0,0,.31-0.09,1.19,1.19,0,0,0,.37-0.2,0.55,0.55,0,0,1,.26-0.07,1,1,0,0,0,.39-0.15,0.16,0.16,0,0,1,.23,0l0,0h0a0.51,0.51,0,0,1,.37-0.08H68a0.47,0.47,0,0,1,.35-0.1,0.81,0.81,0,0,1,.33-0.06l0,0,0,0c0.06,0,.1.06,0.18,0a0.66,0.66,0,0,1,.22,0,0.5,0.5,0,0,1,.18,0,1.22,1.22,0,0,0,.52,0,0.63,0.63,0,0,0,.38-0.17,0.86,0.86,0,0,1,.49-0.22l0.07,0a0.35,0.35,0,0,1,.31-0.16,0.77,0.77,0,0,0,.2-0.08c0.05,0,.08-0.09.17,0a0.49,0.49,0,0,0,.18-0.08l0.19-.05H72c0.12,0,.2-0.11.32-0.12A1,1,0,0,0,72.63,53l0.28-.09a0.82,0.82,0,0,1,.3-0.12s0.06,0,.09,0a1.38,1.38,0,0,0,.57-0.14l0.29-.07a0.71,0.71,0,0,0,.46-0.16c0.12,0.1.18-.06,0.27-0.06a1,1,0,0,0,.27-0.1A7.45,7.45,0,0,0,76,51.92c0.28-.14.59-0.18,0.89-0.3s0.57-.19.86-0.28,0.6-.22.89-0.32,0.6-.18.89-0.25a0.62,0.62,0,0,0,.21-0.06,1.68,1.68,0,0,1,.63-0.19,0.62,0.62,0,0,1,.35-0.06c0.06-.08.11,0,0.17,0L81,50.4a0.43,0.43,0,0,0,.18-0.07,0.33,0.33,0,0,1,.22-0.1,7.5,7.5,0,0,1,.77-0.2,0.44,0.44,0,0,0,.2-0.09,1.55,1.55,0,0,1,.4-0.18,2.68,2.68,0,0,0,.55-0.2,3.36,3.36,0,0,0,.42-0.2,1,1,0,0,1,.38-0.11,0.83,0.83,0,0,0,.22-0.06A4.77,4.77,0,0,1,84.84,49a4.11,4.11,0,0,1,.64-0.24,0.34,0.34,0,0,0,.13-0.06,0.36,0.36,0,0,1,.15-0.09,2.51,2.51,0,0,0,.73-0.35,1.7,1.7,0,0,1,.44-0.13A0.2,0.2,0,0,0,87.08,48,0.31,0.31,0,0,1,87.31,48c0.14-.06.29-0.1,0.43-0.17A0.88,0.88,0,0,1,88,47.71l0.32-.12a1,1,0,0,0,.26-0.13c0.24-.15.53-0.21,0.77-0.37a0.92,0.92,0,0,0,.45-0.18c0.11,0,.22,0,0.32-0.07l0.41-.15A0.6,0.6,0,0,1,91,46.61c0.08,0,.12-0.1.2,0s0.14,0,.21,0a0.28,0.28,0,0,0,.22,0,0.19,0.19,0,0,1,.13,0,0.82,0.82,0,0,1,.38,0,0.78,0.78,0,0,1,.34.07,3.28,3.28,0,0,0,.5,0h0.17c0.06,0,.13,0,0.19,0a1.64,1.64,0,0,0,.5-0.12,1.33,1.33,0,0,0,.53-0.19h0a0.7,0.7,0,0,0,.49-0.16,5.2,5.2,0,0,1,.79-0.38,1.23,1.23,0,0,1,.39-0.16,2.07,2.07,0,0,1,.41-0.1l0.07,0A0.84,0.84,0,0,1,97,45.3a0.17,0.17,0,0,0,.11-0.05,3,3,0,0,1,.6-0.26c0.12,0,.15-0.15.27-0.11s0.18-.06.27-0.12a0.41,0.41,0,0,0,.23-0.19,0.14,0.14,0,0,1,.11-0.05,3.14,3.14,0,0,0,.88-0.37c0.06,0,0-.13.13-0.12a0.73,0.73,0,0,1,.4-0.25,3.25,3.25,0,0,1,1-.33,0.45,0.45,0,0,0,.29-0.13,0.78,0.78,0,0,1,.29-0.18,1.45,1.45,0,0,0,.47-0.22,0.71,0.71,0,0,1,.21-0.06l0.25-.09a0.63,0.63,0,0,1,.24-0.07,0.2,0.2,0,0,0,.15-0.07,0.63,0.63,0,0,1,.3-0.18,2.71,2.71,0,0,0,.67-0.39L104,42l0.37-.2a0.19,0.19,0,0,0,.14-0.13,0.13,0.13,0,0,1,.08,0,0.5,0.5,0,0,0,.21-0.06,6.23,6.23,0,0,0,.55-0.39A0.76,0.76,0,0,0,105.7,41a3.29,3.29,0,0,0,.36-0.28l0.13-.08a0.24,0.24,0,0,0,.21-0.2,0.61,0.61,0,0,1,.19-0.21l0.25-.15a0.51,0.51,0,0,1,.17-0.22l0,0a2.68,2.68,0,0,1,.41-0.6l0.19-.27a5.43,5.43,0,0,0,.3-0.51,0.47,0.47,0,0,1,.27-0.26s0,0,0,0l0,0,0,0v0c0.18-.3.36-0.59,0.55-0.89,0,0,0-.08.07-0.08a0.1,0.1,0,0,0,.08-0.06,0.87,0.87,0,0,1,.34-0.44,3.18,3.18,0,0,0,.37-0.43,0.89,0.89,0,0,1,.16-0.17,1.89,1.89,0,0,0,.35-0.41c0.08-.14.2-0.22,0.28-0.36s0.24-.28.33-0.44,0.17,0,.15-0.14a0.62,0.62,0,0,0,.26-0.26l0-.07a3.44,3.44,0,0,0,.59-0.49,0.12,0.12,0,0,0,0-.06,0.24,0.24,0,0,1,0-.09,0.41,0.41,0,0,1,.22-0.17,0.36,0.36,0,0,1,.13-0.24,0.8,0.8,0,0,0,.26-0.34,0.48,0.48,0,0,1,.12-0.14,3.67,3.67,0,0,0,.53-0.58s0.07,0,.08,0l0.2-.18a0.7,0.7,0,0,1,.22-0.14,0.41,0.41,0,0,0,.12-0.14,1,1,0,0,1,.65-0.42,0.22,0.22,0,0,1,.18,0c0.11,0.08.26,0.07,0.36,0.15a1.93,1.93,0,0,0,.36.09,1.26,1.26,0,0,0,.53.12,0.85,0.85,0,0,0,.29,0,4.47,4.47,0,0,1,.56-0.06,0.59,0.59,0,0,1,.34,0,0.13,0.13,0,0,1,.09,0c0.06,0.08.13-.09,0.19,0a0.29,0.29,0,0,0,.2,0,1.37,1.37,0,0,1,.64.11,1.78,1.78,0,0,1,.35.22,0.11,0.11,0,0,1,.05.06c0,0.2.17,0.2,0.27,0.29L119,32.67a0.45,0.45,0,0,0,.19.1,0.57,0.57,0,0,1,.2.11,1.73,1.73,0,0,1,.33.22,1.78,1.78,0,0,1,.34.26l0.09,0.12a0.22,0.22,0,0,0,.09.09,2.2,2.2,0,0,1,.71.44c0.2,0.14.31,0.36,0.5,0.51a1.06,1.06,0,0,0,.24.3,2.57,2.57,0,0,1,.31.2,2.75,2.75,0,0,0,.35.18,4.69,4.69,0,0,0,.75.22c0.25,0.06.51,0.06,0.76,0.14a0.87,0.87,0,0,0,.26,0h0.5a2.51,2.51,0,0,1,.4.05h0c0.19,0.22.51,0.22,0.72,0.44a2.59,2.59,0,0,1,.51.76c0.07,0.22.17,0.44,0.26,0.67L126.71,38a0.2,0.2,0,0,0,0,0,1,1,0,0,1,.19.24,1.64,1.64,0,0,0,.18.24,0.81,0.81,0,0,0,.22.22q0.22,0.16.46,0.3a0.84,0.84,0,0,1,.38.28,0.6,0.6,0,0,1,.29.17,1.82,1.82,0,0,1,.29.2,2.29,2.29,0,0,1,.32.18,2.35,2.35,0,0,0,.29.18,1.54,1.54,0,0,1,.44.22h0a1.08,1.08,0,0,1,.44.15,1.59,1.59,0,0,1,.38.22,3.59,3.59,0,0,0,.65.4l0.22,0.12a0.87,0.87,0,0,0,.4.18,0.4,0.4,0,0,1,.15.09,1.09,1.09,0,0,0,.38.16,0.47,0.47,0,0,1,.31.18A0.65,0.65,0,0,0,133,42c0.07,0.07.15,0.11,0.22,0.18a2.65,2.65,0,0,0,.49.29l0.41,0.33c0.22,0.19.42,0.41,0.65,0.59a3.63,3.63,0,0,1,.38.34,1.17,1.17,0,0,0,.17.22,1.11,1.11,0,0,0,.19.16,0.71,0.71,0,0,1,.1.14,1.64,1.64,0,0,0,.26.26c0.1,0.06.17,0.16,0.27,0.22a3,3,0,0,1,.41.35l0.6,0.54a1.58,1.58,0,0,0,.16.06,0.35,0.35,0,0,0,.09.1,1.26,1.26,0,0,1,.4.44,0.51,0.51,0,0,0,.14.17,7,7,0,0,1,.46.52c0.19,0.2.37,0.41,0.56,0.61a1,1,0,0,0,.29.19c0.14,0.06.29,0.11,0.44,0.16l0.11,0.05a1.66,1.66,0,0,0,.44.22,0.7,0.7,0,0,0,.38.1,0.13,0.13,0,0,1,.1.08,2.3,2.3,0,0,0,.4.17,1.27,1.27,0,0,1,.55.27,0.32,0.32,0,0,1,.22.22,3.17,3.17,0,0,1,.43.43,1.07,1.07,0,0,1,.31.2c0.28,0.06.48,0.27,0.76,0.35a0.3,0.3,0,0,1,.29.12,0.76,0.76,0,0,1,.3.12c0.13,0.07.27,0.1,0.4,0.19a2.06,2.06,0,0,1,.38.22,0.14,0.14,0,0,0,.09,0,1.68,1.68,0,0,1,.51.18,1.19,1.19,0,0,1,.34.2,0.92,0.92,0,0,0,.24.12,1.5,1.5,0,0,0,.59.1,2.85,2.85,0,0,1,.59.11,0.25,0.25,0,0,1,.13.06c0.16,0.16.38,0.22,0.53,0.38a5.09,5.09,0,0,1,.41.34,1.56,1.56,0,0,1,.47.27c0.24,0.15.46,0.34,0.69,0.51l0.33,0.22,0.44,0.27a1.44,1.44,0,0,0,.35.1,0.92,0.92,0,0,0,.43.06,1.94,1.94,0,0,0,.44.1,1,1,0,0,0,.34.05L152,53.8a0.44,0.44,0,0,1,.35,0c0.27,0,.51.17,0.77,0.1,0.08,0,.11.12,0.18,0s0.08,0,.15,0a0.25,0.25,0,0,1,.22,0,0.51,0.51,0,0,0,.23,0,0.32,0.32,0,0,1,.19.06,1.19,1.19,0,0,0,.39.15,1.14,1.14,0,0,1,.44.16l0.27,0.11a0.32,0.32,0,0,1,.31,0,2.18,2.18,0,0,0,.36,0,6.53,6.53,0,0,1,1,.22l0.22,0.06a2.23,2.23,0,0,1,.78.42l0.34,0.19a0.22,0.22,0,0,1,.2.17,0.05,0.05,0,0,0,0,0,0.87,0.87,0,0,1,.38.17l0.09,0a4.8,4.8,0,0,0,.74.06,3.79,3.79,0,0,1,.39,0,1,1,0,0,0,.26,0c0.08,0,.15,0,0.22,0l0.37-.06a1.76,1.76,0,0,0,.35,0,2.73,2.73,0,0,1,.55-0.06,0.59,0.59,0,0,0,.22,0,0.24,0.24,0,0,1,.18,0,3.2,3.2,0,0,1,.46,0,1.71,1.71,0,0,1,.46.1h0.21a0.35,0.35,0,0,1,.36.09,0.16,0.16,0,0,0,.1,0,0.25,0.25,0,0,1,.26.08l0.07,0,0.58,0.05a0.25,0.25,0,0,1,.12,0c0.13,0.1.31,0.06,0.44,0.16a1.58,1.58,0,0,0,.42.13l0.15,0.07a1.76,1.76,0,0,0,.77.3,2.58,2.58,0,0,1,.43.17,3.87,3.87,0,0,0,.47.22,1.21,1.21,0,0,1,.29.24,0.64,0.64,0,0,1,.3.19L168,58a0.92,0.92,0,0,1-.41-0.14c-0.09-.05-0.16-0.12-0.24-0.18a0.46,0.46,0,0,0-.15-0.09,2.29,2.29,0,0,1-.62-0.3,0.81,0.81,0,0,0-.28-0.08,1.42,1.42,0,0,1-.46-0.17,1.63,1.63,0,0,0-.67-0.25,0.66,0.66,0,0,1-.22-0.08,1.39,1.39,0,0,0-.55-0.14,0.71,0.71,0,0,1-.32-0.06,6.63,6.63,0,0,0-.71-0.2c-0.11,0-.24,0-0.37-0.05a2.49,2.49,0,0,0-.5-0.06,0.67,0.67,0,0,0-.24,0,3.51,3.51,0,0,1-.41,0c-0.06-.08-0.1,0-0.15,0s-0.36,0-.53.06a7.74,7.74,0,0,1-1,.06h-0.3a0.25,0.25,0,0,1-.21,0,0.33,0.33,0,0,0-.17,0,0.69,0.69,0,0,0-.24,0,1,1,0,0,1-.6-0.14c-0.32-.15-0.62-0.33-0.93-0.51a1.1,1.1,0,0,0-.27-0.17,1,1,0,0,1-.26-0.2,0.27,0.27,0,0,0-.13-0.07c-0.25,0-.46-0.18-0.72-0.18l-0.12,0a1.78,1.78,0,0,0-.58-0.12c-0.18,0-.36-0.09-0.54-0.11a4.6,4.6,0,0,1-.5-0.13c-0.17,0-.33-0.09-0.49-0.14h0a2,2,0,0,0-.94-0.17,2.94,2.94,0,0,1-.73-0.14H152.3a2.62,2.62,0,0,1-.75-0.17l-0.12,0a2,2,0,0,1-.63-0.13,1.41,1.41,0,0,0-.36-0.08c-0.1,0-.18-0.14-0.28,0l-0.26-.09-0.25-.1-0.25-.1a0.37,0.37,0,0,0-.22-0.13,0.55,0.55,0,0,1-.22-0.15,2.47,2.47,0,0,1-.22-0.15c-0.06-.06-0.09-0.11-0.14-0.16l-0.16-.12c-0.16-.11-0.32-0.2-0.47-0.32a0.44,0.44,0,0,1-.21-0.09l-0.16-.12a0.91,0.91,0,0,0-.22-0.22c-0.06-.08-0.16-0.12-0.22-0.19a1.58,1.58,0,0,0-.31-0.15,0.55,0.55,0,0,0-.34-0.07,0.26,0.26,0,0,1-.13,0A1,1,0,0,0,146,51.5a1,1,0,0,0-.39-0.14,1.31,1.31,0,0,0-.51-0.29,8.17,8.17,0,0,0-.78-0.34l-0.09-.1-0.14,0-0.4-.18-0.42-.14a1,1,0,0,1-.48-0.22l-0.07,0a0.52,0.52,0,0,1-.2,0,2,2,0,0,1-.5-0.33,1.43,1.43,0,0,1-.36-0.46,0.22,0.22,0,0,0-.18-0.14,0.25,0.25,0,0,1-.14-0.09,2.15,2.15,0,0,0-.37-0.19,0.61,0.61,0,0,0-.39-0.13l-0.09,0-0.08-.06a0.41,0.41,0,0,1-.29-0.08,1.24,1.24,0,0,0-.24-0.13,3.4,3.4,0,0,0-.6-0.26,1.19,1.19,0,0,0-.44-0.16,0.49,0.49,0,0,0-.21-0.2c-0.06-.08-0.16-0.13-0.22-0.2a1.61,1.61,0,0,1-.18-0.22c-0.05-.08-0.1-0.17-0.15-0.25a2.74,2.74,0,0,0-.33-0.33,2.62,2.62,0,0,1-.28-0.33,1.19,1.19,0,0,0-.4-0.43c-0.27-.16-0.46-0.41-0.72-0.56a1,1,0,0,0-.2-0.21,0.63,0.63,0,0,1-.24-0.19,0.29,0.29,0,0,0-.22-0.14l0,0a0.64,0.64,0,0,0-.25-0.34,4.23,4.23,0,0,0-.33-0.34,1.09,1.09,0,0,1-.22-0.22,0.86,0.86,0,0,0-.22-0.22c-0.22-.2-0.42-0.41-0.65-0.59s-0.22-.21-0.35-0.3l-0.47-.32a1.77,1.77,0,0,1-.29-0.19,1.19,1.19,0,0,0-.62-0.35c0-.1-0.17,0-0.18-0.1s-0.12,0-.16-0.08a1,1,0,0,0-.48-0.22,1.45,1.45,0,0,0-.29-0.18,1.48,1.48,0,0,1-.31-0.14,1.69,1.69,0,0,0-.52-0.4,1.34,1.34,0,0,0-.44-0.17h-0.08a0.75,0.75,0,0,0-.35-0.18,1.82,1.82,0,0,0-.36-0.15,0.28,0.28,0,0,1-.13-0.07,4.88,4.88,0,0,1-.5-0.33,0.42,0.42,0,0,1-.32-0.22,1,1,0,0,0-.21-0.09,2.36,2.36,0,0,0-.4-0.29c-0.12-.08-0.26-0.14-0.38-0.22a1.43,1.43,0,0,1-.39-0.39,0.2,0.2,0,0,0-.2-0.1,0.59,0.59,0,0,0-.17-0.44s0-.08,0-0.11,0-.21-0.13-0.22l0,0a1,1,0,0,0-.16-0.49c-0.06-.16-0.09-0.33-0.17-0.49s0-.15-0.12-0.17a0.36,0.36,0,0,1-.14-0.19,0.49,0.49,0,0,0-.25-0.23l-0.15-.09a0.78,0.78,0,0,0-.6-0.22,0.42,0.42,0,0,1-.22-0.05c-0.08,0-.13.12-0.22,0a0.39,0.39,0,0,0-.22,0,1.73,1.73,0,0,1-.57-0.1h-0.21l-0.19-.05c-0.12-.05-0.26,0-0.39-0.09s-0.27-.08-0.39-0.14-0.22-.13-0.35-0.18a1.85,1.85,0,0,1-.42-0.33,0.44,0.44,0,0,1-.22-0.19A0.51,0.51,0,0,0,121,34.5c-0.26-.19-0.46-0.46-0.74-0.63a2.76,2.76,0,0,1-.52-0.38c-0.2-.2-0.46-0.32-0.66-0.5l-0.19-.06c-0.06,0-.06-0.16-0.18-0.13a0.39,0.39,0,0,1-.19-0.11l-0.2-.14a0.92,0.92,0,0,1-.19-0.1,0.22,0.22,0,0,0-.19-0.06,0.67,0.67,0,0,1-.52-0.15,0.69,0.69,0,0,0-.54-0.11,0.15,0.15,0,0,1-.1,0,0.22,0.22,0,0,0-.22,0,1.73,1.73,0,0,1-.8,0,1.44,1.44,0,0,1-.74-0.18,0.19,0.19,0,0,0-.12,0,0.38,0.38,0,0,1-.27-0.06c-0.06,0-.09-0.07-0.15,0a0.13,0.13,0,0,1-.09,0,0.34,0.34,0,0,0-.41.1,1,1,0,0,1-.35.3c-0.09.25-.42,0.29-0.51,0.55a0.8,0.8,0,0,1-.19.16,3.55,3.55,0,0,1-.3.34,1.81,1.81,0,0,0-.27.33,13.42,13.42,0,0,1-1.09,1.21,2.17,2.17,0,0,0-.51.67,1.06,1.06,0,0,1-.2.26,0.16,0.16,0,0,0-.06.14,0.07,0.07,0,0,1,0,.05c-0.15,0-.15.1-0.22,0.18-0.2.22-.39,0.44-0.59,0.65s-0.17.2-.27,0.29a3.56,3.56,0,0,0-.27.3,0.5,0.5,0,0,0-.09.15,1.06,1.06,0,0,1-.3.46,0.82,0.82,0,0,0-.11.16,0.35,0.35,0,0,1-.08.12,0.81,0.81,0,0,0-.31.37,3,3,0,0,0-.32.53c0,0.06,0,.12-0.07.18s0,0.12-.14.11,0,0.06,0,.1l0,0Z" transform="translate(-42.2 -31.27)"/><path class="cls-5" d="M121.44,59.53l0.07-.22a0.55,0.55,0,0,0,0-.3,0.72,0.72,0,0,1-.05-0.16,1.68,1.68,0,0,1,0-.22,1.52,1.52,0,0,1,.48-0.4,0.19,0.19,0,0,1,.12,0,0.15,0.15,0,0,0,.18-0.08c0-.09.1,0.1,0.12,0a0.41,0.41,0,0,1,.1-0.14l0.1-.14a0.46,0.46,0,0,0,.12-0.22,0.55,0.55,0,0,0,.1-0.22,0.13,0.13,0,0,1,.06-0.1A0.49,0.49,0,0,1,123,57.2a0.39,0.39,0,0,1,.22.12,1.39,1.39,0,0,1,.28.46c0.07,0.17.12,0.34,0.17,0.51a0.75,0.75,0,0,1,.15.28,1.13,1.13,0,0,0,0,.32,0.57,0.57,0,0,0,.18.42,0.44,0.44,0,0,0,.22.22,2.4,2.4,0,0,1,.18.22,0.28,0.28,0,0,0,.17.07l0.5,0.06a0.37,0.37,0,0,0,.33-0.17,0.69,0.69,0,0,1,.25-0.22,0.17,0.17,0,0,1,.18,0,0.15,0.15,0,0,0,.12,0,0.17,0.17,0,0,1,.24,0h0a1.22,1.22,0,0,0,.38.11,4.24,4.24,0,0,0,.56,0,1.29,1.29,0,0,0,.7-0.22l0.18-.18a0.22,0.22,0,0,0,.17-0.15,0.08,0.08,0,0,1,.06,0,1.85,1.85,0,0,0,.44.09c0.15,0.09.28,0.07,0.41,0.16a0.15,0.15,0,0,0,.1,0,0.69,0.69,0,0,1,.29.05c0.07,0,.14.08,0.22,0a0.09,0.09,0,0,1,.08,0,0.83,0.83,0,0,0,.41,0,0.41,0.41,0,0,0,.31-0.18,0.36,0.36,0,0,1,.09-0.09l0.16-.06c0.08-.06.08,0,0.11,0s0.27,0.17.4,0.23,0.17,0,.2.1,0.16,0,.14.15a1.86,1.86,0,0,0,.51.36,0.56,0.56,0,0,1,.31.26,0.44,0.44,0,0,0,.24.19,0.31,0.31,0,0,1,.2.27,0.57,0.57,0,0,0,.16.36,1,1,0,0,0,.14.28l0.27,0.1a0.94,0.94,0,0,1,.33.16,5.2,5.2,0,0,1,.6.52l0.05,0.11a0.39,0.39,0,0,0,.24-0.06,1.1,1.1,0,0,1,.39-0.21,0.84,0.84,0,0,0,.2-0.15l0.2-.08c0-.15.12,0,0.17-0.08a0.44,0.44,0,0,0,.25-0.22,0.59,0.59,0,0,1,.12-0.24,0.93,0.93,0,0,1,.66-0.33c0.12,0,.22,0,0.35,0a1.06,1.06,0,0,0,.35,0,0.48,0.48,0,0,0,.32-0.41A0.67,0.67,0,0,1,137.8,60a0.76,0.76,0,0,0,.09-0.44,0.35,0.35,0,0,1,0-.22,1.23,1.23,0,0,0,.09-0.2c0.1,0,.06-0.14.16-0.11a1.17,1.17,0,0,1,.38-0.25l0.08-.05a0.31,0.31,0,0,1,.22-0.12l0.17-.1a0.56,0.56,0,0,1,.31-0.15c0-.06.1-0.11,0.14-0.18a0.85,0.85,0,0,1,.22-0.31,0.54,0.54,0,0,0,.18-0.34,0.57,0.57,0,0,1,.26-0.33,0.38,0.38,0,0,1,.4,0,0.3,0.3,0,0,1,.22.19,4.55,4.55,0,0,0,.3.54L141.12,58a0.32,0.32,0,0,1,.16.3,1.06,1.06,0,0,1,.18.3,0.66,0.66,0,0,0,.13.18,1.09,1.09,0,0,1,.16.36,0.11,0.11,0,0,1,0,.1,0.22,0.22,0,0,0,0,.22,0.72,0.72,0,0,1,0,.14,0.44,0.44,0,0,0,.19.29,0.84,0.84,0,0,0,.79.1,1.11,1.11,0,0,1,.34,0,6,6,0,0,0,.82-0.06,1.42,1.42,0,0,1,.68.1l0.19,0.06,0.19,0,0.39,0.14,0.27,0a2.9,2.9,0,0,1,.24.31,1.05,1.05,0,0,0,.59.41l0.1,0a1.33,1.33,0,0,0,.55.27l0.15,0h0.21c0.18,0,.18,0,0.21.18a0.16,0.16,0,0,0,.05.1,0.9,0.9,0,0,0,.36.07,0.61,0.61,0,0,0,.22-0.08c0.06,0,.06-0.15.12-0.21a2,2,0,0,0,.37-0.59,0.27,0.27,0,0,0,0-.09,0.36,0.36,0,0,1,.18-0.38,0.24,0.24,0,0,0,.09-0.22,0.16,0.16,0,0,1,.08-0.2,0.22,0.22,0,0,1,.28.07,1.51,1.51,0,0,0,.46.41,0.15,0.15,0,0,0,.09,0,1.18,1.18,0,0,1,.38.12,0.67,0.67,0,0,1,.31.25,0.28,0.28,0,0,1,.15.2,0.25,0.25,0,0,0,.18.18l0.19,0.05a0.48,0.48,0,0,1,.36.28,1.17,1.17,0,0,0,.31.3,0.66,0.66,0,0,0,.25,0,0.9,0.9,0,0,1,.34,0,0.54,0.54,0,0,0,.42-0.18l0.37-.24a2,2,0,0,0,.35-0.29,0.31,0.31,0,0,0,.1-0.22,1.14,1.14,0,0,1,.12-0.56c0.05-.15.09-0.31,0.16-0.46s0-.17.12-0.16l0,0c-0.09,0,0-.1,0-0.12s0.22-.31.33-0.47a0.84,0.84,0,0,0,.13-0.18,0.27,0.27,0,0,1,.29-0.19,1.37,1.37,0,0,1,.78.22,1.7,1.7,0,0,0,.61.25,1.48,1.48,0,0,0,1-.06l0.18-.08a0.47,0.47,0,0,0,.22-0.11,0.3,0.3,0,0,1,.15,0,0.48,0.48,0,0,1-.31.22,1.49,1.49,0,0,1-1,.3,1.91,1.91,0,0,1-.86-0.28,1.24,1.24,0,0,0-.44-0.13,0.63,0.63,0,0,1-.22,0,0.28,0.28,0,0,0-.28.16,2.09,2.09,0,0,1-.3.43,1.29,1.29,0,0,0-.13.22,0.46,0.46,0,0,0-.09.25c0,0.12-.12.2-0.11,0.32s-0.15.06,0,.15a1,1,0,0,0-.1.19,0.27,0.27,0,0,1-.06.19,0.37,0.37,0,0,1-.13.29,4.49,4.49,0,0,1-.8.74,0.59,0.59,0,0,1-.36.11,0.94,0.94,0,0,0-.32.06,0.35,0.35,0,0,1-.27,0,0.15,0.15,0,0,0-.2.06h0a1.33,1.33,0,0,0-.25-0.13,1,1,0,0,0-.17-0.2,0.74,0.74,0,0,1-.15-0.3,0.87,0.87,0,0,1-.58-0.2,0.19,0.19,0,0,1-.1-0.17,0.08,0.08,0,0,0,0-.06,1.4,1.4,0,0,0-.49-0.34c-0.2-.05-0.39-0.12-0.58-0.18a0.22,0.22,0,0,0-.19,0,0.53,0.53,0,0,0-.22.17,0.52,0.52,0,0,0-.13.32,0.83,0.83,0,0,0-.11.27,0.41,0.41,0,0,0-.14.26,0.65,0.65,0,0,1-.51.35l-0.22.05a0.51,0.51,0,0,1-.5-0.18l0,0a1.42,1.42,0,0,1-.5-0.2,3,3,0,0,1-.5-0.19,1.67,1.67,0,0,1-.67-0.38,0.09,0.09,0,0,0-.06,0,0.2,0.2,0,0,1-.19-0.12,2.22,2.22,0,0,1-.15-0.25c-0.2,0-.37-0.14-0.57-0.16l-0.22-.05-0.11,0a1.52,1.52,0,0,0-.48-0.11l-0.24.05a0.53,0.53,0,0,0-.19,0s-0.12-.06-0.16,0a1.14,1.14,0,0,1-.51,0h-0.53a1.9,1.9,0,0,1-.79-0.26l0,0a1.13,1.13,0,0,1-.16-0.59,0.56,0.56,0,0,0-.05-0.36,1.45,1.45,0,0,0-.22-0.38,0.52,0.52,0,0,1-.09-0.4,1.84,1.84,0,0,1-.43-0.57,0.39,0.39,0,0,0-.09-0.1c-0.13-.14-0.29-0.13-0.32,0a1.58,1.58,0,0,1-.32.5c-0.07.12-.2,0.2-0.28,0.33a0.14,0.14,0,0,1-.15.09,0.11,0.11,0,0,0-.08,0,1.82,1.82,0,0,1-.34.22,2.2,2.2,0,0,1-.36.22l-0.33.24a2.74,2.74,0,0,1-.07.32,1.15,1.15,0,0,0-.06.27,1.19,1.19,0,0,1-.08.28,0.86,0.86,0,0,0-.08.23,0.72,0.72,0,0,1-.11.22,0.84,0.84,0,0,1-.52.46,1.4,1.4,0,0,1-.46.09,0.86,0.86,0,0,0-.35,0,0.61,0.61,0,0,0-.38.28,0.58,0.58,0,0,1-.34.26,0.86,0.86,0,0,0-.28.16,4.66,4.66,0,0,0-.72.49,0.36,0.36,0,0,1-.17.09l-0.27.06a0.21,0.21,0,0,1-.28-0.1v0a0.41,0.41,0,0,0-.16-0.25,2.38,2.38,0,0,0-.87-0.52l-0.25-.11c-0.11-.09-0.11-0.09-0.09-0.27a0.17,0.17,0,0,0,0-.08,2.44,2.44,0,0,1-.22-0.49,0.14,0.14,0,0,0-.08-0.07,1.31,1.31,0,0,1-.38-0.34,0.62,0.62,0,0,0-.22-0.17A0.22,0.22,0,0,1,131.7,60s0-.14-0.14-0.1h0a1.48,1.48,0,0,0-.52-0.34,0.54,0.54,0,0,0-.28-0.07l-0.07,0a1.32,1.32,0,0,1-.77.24h-0.08a2.12,2.12,0,0,1-1-.17,0.75,0.75,0,0,0-.75.15c0,0.12-.09.09-0.13,0.12a1.13,1.13,0,0,1-.32.12l-0.24.05h-0.24l-0.14,0a0.48,0.48,0,0,1-.25,0,0.24,0.24,0,0,0-.14-0.05l-0.43-.06-0.07,0a0.24,0.24,0,0,0-.34,0h0l-0.22.18a0.81,0.81,0,0,1-.7.12c-0.07,0-.16.08-0.21,0a0.38,0.38,0,0,1-.25-0.1,1.7,1.7,0,0,1-.27-0.23,0.37,0.37,0,0,1-.22-0.22,0.59,0.59,0,0,1-.27-0.28,0.2,0.2,0,0,1,0-.11,2.35,2.35,0,0,0-.19-0.87,3.53,3.53,0,0,1-.19-0.48A0.13,0.13,0,0,0,123,57.8a0.13,0.13,0,0,0-.08.07,1.82,1.82,0,0,1-.56.55,0.86,0.86,0,0,1-.3.16,0.59,0.59,0,0,0-.22.14l0.11,0.09,0,0.11a0.36,0.36,0,0,0,0,.11l0,0.11s0,0,0,.06a2.3,2.3,0,0,0-.06.24,0.42,0.42,0,0,1-.2.38,1.05,1.05,0,0,0-.32.35c-0.14.18-.24,0.4-0.39,0.57a0.5,0.5,0,0,1-.34.23,0.73,0.73,0,0,0-.21.07,0.56,0.56,0,0,1-.29,0,1.41,1.41,0,0,1-.4.05,1,1,0,0,1-.48.05,0.72,0.72,0,0,0-.34.06,2.32,2.32,0,0,0-.54.36l-0.08.08c0,0.25-.09.49-0.05,0.74a1.4,1.4,0,0,1-.42.77,0.18,0.18,0,0,1-.21,0,0.58,0.58,0,0,0-.31,0,1.79,1.79,0,0,1-.44-0.06,0.15,0.15,0,0,1-.16-0.13s-0.1,0-.14,0l-0.07-.09a6.64,6.64,0,0,1-.56-0.43,0.63,0.63,0,0,1-.22-0.46c0-.09,0-0.18,0-0.27a1.23,1.23,0,0,0,0-.27,3.1,3.1,0,0,1-.17-0.38,0.56,0.56,0,0,0-.37-0.22l-0.06,0a0.73,0.73,0,0,0-.46-0.17,0.73,0.73,0,0,1-.31-0.07,1.72,1.72,0,0,1-.31-0.2,0.25,0.25,0,0,0-.2-0.1,0.12,0.12,0,0,1-.1-0.05,0.38,0.38,0,0,0-.31-0.21A1.42,1.42,0,0,1,113,59.9c-0.1-.09-0.2-0.2-0.3-0.3a3.94,3.94,0,0,0-.71-0.07l-0.27,0-0.12,0a0.79,0.79,0,0,1-.75,0l-0.21-.07a1.29,1.29,0,0,1-.34-0.15,0.62,0.62,0,0,0-.32-0.13,0.56,0.56,0,0,1-.33-0.13,1,1,0,0,1-.29-0.16c0-.06-0.14,0-0.17,0a1.34,1.34,0,0,1-.26.37,0.06,0.06,0,0,0,0,0,1,1,0,0,1-.2.55l-0.06.13-0.12.26a2.85,2.85,0,0,0-.3.36,0.45,0.45,0,0,1-.36.18,0.32,0.32,0,0,1,0-.43,0.1,0.1,0,0,0,0,0,1.59,1.59,0,0,1-.46-0.67,0.93,0.93,0,0,0-.16-0.22c-0.06-.08-0.2-0.1-0.16-0.25a0.21,0.21,0,0,0-.08-0.1,0.19,0.19,0,0,1-.08-0.15,0.15,0.15,0,0,0-.07-0.1,1.61,1.61,0,0,1-.29-0.19,0.44,0.44,0,0,0-.37-0.14,0.51,0.51,0,0,0-.54.29,0.79,0.79,0,0,0-.24.24c-0.11,0-.07.12-0.14,0.15a0.18,0.18,0,0,0-.1.2l-0.24.18a2,2,0,0,1-.58.2c-0.15.06-.41,0.15-0.54,0.22a1.85,1.85,0,0,1-.68.26,0.52,0.52,0,0,1-.34-0.08l-0.22-.11a0.12,0.12,0,0,0-.16,0,1.35,1.35,0,0,1-.63.34c-0.05,0-.1.06-0.15,0.07a0.39,0.39,0,0,1-.24,0c-0.08,0-.22,0-0.24-0.15a0.44,0.44,0,0,0-.13-0.21,0.32,0.32,0,0,0-.52,0l-0.08.07a1.25,1.25,0,0,1-.74.44,0.23,0.23,0,0,1-.27,0h-0.1l-0.61-.06a0.22,0.22,0,0,1-.17-0.17,0.28,0.28,0,0,0-.34-0.2l-0.1,0c-0.2.12-.42,0.19-0.62,0.3a5.16,5.16,0,0,1-.62.22,0.89,0.89,0,0,1-.54-0.07L96,60.56V60.23A0.28,0.28,0,0,0,96,60a0.25,0.25,0,0,1-.05-0.11l0-.1a0.42,0.42,0,0,1-.11-0.22,0.27,0.27,0,0,1,0-.09,0.74,0.74,0,0,0-.11-0.41l-0.08-.18a0.31,0.31,0,0,1,0-.27,0.66,0.66,0,0,0-.1-0.48A0.63,0.63,0,0,0,95.32,58a0.51,0.51,0,0,0-.14.32,2.26,2.26,0,0,1-.1.33,0.65,0.65,0,0,1-.43.4,1.38,1.38,0,0,1-.67.1,0.4,0.4,0,0,0-.08-0.12,0.55,0.55,0,0,0-.2-0.2,0.35,0.35,0,0,0-.12-0.24,1.47,1.47,0,0,1-.16-0.35,2.35,2.35,0,0,0-.15-0.31l-0.36-.06a0.17,0.17,0,0,1-.24.05,0.44,0.44,0,0,0-.38.14l-0.21.2a0.78,0.78,0,0,0-.17.13,0.14,0.14,0,0,1-.15.1,0.2,0.2,0,0,0-.13.06,2.09,2.09,0,0,0-.54.67,0.08,0.08,0,0,1,0,0,0.83,0.83,0,0,0-.28.22l-0.38.22a0.17,0.17,0,0,1-.15.08,0.91,0.91,0,0,1-.22-0.08c-0.06,0-.11-0.12-0.17-0.16s-0.17,0-.16-0.11a0.35,0.35,0,0,0-.31,0,0.72,0.72,0,0,0-.29.19l-0.06,0a1,1,0,0,0-.34.33,1.76,1.76,0,0,1-.12.14,1,1,0,0,0-.26.31,0.13,0.13,0,0,1-.08.06,2.6,2.6,0,0,1-.84.33c-0.05.09-.1-0.06-0.17,0a0.22,0.22,0,0,1-.18.07c-0.18-.06-0.39,0-0.55-0.05a1.19,1.19,0,0,0-.52,0l-0.06,0L85.85,61a0.66,0.66,0,0,1-.26.21l-0.31.09a1.7,1.7,0,0,1-.64-0.07l-0.12,0A4.27,4.27,0,0,1,84,61.18a0.41,0.41,0,0,0-.35,0,1.92,1.92,0,0,0-.53-0.06,1.31,1.31,0,0,0-.59,0A1,1,0,0,1,81.81,61a5.81,5.81,0,0,1-.44-0.45,0.3,0.3,0,0,1,0-.14H81.12l0.06-.14a0.56,0.56,0,0,0-.52-0.18,1.44,1.44,0,0,0-.25.19,0.62,0.62,0,0,0-.11.24,0.22,0.22,0,0,1-.17.13,1.75,1.75,0,0,1-.34.07,0.59,0.59,0,0,0-.32,0,0.22,0.22,0,0,1-.16,0l-0.62-.16a0.31,0.31,0,0,1-.13-0.07,0.94,0.94,0,0,0-.34-0.2l-0.36-.16a1.06,1.06,0,0,0-.38,0,1.6,1.6,0,0,0-.59.22c0,0.08-.18.1-0.13,0.22a1.3,1.3,0,0,0-.47.44v0a0.38,0.38,0,0,1-.44.24,5.45,5.45,0,0,1-.69-0.06,0.67,0.67,0,0,1-.32-0.12,1.55,1.55,0,0,0-.32,0A0.9,0.9,0,0,0,74.23,61a0.56,0.56,0,0,0-.41.08,0.14,0.14,0,0,1-.09,0,0.63,0.63,0,0,0-.37.13,0.61,0.61,0,0,1-.49.05l0,0c-0.21,0-.4-0.09-0.62,0A1.19,1.19,0,0,1,72,60.88a0.52,0.52,0,0,0-.41-0.29,2.58,2.58,0,0,0-.48-0.08,1.18,1.18,0,0,1-.79.38L70,61H69.74a0.33,0.33,0,0,1-.28,0,1.32,1.32,0,0,1-.29-0.06,0.19,0.19,0,0,0-.13,0,0.22,0.22,0,0,1-.2-0.08l-0.09,0V60.69a0.71,0.71,0,0,1-.37-0.21l-0.19-.16c-0.09,0,0-.17-0.16-0.13A0.32,0.32,0,0,0,67.86,60a0.7,0.7,0,0,0-.09-0.1l-0.09-.15c-0.06.06-.07,0-0.1,0a0.38,0.38,0,0,0-.15-0.07,0.22,0.22,0,0,1-.17-0.15l0,0L66.71,59a0.24,0.24,0,0,0-.11,0H66.52c-0.11,0-.19-0.19-0.33-0.05a0.81,0.81,0,0,0-.37.06,1,1,0,0,1-.36,0l-0.43,0a1.34,1.34,0,0,0-.44.06s0,0,0,0a0.75,0.75,0,0,0-.54.22,0.14,0.14,0,0,1-.16,0,0.85,0.85,0,0,0-.39-0.09l-0.19,0a1.6,1.6,0,0,0-.41.1,2.24,2.24,0,0,0-.34.16,0.13,0.13,0,0,0-.06.11,0.56,0.56,0,0,1-.16.35,1,1,0,0,1-.35.3,0.14,0.14,0,0,0-.06.08,0.82,0.82,0,0,1,0,.11,1.36,1.36,0,0,0-.3.22,0.78,0.78,0,0,1-.36.1,0.22,0.22,0,0,0-.15,0,0.61,0.61,0,0,1-.42.08H60.48A1.11,1.11,0,0,0,60,60.46h0a0.77,0.77,0,0,0-.6-0.2H59.29a0.79,0.79,0,0,1-.38.26l-0.07,0a1,1,0,0,1-.53.32s0,0-.08,0a0.36,0.36,0,0,0-.26,0,0.22,0.22,0,0,0-.19.18,2.53,2.53,0,0,1-.49.65,0.55,0.55,0,0,1-.3.09,1,1,0,0,0-.52.1,0.2,0.2,0,0,1-.12,0,0.69,0.69,0,0,1-.06,0c-0.19,0-.39,0-0.58-0.06A2.46,2.46,0,0,1,55,61.64c-0.09,0-.19-0.06-0.28-0.1a0.4,0.4,0,0,1-.28-0.2,0.14,0.14,0,0,0-.13-0.07A2.31,2.31,0,0,1,53.55,61,1.06,1.06,0,0,0,53,60.91a0.19,0.19,0,0,1-.19,0,0.11,0.11,0,0,0-.1,0L52.3,61a3.13,3.13,0,0,0-.41.15,0.35,0.35,0,0,1-.15,0h-1a0.83,0.83,0,0,0-.22.11,4.55,4.55,0,0,0-.44.22,1.91,1.91,0,0,1-.43.17l-0.07,0a6.85,6.85,0,0,0-.77.1,0.23,0.23,0,0,0-.14.05s-0.12,0-.18.08a0.14,0.14,0,0,1-.18,0,0.21,0.21,0,0,0-.18,0,1.21,1.21,0,0,1-.48,0,0.28,0.28,0,0,0-.25,0,0.41,0.41,0,0,0-.11,0H47.14a0.19,0.19,0,0,1-.14,0,0.33,0.33,0,0,1-.21,0,0.13,0.13,0,0,0-.18,0l0,0a0.32,0.32,0,0,0-.22-0.06,0.76,0.76,0,0,0-.35,0,0.25,0.25,0,0,0-.26.08,0.13,0.13,0,0,1-.09,0h-0.3l-0.05-.1a0.13,0.13,0,0,1,0-.18,0.82,0.82,0,0,1,.34-0.19,0.46,0.46,0,0,1,.38,0l0.32,0.11c0.1,0,.21,0,0.32,0a1.08,1.08,0,0,0,.42,0,0.74,0.74,0,0,0,.4,0,0.3,0.3,0,0,1,.15,0,0.81,0.81,0,0,1,.3,0l0.26,0a1.62,1.62,0,0,0,.67-0.12,2.61,2.61,0,0,1,.44-0.1,1.39,1.39,0,0,0,.7-0.22,0.53,0.53,0,0,1,.3-0.16,1.39,1.39,0,0,0,.28-0.14,0.63,0.63,0,0,1,.49,0h0.08a1.65,1.65,0,0,1,.67,0,1.16,1.16,0,0,0,.43-0.11,1.07,1.07,0,0,1,.35-0.1,0.57,0.57,0,0,1,.38,0,0.56,0.56,0,0,1,.26.06,0.48,0.48,0,0,1,.4.11c0.22,0.1.44,0.16,0.65,0.27a0.49,0.49,0,0,1,.28.1,0.75,0.75,0,0,0,.22.15,2.11,2.11,0,0,0,.41.1c0.09,0,.21,0,0.29.06a0.36,0.36,0,0,0,.19,0,0.5,0.5,0,0,1,.31.07,0.3,0.3,0,0,0,.14,0h0.39a2.65,2.65,0,0,1,.48-0.06,0.4,0.4,0,0,0,.09-0.1c0.07-.07.16-0.13,0.22-0.2A0.54,0.54,0,0,0,57.5,61a0.39,0.39,0,0,1,.06-0.11,0.54,0.54,0,0,1,.52-0.27,1.07,1.07,0,0,0,.65-0.15l0.18-.14L59.23,60a0.35,0.35,0,0,1,.4,0c0.17,0.1.35,0.18,0.52,0.28a0.32,0.32,0,0,0,.19.15,1.17,1.17,0,0,0,.24.13,0.42,0.42,0,0,0,.22,0,1.27,1.27,0,0,0,.79-0.26c0.05,0,.09-0.11.14-0.16L61.92,60a0.75,0.75,0,0,0,.16-0.17,1.35,1.35,0,0,0,.14-0.33,0.62,0.62,0,0,1,.32-0.39A1.49,1.49,0,0,1,63.48,59a0.36,0.36,0,0,1,.22.08c0.13,0.16.26,0,.36,0a0.5,0.5,0,0,1,.29-0.13l0.08-.06,0.06,0a2.92,2.92,0,0,1,.85,0,0.5,0.5,0,0,0,.27,0,1.28,1.28,0,0,0,.5-0.12,0.24,0.24,0,0,1,.17,0,3.29,3.29,0,0,1,.51.11A0.3,0.3,0,0,1,67,59a0.76,0.76,0,0,0,.18.24,0.51,0.51,0,0,0,.22.22,0.44,0.44,0,0,1,.13.13,0.24,0.24,0,0,0,.09.09,0.82,0.82,0,0,1,.4.29,5,5,0,0,1,.46.35,0.47,0.47,0,0,0,.19.18,0.65,0.65,0,0,1,.22.15,0.71,0.71,0,0,0,.49.16,0.26,0.26,0,0,1,.25,0,0.1,0.1,0,0,0,.1,0,0.3,0.3,0,0,1,.24,0l0.14,0s0.1-.09.17,0l0.14,0,0.22-.06a0.21,0.21,0,0,0,.11-0.05c0.08-.13.22-0.19,0.31-0.31a0.64,0.64,0,0,1,.35.06c0.13,0.06.28,0.1,0.41,0.15a0.82,0.82,0,0,1,.41.27,0.43,0.43,0,0,0,.12.19,0.78,0.78,0,0,0,.35.12A0.65,0.65,0,0,0,73.25,61a0.44,0.44,0,0,0,.35-0.11,0.22,0.22,0,0,1,.14-0.05,0.13,0.13,0,0,0,.1,0,0.29,0.29,0,0,1,.33-0.08l0.44,0.08a0.41,0.41,0,0,0,.29.06h0a1.55,1.55,0,0,0,.7.15,0.4,0.4,0,0,0,.49-0.2,0.52,0.52,0,0,1,.25-0.22,0.32,0.32,0,0,0,.09-0.11l0.17-.24a0.94,0.94,0,0,1,.67-0.33,0.76,0.76,0,0,0,.1,0c0.06,0.08.08,0,.12,0l0.12,0a0.22,0.22,0,0,1,.14,0c0.07,0.07.22,0,.24,0.12h0a0.32,0.32,0,0,1,.27,0c0.07,0.1.18,0,.24,0.12a0.35,0.35,0,0,0,.22.1,1,1,0,0,1,.14.15,0.92,0.92,0,0,0,.38.12,0.57,0.57,0,0,0,.36,0A3,3,0,0,0,80,60.42a0.18,0.18,0,0,0,.14-0.1,2.75,2.75,0,0,1,.27-0.42A1.43,1.43,0,0,1,81,59.73L81,59.78a0.78,0.78,0,0,0,.28.15,0.69,0.69,0,0,0,.29.12,0.33,0.33,0,0,1,.13.26,0.59,0.59,0,0,0,.09.33l0.22,0.19a0.92,0.92,0,0,0,.62,0l0.09,0a0.23,0.23,0,0,0,.12,0,0.37,0.37,0,0,1,.38,0,0.76,0.76,0,0,0,.23,0,0.32,0.32,0,0,1,.22,0,0.28,0.28,0,0,0,.17,0l0.12,0a1.91,1.91,0,0,1,.3,0,0.32,0.32,0,0,1,.27.05,5.25,5.25,0,0,0,.62.11,0.48,0.48,0,0,0,.41-0.17,1.83,1.83,0,0,0,.33-0.33,0.3,0.3,0,0,1,.22-0.08,1.71,1.71,0,0,1,.78.09,1.48,1.48,0,0,0,.39,0,0.18,0.18,0,0,1,.19,0c0.06,0,.11-0.1.17,0l0.2-.1a1.47,1.47,0,0,0,.35-0.22A3.41,3.41,0,0,1,88.53,60a1.49,1.49,0,0,0,.25-0.37l0-.06A0.5,0.5,0,0,0,89,59.42a0.32,0.32,0,0,1,.17-0.16,4.57,4.57,0,0,1,.49-0.16,0.31,0.31,0,0,1,.18.09,3.14,3.14,0,0,1,.32.26,0.13,0.13,0,0,0,.18,0h0a0.46,0.46,0,0,1,.22-0.08,0.21,0.21,0,0,0,.14-0.09A2.56,2.56,0,0,0,91,59a1.24,1.24,0,0,1,.63-0.67,0.79,0.79,0,0,0,.22-0.15,4.67,4.67,0,0,1,.74-0.57,0.41,0.41,0,0,1,.31-0.06c0.22-.2.21-0.19,0.48-0.07a0.44,0.44,0,0,1,.24.3l0.16,0.51a4.87,4.87,0,0,0,.28.42l0.12,0.2a0.57,0.57,0,0,0,.39-0.07,0.44,0.44,0,0,0,.27-0.33c0.1-.3.18-0.59,0.27-0.89a1.12,1.12,0,0,1,.08-0.16l0.26,0.18,0.06,0.05a0.36,0.36,0,0,1,.25.22,1.89,1.89,0,0,1,.11.33,1.85,1.85,0,0,1,0,.45,0.18,0.18,0,0,0,.06.14,1.17,1.17,0,0,1,.13.18,0.34,0.34,0,0,1,.08.26,1.18,1.18,0,0,0,.06.44,0.37,0.37,0,0,0,.2.31v0.27a0.13,0.13,0,0,0,.12.14h0.53a0.58,0.58,0,0,0,.22-0.05,3,3,0,0,0,.54-0.28,2.28,2.28,0,0,1,.4-0.19l0.09,0c0.07-.06.14-0.15,0.22,0s0.17,0,.17.16a0.57,0.57,0,0,0,.12.22,1.3,1.3,0,0,1,.36,0c0.1,0,.22,0,0.35.05a0.37,0.37,0,0,0,.34,0,1,1,0,0,0,.38-0.31,0.92,0.92,0,0,1,.49-0.32c0.09,0,.18.09,0.29,0a0.87,0.87,0,0,1,.4.33,0.28,0.28,0,0,0,.14.14,0.35,0.35,0,0,0,.16,0L102,60a0.46,0.46,0,0,0,.27-0.2,1.86,1.86,0,0,1,.18-0.27,0.2,0.2,0,0,1,.28-0.06l0.06,0.06,0.1,0.09,0.06,0.11a0.78,0.78,0,0,0,.26.13l0.42-.14c0.09,0,.17-0.1.26-0.14a0.73,0.73,0,0,1,.34-0.14h0.05l0.15-.08h0.14c0.13,0,.2-0.15.34-0.14a0,0,0,0,0,0,0,0.44,0.44,0,0,1,.22-0.31,0.57,0.57,0,0,1,.17-0.22,0.73,0.73,0,0,0,.16-0.18c0.05,0,0-.15.16-0.12s0-.13.11-0.1a0.43,0.43,0,0,1,.35-0.16,0.82,0.82,0,0,0,.29-0.05,0.61,0.61,0,0,0,.33.07c0.17,0.19.38,0.4,0.56,0.62a1.56,1.56,0,0,1,.15.3,0.35,0.35,0,0,0,.16.18,0.27,0.27,0,0,1,.19.28,0.1,0.1,0,0,0,0,.07L108.15,60a0.11,0.11,0,0,0,.16,0l0,0a0.87,0.87,0,0,0,.2-0.31,0.44,0.44,0,0,0,.08-0.22c0-.1,0-0.13.06-0.19a0.48,0.48,0,0,1,.12-0.21,0.19,0.19,0,0,0,.08-0.25h0c0.08,0,.14.05,0.15,0a0.56,0.56,0,0,1,.13-0.24,0.28,0.28,0,0,1,.39-0.07h0a1.8,1.8,0,0,0,.69.36c0.09,0,.12.11,0.21,0.13a0.64,0.64,0,0,0,.28.08,0.15,0.15,0,0,1,.13.06l0.11,0a0.74,0.74,0,0,0,.52,0,1.23,1.23,0,0,0,.46-0.1l0,0,0.39,0.09a3.93,3.93,0,0,1,.38.08,0.66,0.66,0,0,1,.34.18,1,1,0,0,0,.36.32,3.76,3.76,0,0,1,.8.49,0.28,0.28,0,0,0,.21.08,1.3,1.3,0,0,1,.38.1,1,1,0,0,1,.37.13,1.83,1.83,0,0,1,.57.52,1.09,1.09,0,0,1,.09.31,0.52,0.52,0,0,0,0,.08,1.22,1.22,0,0,1,.06.24,0.51,0.51,0,0,0,.17.41c0.07,0.07.13,0.16,0.2,0.22l0.21,0.17,0.33,0.28a0.3,0.3,0,0,0,.13.06l0.44,0.05a0.22,0.22,0,0,0,.25-0.17,1.82,1.82,0,0,0,.16-0.91V61.75a0.62,0.62,0,0,1,.39-0.63,4.73,4.73,0,0,1,.63-0.32l0.11,0a6.75,6.75,0,0,0,.77-0.06,3.26,3.26,0,0,0,.83-0.17,0.48,0.48,0,0,0,.28-0.32c0.06-.13.15-0.25,0.21-0.39A0.61,0.61,0,0,1,121.44,59.53Z" transform="translate(-42.2 -31.27)"/><path class="cls-5" d="M93.78,57.79a0.9,0.9,0,0,1-.07-0.18,0.17,0.17,0,0,1,0-.17A1.25,1.25,0,0,0,94,57.2a2.4,2.4,0,0,0,.14-0.31l0,0a0.3,0.3,0,0,1,0-.19,0.85,0.85,0,0,1,.44-0.21c0.09,0,.18-0.1.27,0a0.5,0.5,0,0,0,.41-0.26,0.76,0.76,0,0,0,.22-0.41s0.12,0,.1-0.11,0.09-.05.12-0.1a0.41,0.41,0,0,1,.14-0.1c0.31-.19.67-0.29,1-0.44a2.27,2.27,0,0,0,.48-0.11,2.65,2.65,0,0,0,.59-0.16l0.27-.17a0.89,0.89,0,0,0,0-.14,0.54,0.54,0,0,1,.28-0.57,2,2,0,0,1,.73-0.39,3.89,3.89,0,0,1,.67-0.37c0.18-.12.33-0.26,0.49-0.4a1.17,1.17,0,0,1,.51-0.29l0.11-.06a1,1,0,0,0,.28.18,0.3,0.3,0,0,0,.28,0h0.1a0.51,0.51,0,0,0,.33-0.1,1,1,0,0,1,.42-0.11,1.14,1.14,0,0,1,.29,0,0.41,0.41,0,0,0,.27-0.06c0.06,0,.12,0,0.16-0.05a0.79,0.79,0,0,0,.21,0,0.16,0.16,0,0,1,.22,0h0l0,0a0.64,0.64,0,0,1,.34,0,0.77,0.77,0,0,0,.47,0l0.33-.05a1.53,1.53,0,0,1,.44-0.29,0.22,0.22,0,0,1,.2,0,0.76,0.76,0,0,0,.35,0,0.81,0.81,0,0,1,.33,0,0.73,0.73,0,0,0,.31,0,0.85,0.85,0,0,1,.2,0L106.68,52h1a0.93,0.93,0,0,0,.53-0.24,0.33,0.33,0,0,0,.18-0.08,1.88,1.88,0,0,0,.61-0.44,0.38,0.38,0,0,1,.15-0.08A1.23,1.23,0,0,0,109.4,51a1.8,1.8,0,0,0,.58-0.73,0.84,0.84,0,0,0,.16-0.16,1.93,1.93,0,0,0,.47-0.42,1.52,1.52,0,0,0,0-.33,1.5,1.5,0,0,1,0-.44c0-.07.17-0.08,0.06-0.17l0.11-.16a0.44,0.44,0,0,0,.1-0.3,0.3,0.3,0,0,1,0-.27l-0.1-.22c0.13-.08,0-0.15,0-0.22a1.83,1.83,0,0,1-.14-0.22,0.37,0.37,0,0,0-.14-0.21,0.4,0.4,0,0,1-.07-0.39,2.25,2.25,0,0,1,.61-1,2.38,2.38,0,0,1,.54-0.44c0.08-.16.26-0.22,0.34-0.38a0.78,0.78,0,0,1,.35-0.28,0.25,0.25,0,0,0,.1-0.08,2,2,0,0,1,.42-0.37,4.23,4.23,0,0,0,.52-0.63,0.81,0.81,0,0,0,.16-0.22,1,1,0,0,1,.18-0.24c0.06-.07.12-0.14,0.17-0.22s0.08-.16.13-0.25a0.33,0.33,0,0,1,0-.39c0.06-.11.13-0.22,0.19-0.34a3.36,3.36,0,0,1,.2-0.34c0.17-.26.35-0.52,0.52-0.79,0.05-.09.06-0.2,0.12-0.29a1.29,1.29,0,0,1,.33-0.46,1.06,1.06,0,0,1,.29-0.25,0.71,0.71,0,0,0,.28-0.27,0.57,0.57,0,0,1,.17-0.16,2.89,2.89,0,0,0,.58-0.37,0.11,0.11,0,0,1,.09,0,0.27,0.27,0,0,0,.3,0h0a1,1,0,0,1-.47.36,0.49,0.49,0,0,0-.33.21,0.23,0.23,0,0,1-.11.05l-0.07,0a0.35,0.35,0,0,1-.22.22,1.93,1.93,0,0,1-.24.19c-0.08,0-.11.17-0.19,0.22s-0.06.2-.15,0.26a0.83,0.83,0,0,1-.17.43c-0.12.22-.29,0.44-0.44,0.67a0.25,0.25,0,0,0-.07.13,0.64,0.64,0,0,1-.17.38,1.46,1.46,0,0,0-.21.47,0.57,0.57,0,0,1-.15.3,1.22,1.22,0,0,0-.31.48,3.73,3.73,0,0,1-.27.42,1.14,1.14,0,0,1-.29.3c-0.1.11-.22,0.2-0.32,0.3a0.87,0.87,0,0,1-.09,0,1.45,1.45,0,0,0-.29.24c-0.11.16-.26,0.28-0.37,0.43a4.75,4.75,0,0,1-.37.42l-0.54.54a0.92,0.92,0,0,0-.26.44,1,1,0,0,0-.11.35,0.3,0.3,0,0,0,.09.22,0.6,0.6,0,0,1,.18.27,0.83,0.83,0,0,1,.05.35,3.88,3.88,0,0,1,0,.9,0.62,0.62,0,0,0-.26.47,3.48,3.48,0,0,0,0,.37,0.55,0.55,0,0,1-.16.65l-0.27.24a2.08,2.08,0,0,0-.43.53L110,50.8a0.77,0.77,0,0,0-.22.28,1.08,1.08,0,0,0-.26.2,1.29,1.29,0,0,0-.26.22l-0.08,0a1.1,1.1,0,0,1-.32.31,3.43,3.43,0,0,1-.39.2,1,1,0,0,0-.34.22,1.09,1.09,0,0,1-.28.07,2.93,2.93,0,0,0-.49.06,0.14,0.14,0,0,1-.12,0,0.34,0.34,0,0,0-.36,0,0.45,0.45,0,0,1-.17,0,2,2,0,0,1-.37,0c-0.1,0-.17.12-0.28,0s-0.18,0-.26-0.06h-0.13a0.59,0.59,0,0,0-.19,0l-0.19-.05a0.68,0.68,0,0,0-.29.14l-0.1.07a1.71,1.71,0,0,0-.35.11,0.52,0.52,0,0,0-.33.11h0c-0.19.08-.21,0.08-0.31-0.11-0.24,0-.49,0-0.74,0s-0.25.06-.37,0.06-0.12,0-.15,0a0.2,0.2,0,0,0-.27,0c-0.12-.1-0.17.06-0.23,0.09a0.82,0.82,0,0,1-.4.12h-0.39a0.27,0.27,0,0,1-.22-0.07,0.28,0.28,0,0,0-.35,0,1.86,1.86,0,0,0-.31.26,1.65,1.65,0,0,1-.42.32,0.33,0.33,0,0,1-.22.1,4.49,4.49,0,0,0-.52.27l-0.17.1a0.72,0.72,0,0,0-.27.17,1.14,1.14,0,0,1-.25.22,0.14,0.14,0,0,0-.05.18v0a0.28,0.28,0,0,1,0,.19,1.22,1.22,0,0,1-.11.22,4,4,0,0,1-.41.17,0.53,0.53,0,0,1-.22.1c-0.22.15-.53,0.11-0.76,0.26a1.78,1.78,0,0,0-.77.25,0.65,0.65,0,0,0-.31.15,0.53,0.53,0,0,0-.17.27,1,1,0,0,1-.29.4,1,1,0,0,1-.41.27,1.19,1.19,0,0,1-.38,0,0.22,0.22,0,0,0-.26.17,0.22,0.22,0,0,0,0,0,0.61,0.61,0,0,1-.14.22,0.4,0.4,0,0,1-.15.2,0.38,0.38,0,0,0-.13.2C94,57.78,94,57.78,93.78,57.79Zm19.56-14.23v0l0,0a0.08,0.08,0,0,0,0,0,0.25,0.25,0,0,0,.06-0.1l0,0,0,0,0,0s0,0,0,.06h0Z" transform="translate(-42.2 -31.27)"/><path class="cls-5" d="M134.66,49.14v0.19l0,0a1.31,1.31,0,0,0-.67.17,0.78,0.78,0,0,1-.33.1,0.3,0.3,0,0,0-.19.05l-0.35.24a2.8,2.8,0,0,1-.37.26,0.42,0.42,0,0,0-.19.18,0.89,0.89,0,0,1-.35.22c-0.17.1-.38,0.09-0.55,0.2a1.12,1.12,0,0,1-.39.06l-0.27.05h-0.29l-0.09,0a0.31,0.31,0,0,1-.13.06,2.74,2.74,0,0,0-.53.13,1.68,1.68,0,0,0-.6.22,1.27,1.27,0,0,1-.29.12,0.68,0.68,0,0,0-.3.11,0.37,0.37,0,0,0-.3,0,1.35,1.35,0,0,0-.49.09h-0.37a0.24,0.24,0,0,0-.22,0,0.12,0.12,0,0,0-.17,0l0,0a0.08,0.08,0,0,1-.07,0,1.41,1.41,0,0,0-.43,0c-0.11.12-.29,0-0.4,0.11s-0.44.13-.66,0.11h-0.05a1.24,1.24,0,0,1-.64.11l-0.27.06-0.29.07-0.22,0a0.2,0.2,0,0,1-.13,0,1.14,1.14,0,0,0-.54,0l-0.21,0a0.48,0.48,0,0,0-.33,0,0.44,0.44,0,0,0-.35,0,0.1,0.1,0,0,1-.1,0,0.22,0.22,0,0,0-.2,0,0.36,0.36,0,0,0-.21,0,0.17,0.17,0,0,1-.17,0l-1.24,0a0.34,0.34,0,0,0-.3,0h-0.05c-0.1-.06-0.22,0-0.33-0.06a0.22,0.22,0,0,0-.12,0,2.44,2.44,0,0,1-.32,0,3.1,3.1,0,0,1-.63-0.09v-0.1a0.11,0.11,0,0,1,.09-0.13h0a1.67,1.67,0,0,1,.43,0,1.16,1.16,0,0,0,.42.06c0.08,0,.15.11,0.22,0l0.24,0.05h0.79a0.25,0.25,0,0,1,.22,0,0.07,0.07,0,0,0,.07,0,1.63,1.63,0,0,0,.34,0,0.18,0.18,0,0,1,.12,0c0.08,0,.15.06,0.24,0.06s0.13-.1.19,0a1.8,1.8,0,0,1,.32,0,0.68,0.68,0,0,1,.32,0,0.85,0.85,0,0,0,.36,0,1.75,1.75,0,0,0,.46-0.09,0.65,0.65,0,0,0,.37.05,0.63,0.63,0,0,0,.32,0,0.67,0.67,0,0,0,.29-0.05,0.16,0.16,0,0,1,.1,0,1.44,1.44,0,0,0,.68-0.14,1,1,0,0,1,.39-0.07,0.92,0.92,0,0,0,.44-0.06,3.39,3.39,0,0,1,.37-0.07,1.06,1.06,0,0,1,.38,0,2,2,0,0,1,.39,0,0.44,0.44,0,0,0,.17,0c0.26,0,.53-0.09.8-0.12a1.56,1.56,0,0,0,.76-0.26l0.14,0,0.13-.08c0.08,0.06.08,0,.12,0l0.16-.05,0.15,0h0c0.06,0,.06-0.16.18-0.06a0.42,0.42,0,0,0,.21,0l0.22-.05a0.37,0.37,0,0,1,.15,0c0.07,0.09.09-.05,0.15,0h0.18a1.19,1.19,0,0,0,.35-0.06,1.28,1.28,0,0,0,.32-0.06,1.55,1.55,0,0,0,.68-0.4,1.13,1.13,0,0,1,.33-0.22,0.81,0.81,0,0,0,.27-0.18,0.17,0.17,0,0,1,.09,0,0.4,0.4,0,0,0,.24-0.13,0.37,0.37,0,0,1,.29-0.12,1.81,1.81,0,0,0,.55-0.14,0.26,0.26,0,0,1,.22,0A0.22,0.22,0,0,0,134.66,49.14Z" transform="translate(-42.2 -31.27)"/><path class="cls-5" d="M127.81,43.15l0.06-.09a0.38,0.38,0,0,1-.17-0.31,0.16,0.16,0,0,0-.05-0.08l-0.1-.12s0-.1-0.05-0.12a0.14,0.14,0,0,1-.11-0.12,0.15,0.15,0,0,0-.12-0.07A0.4,0.4,0,0,1,127,42a0.38,0.38,0,0,1,0-.19,0.34,0.34,0,0,1,.34.09,1.84,1.84,0,0,1,.63.73,1.51,1.51,0,0,0,.17.37c0.09,0.11.08,0.25,0.18,0.35a0.34,0.34,0,0,1,.06.29,0.72,0.72,0,0,0,.18.56c0.14,0.2.27,0.41,0.42,0.6L129.11,45a0.32,0.32,0,0,1,.06.21,0.73,0.73,0,0,1,.13.16,0.31,0.31,0,0,0,.12.18c0.11,0.1.2,0.22,0.31,0.32a1.21,1.21,0,0,1,.33.57,0.8,0.8,0,0,0,.27.39l0,0a1.2,1.2,0,0,1,.49.17,0.86,0.86,0,0,1,.29.2,1,1,0,0,1,.27.22,0.52,0.52,0,0,1,.21.25,2,2,0,0,0,.66.5,0.31,0.31,0,0,0,.14,0l0.18,0c0.07,0.08.12,0,.17,0a1.8,1.8,0,0,1,.71.13,0.55,0.55,0,0,1,.24.12,0.28,0.28,0,0,0,.23.07h0.21c0.07,0,.11.1,0.18,0a0.36,0.36,0,0,0,.08.09s0.08,0,.12,0a0.54,0.54,0,0,0,.28.08,0.13,0.13,0,0,1,.14.11,0.2,0.2,0,0,1,0,0,0.3,0.3,0,0,1-.31.28,0.11,0.11,0,0,1-.06-0.06,0.48,0.48,0,0,0-.12-0.11,0.35,0.35,0,0,0-.31-0.1,0.78,0.78,0,0,1-.64-0.19,0.37,0.37,0,0,0-.2-0.07,3.05,3.05,0,0,1-.54-0.1,1.13,1.13,0,0,1-.47,0,0.63,0.63,0,0,1-.44-0.16l-0.14-.1-0.2-.16a0.58,0.58,0,0,1-.18-0.2,1.93,1.93,0,0,0-.3-0.28l-0.1-.08a1,1,0,0,0-.67-0.34h0a0.5,0.5,0,0,0-.34-0.27,0.5,0.5,0,0,1-.2-0.31,0.73,0.73,0,0,0-.22-0.44,2.1,2.1,0,0,0-.22-0.25,0.6,0.6,0,0,0-.2-0.21,2.46,2.46,0,0,0-.33-0.55c0-.08-0.17-0.12-0.11-0.24a0.22,0.22,0,0,0-.06-0.08c-0.15-.18-0.3-0.37-0.44-0.55a0.62,0.62,0,0,1-.07-0.21,0.43,0.43,0,0,0,0-.27c0.08-.08,0-0.14,0-0.22s0-.15-0.09-0.15a0.1,0.1,0,0,1,0-.07A0.21,0.21,0,0,0,127.81,43.15Z" transform="translate(-42.2 -31.27)"/><path class="cls-5" d="M163.37,60.83V60.11a0.25,0.25,0,0,0-.16-0.26,1.85,1.85,0,0,1-.42-0.28,0.56,0.56,0,0,0-.2-0.06,1.19,1.19,0,0,0-.06.27,0.42,0.42,0,0,0-.12.14,0.24,0.24,0,0,1-.09.14,2.09,2.09,0,0,0-.37.43,1.61,1.61,0,0,0-.5.5,3.06,3.06,0,0,0-.36.35l-0.06,0-0.27.11a0.25,0.25,0,0,1-.14-0.22,1,1,0,0,0-.36-0.38,0.17,0.17,0,0,1-.17-0.16l0,0a0.78,0.78,0,0,1-.44-0.44,3.1,3.1,0,0,1-.22-0.28,5.29,5.29,0,0,1-.31-0.59,0.86,0.86,0,0,0-.06-0.24,0.73,0.73,0,0,0-.2-0.15,1.67,1.67,0,0,1-.4-0.24,0.49,0.49,0,0,0-.39.06,0.78,0.78,0,0,1-.18.1,0.45,0.45,0,0,1,.05-0.12,0.74,0.74,0,0,0,.17-0.15,0.22,0.22,0,0,1,.17-0.17,0.39,0.39,0,0,1,.35.05l0.11,0a0.81,0.81,0,0,1,.36.27,0.3,0.3,0,0,0,.16.18,0.58,0.58,0,0,1,.18.17,0.44,0.44,0,0,0,.12.39,0.07,0.07,0,0,1,0,0,0.31,0.31,0,0,0,.16.29,2.08,2.08,0,0,0,.24.33,1.75,1.75,0,0,1,.25.33,0.89,0.89,0,0,0,.25.17,0.42,0.42,0,0,1,.25.22,0.54,0.54,0,0,0,.13.15,0.33,0.33,0,0,0,.28-0.12,1.06,1.06,0,0,0,.25-0.29,0.45,0.45,0,0,1,.18-0.13c0.15-.1.27-0.22,0.42-0.32a1,1,0,0,0,.33-0.55v0a2.76,2.76,0,0,0,.15-0.41,0.85,0.85,0,0,1,.08-0.42h0.22a0.26,0.26,0,0,0,.08.19,0.1,0.1,0,0,1,0,.08,0.22,0.22,0,0,0,.11.19,1.6,1.6,0,0,0,.5.47c0.2,0.12.21,0.11,0.14,0.35a0.08,0.08,0,0,0,0,.05,0.7,0.7,0,0,1,0,.38A0.41,0.41,0,0,0,164,61a1.08,1.08,0,0,1,.39,0,1,1,0,0,0,.38,0,0.55,0.55,0,0,0,.35,0,0.51,0.51,0,0,1,.22,0,2.27,2.27,0,0,1,.52-0.08,0.29,0.29,0,0,0,.22,0,0.36,0.36,0,0,1,.18,0L166.56,61a0.13,0.13,0,0,1,.06.06l0.17,0.31h0.44a0.47,0.47,0,0,0,.28-0.08,0.36,0.36,0,0,1,.32-0.06c0.05,0,.13,0,0.07.13s-0.06.18-.24,0.18a0.76,0.76,0,0,0-.32,0c-0.1,0-.21,0-0.32,0a0.84,0.84,0,0,1-.39,0,0.15,0.15,0,0,1-.1-0.07,1.81,1.81,0,0,1-.11-0.27,0.27,0.27,0,0,0-.29-0.23h-0.42a0.88,0.88,0,0,0-.38.1,1.48,1.48,0,0,1-.59.16,0.61,0.61,0,0,1-.3.06l-0.27-.11a3.07,3.07,0,0,1-.51-0.16l-0.1-.06A0.74,0.74,0,0,0,163.37,60.83Z" transform="translate(-42.2 -31.27)"/><path class="cls-5" d="M80.78,55.68H80.54a0.22,0.22,0,0,1,0-.31l0.07-.06a0.48,0.48,0,0,1,.33-0.1,2.16,2.16,0,0,1,.42-0.26l0.11-.06A2,2,0,0,0,82,54.61a0.75,0.75,0,0,1,.36-0.15,0.22,0.22,0,0,0,.12-0.07,1.29,1.29,0,0,1,.73-0.34,1.47,1.47,0,0,0,.41-0.15,2.33,2.33,0,0,1,.6-0.28l0,0a0.85,0.85,0,0,1,.43-0.25,0.83,0.83,0,0,0,.25-0.16c0.15-.13.31-0.24,0.44-0.37l0.25-.25,0.26-.22a1.49,1.49,0,0,1,.27-0.22l0.07,0a0.48,0.48,0,0,1,.19-0.29,1.31,1.31,0,0,1,.21-0.26,1.39,1.39,0,0,0,.26-0.26,0.19,0.19,0,0,1,.08-0.07,3.45,3.45,0,0,0,.49-0.39,1,1,0,0,1,.6-0.3l0.07,0.13a1.74,1.74,0,0,0-.29.21,0.5,0.5,0,0,0-.28.27c-0.14.08-.22,0.2-0.35,0.28a2.53,2.53,0,0,0-.59.63l0,0.07a3.35,3.35,0,0,1-.64.6l-0.08.07c-0.2.18-.39,0.37-0.59,0.54a0.88,0.88,0,0,1-.3.16,1.51,1.51,0,0,0-.36.18,1.75,1.75,0,0,0-.3.16,0.72,0.72,0,0,1-.39.2l-0.06,0a1.73,1.73,0,0,1-.32.17,0.66,0.66,0,0,1-.35.11,2.44,2.44,0,0,0-.73.33,0.83,0.83,0,0,1-.2.1l-0.63.32a0.47,0.47,0,0,0-.14.09,1,1,0,0,1-.4.24A0.32,0.32,0,0,0,80.78,55.68Z" transform="translate(-42.2 -31.27)"/><path class="cls-5" d="M114.74,36.38l0-.18a1.48,1.48,0,0,0,.25-0.32c0.1,0,.09-0.06.08-0.12a0.68,0.68,0,0,1,.06-0.29,1,1,0,0,1,.25-0.44,0.61,0.61,0,0,1,.11-0.32,2.6,2.6,0,0,0,.06-0.35,1.33,1.33,0,0,0,0-.31,1.17,1.17,0,0,1,0-.29,2.21,2.21,0,0,1,.08-0.31l0.09-.3c0.06-.15.1-0.31,0.14-0.47a0.89,0.89,0,0,1,.17-0.28c0.09,0.07,0,.1,0,0.15a5.49,5.49,0,0,1-.16.62,1.63,1.63,0,0,0-.1.72,2,2,0,0,1-.06.67,2.09,2.09,0,0,1-.18.48,2.08,2.08,0,0,0-.13.32A2.07,2.07,0,0,1,114.74,36.38Z" transform="translate(-42.2 -31.27)"/><path class="cls-5" d="M59,64.17c0.06,0.25-.11.31-0.31,0.37a0.19,0.19,0,0,1,0-.09A0.7,0.7,0,0,1,59,64.17Z" transform="translate(-42.2 -31.27)"/><path class="cls-5" d="M58.67,64.66H58.49C58.55,64.55,58.61,64.55,58.67,64.66Z" transform="translate(-42.2 -31.27)"/><path class="cls-5" d="M171.82,63h0.11v0h-0.11v0h0Z" transform="translate(-42.2 -31.27)"/><path class="cls-5" d="M107.59,39.48l0,0,0,0V39.48Z" transform="translate(-42.2 -31.27)"/><path class="cls-5" d="M110.31,58.9v0l0,0,0,0Z" transform="translate(-42.2 -31.27)"/><path class="cls-5" d="M117.08,38.65l0,0,0,0,0,0Z" transform="translate(-42.2 -31.27)"/><path class="cls-5" d="M171.68,62.85l0,0,0,0,0,0Z" transform="translate(-42.2 -31.27)"/><path class="cls-5" d="M59.06,64.12l0,0,0,0,0,0Z" transform="translate(-42.2 -31.27)"/><path class="cls-5" d="M107.59,39.48v0.05l0,0Z" transform="translate(-42.2 -31.27)"/><path class="cls-5" d="M108.17,38.14l0,0,0,0,0,0Z" transform="translate(-42.2 -31.27)"/><path class="cls-5" d="M113.34,43.56l0,0a0.08,0.08,0,0,1,0,0l0,0v0h0Z" transform="translate(-42.2 -31.27)"/><path class="cls-5" d="M113.37,43.49l0,0,0,0,0,0Z" transform="translate(-42.2 -31.27)"/></svg>