<svg id="Background_copy_Image" data-name="Background copy Image" xmlns="http://www.w3.org/2000/svg" viewBox="0 0 131.1 75.78"><defs><style>.cls-1{font-size:30px;letter-spacing:1px;}.cls-1,.cls-3,.cls-5{fill:#fff;}.cls-1,.cls-2,.cls-5{font-family:Retrosans;}.cls-2{font-size:14px;fill:#fdfdfd;}.cls-4{fill:none;stroke:#fff;stroke-width:0.5px;}.cls-5{font-size:8px;}</style></defs><title>logo1</title><text class="cls-1" transform="translate(0 54.22)">EVERGREEN</text><text class="cls-2" transform="translate(1 66.93) scale(1.41 1)">CANNABIS SUPPLY</text><path class="cls-3" d="M475.7,35.83a0.32,0.32,0,0,1,0,.12,3.22,3.22,0,0,1-.3.29,1.4,1.4,0,0,0-.2.2,0.23,0.23,0,0,1-.09.09,0.87,0.87,0,0,0-.38.34,1.81,1.81,0,0,1-.46.36,1.2,1.2,0,0,0-.26.2c-0.08.06-.16,0.13-0.24,0.18l-0.38.22a4.43,4.43,0,0,0-.42.26,0.43,0.43,0,0,0-.26.15c-0.12,0-.15.09-0.22,0.13l-0.26.14a1.39,1.39,0,0,0-.44.25,1.5,1.5,0,0,1-.53.27,0.76,0.76,0,0,0-.24.12,0.38,0.38,0,0,1-.25.1,1.56,1.56,0,0,1-.32.11,1.1,1.1,0,0,1-.46.22,5.75,5.75,0,0,1-.58.32A0.48,0.48,0,0,1,469,40l-0.14,0-0.16,0a0.32,0.32,0,0,0-.19.06l-0.06,0a1.46,1.46,0,0,0-.62.35,4.18,4.18,0,0,0-.37.25l-0.16.13-0.15.09c-0.35.18-.72,0.34-1.08,0.5s-0.76.28-1.15,0.41c-0.08,0-.17,0-0.25,0l-0.32.11c-0.1,0-.22.06-0.33,0.1a1.53,1.53,0,0,0-.42.24,0.24,0.24,0,0,1-.19.06,0.2,0.2,0,0,0-.16.05,2.48,2.48,0,0,1-.74.31A1.35,1.35,0,0,1,462,43L462,43c-0.15.12-.35,0.08-0.51,0.18h-0.08a6,6,0,0,1-1,0,8.22,8.22,0,0,0-1,0,3.1,3.1,0,0,0-.71.12,0.46,0.46,0,0,0-.21.06,0.67,0.67,0,0,1-.2.09,2.62,2.62,0,0,0-.39.14l-0.36.14-0.38.17c-0.12.06-.22,0.12-0.35,0.17a1,1,0,0,1-.35.11l-0.07,0a1.52,1.52,0,0,1-.74.24,2.33,2.33,0,0,0-.46.17c-0.24.11-.49,0.17-0.72,0.3l-0.24.11a1.2,1.2,0,0,1-.34.14,2.15,2.15,0,0,1-.35.12,2,2,0,0,0-.38.17c-0.27.12-.54,0.22-0.82,0.31l-0.09,0c-0.11.08-.25,0.12-0.37,0.2a1.7,1.7,0,0,1-.37.12l-0.5.19a0.5,0.5,0,0,0-.35.19,1.13,1.13,0,0,0-.4.12,2.26,2.26,0,0,0-.33.1l-0.32.05-0.06,0a0.9,0.9,0,0,1-.29.12,1.1,1.1,0,0,0-.5.13,0.73,0.73,0,0,0-.44.08c-0.27.08-.54,0.12-0.8,0.22a2.2,2.2,0,0,1-.5.13c-0.12,0-.22.09-0.35,0.1a1,1,0,0,0-.32.14L446,47.8a0.59,0.59,0,0,0-.34.1,0.72,0.72,0,0,1-.31.07l-0.11.05a2.49,2.49,0,0,1-.82.32,0.37,0.37,0,0,0-.18.06,1.09,1.09,0,0,1-.58.2l-0.19.06c-0.26.08-.51,0.24-0.77,0.3a3.19,3.19,0,0,1-.77.18,1.73,1.73,0,0,0-.47.13,1.86,1.86,0,0,1-.61.18l-0.07,0-0.58.19a1,1,0,0,0-.46.15c-0.06-.08-0.13,0-0.19,0l-0.19,0A0.69,0.69,0,0,0,439,50a0.37,0.37,0,0,0-.3.16s-0.11,0-.15,0a0.34,0.34,0,0,1-.09.14,1.5,1.5,0,0,1-.61.24l-0.13,0-0.13,0a0.89,0.89,0,0,0-.57,0H437c-0.22,0-.46,0-0.69.06l-0.37.06a2.11,2.11,0,0,0-.33.11,0.46,0.46,0,0,1-.19,0,0.42,0.42,0,0,0-.31.14l0,0a1.11,1.11,0,0,0-.54.24,1.17,1.17,0,0,1-.25.08,0.32,0.32,0,0,0-.24.21l-0.07,0a1.1,1.1,0,0,1-.31,0,1,1,0,0,0-.3.1h-0.1a2.64,2.64,0,0,0-.84.19,0.22,0.22,0,0,1-.24,0l-0.06,0C432.12,52,432,52,432,52a1.59,1.59,0,0,0-.47.15l-0.27,0a0.28,0.28,0,0,1-.1.1,1.9,1.9,0,0,0-.58.13c-0.2,0-.37.17-0.58,0.2a1.59,1.59,0,0,0-.44.17c-0.1.05-.19,0-0.3,0.06a7.49,7.49,0,0,1-.71.25,1.08,1.08,0,0,0-.37.14,1.15,1.15,0,0,1-.35.16,2.75,2.75,0,0,1-.6.22,0.39,0.39,0,0,0-.19.1,0.74,0.74,0,0,1-.41.16,4.54,4.54,0,0,0-.53.12l-0.7.22L425,54.3c-0.21,0-.38.15-0.59,0.18a1.62,1.62,0,0,0-.2.09,2.2,2.2,0,0,1-.48.05,2.72,2.72,0,0,0-.66.06,3.9,3.9,0,0,1-.46.11c-0.14,0-.28.1-0.43,0.11a0.84,0.84,0,0,0-.14,0h-0.13c-0.08,0-.07.16-0.18,0.07a0.23,0.23,0,0,0-.18,0,0.76,0.76,0,0,0-.2.1c-0.22,0-.38.15-0.59,0.18s-0.34,0-.51,0l-0.4,0a2,2,0,0,0-.38.1l-0.1,0a2.2,2.2,0,0,0-.62.1,3.68,3.68,0,0,1-.56.06l-0.2,0a0.49,0.49,0,0,0-.18,0,0.26,0.26,0,0,1-.19,0l-0.19,0a3,3,0,0,0-.43.06,0.5,0.5,0,0,1-.19,0,1.34,1.34,0,0,0-.5.07c-0.17,0-.35.1-0.52,0.13a1,1,0,0,0-.22.09,1.7,1.7,0,0,1-.47.14,1.06,1.06,0,0,0-.48.12,0.26,0.26,0,0,1-.12,0h-0.22a4.72,4.72,0,0,0-1.25.16l-0.32.13-0.19,0c0-.1-0.14-0.17,0-0.26s0-.05.06-0.06a1.86,1.86,0,0,1,.57-0.2l0,0a0.31,0.31,0,0,1,.18-0.07l0,0,0.51-.05a1.19,1.19,0,0,0,.29,0,0.75,0.75,0,0,1,.25,0h0.08a1,1,0,0,1,.48-0.12l0.14,0a0.8,0.8,0,0,0,.32-0.11,0.82,0.82,0,0,1,.31-0.14l0.32-.06a2.59,2.59,0,0,1,.43-0.05,2.11,2.11,0,0,1,.44,0,0.52,0.52,0,0,1,.22,0c0.06,0,.17-0.06.26,0a0.47,0.47,0,0,0,.24,0,2,2,0,0,1,.24,0,1.88,1.88,0,0,1,.44,0,3.46,3.46,0,0,0,.77-0.13l0.2,0a0.71,0.71,0,0,0,.4-0.12l0,0c0.11,0.12.22,0,.33,0h0.34a0.57,0.57,0,0,0,.32-0.05c0.1-.06.24,0,0.33-0.08l0.33-.09c0.16-.08.34-0.06,0.49-0.14H422a0.34,0.34,0,0,0,.22-0.07,1.06,1.06,0,0,1,.36-0.14l0.29,0a3.44,3.44,0,0,1,.71-0.05,1.48,1.48,0,0,0,.44-0.07c0.16,0,.33-0.07.5-0.13a1.83,1.83,0,0,1,.5-0.12,1.4,1.4,0,0,0,.32-0.12,0.35,0.35,0,0,0,.31-0.14,1.64,1.64,0,0,0,.32-0.05,2.48,2.48,0,0,0,.73-0.21,0.53,0.53,0,0,0,.34-0.13,2.13,2.13,0,0,1,.34-0.12,1.76,1.76,0,0,0,.34-0.14,9,9,0,0,1,1-.38c0.36-.09.68-0.27,1-0.34a3.44,3.44,0,0,1,.59-0.24c0.19-.09.4-0.13,0.59-0.22a0.14,0.14,0,0,1,.13,0,0.18,0.18,0,0,0,.22,0,1.67,1.67,0,0,1,.22,0,0.31,0.31,0,0,1,.22-0.08,0.69,0.69,0,0,0,.16-0.12,0.92,0.92,0,0,0,.43-0.11l0.42-.14h0.05l0.61-.05a0.17,0.17,0,0,0,.1,0,0.39,0.39,0,0,1,.22-0.08c0.06-.06.18,0,0.18-0.14l0.07,0a0.47,0.47,0,0,0,.31-0.09,1.21,1.21,0,0,0,.37-0.2,0.53,0.53,0,0,1,.26-0.07,1,1,0,0,0,.39-0.15,0.16,0.16,0,0,1,.23,0h0.05a0.51,0.51,0,0,1,.37-0.08h0.08a0.47,0.47,0,0,1,.35-0.1,0.8,0.8,0,0,1,.33-0.06l0,0,0,0c0.06,0,.1.06,0.18,0a0.66,0.66,0,0,1,.22,0,0.49,0.49,0,0,1,.18,0,1.2,1.2,0,0,0,.52,0,0.63,0.63,0,0,0,.38-0.17,0.87,0.87,0,0,1,.49-0.22l0.07,0a0.35,0.35,0,0,1,.31-0.16,0.74,0.74,0,0,0,.2-0.08c0.05,0,.09-0.09.17,0a0.5,0.5,0,0,0,.18-0.08l0.19-.05h0.22c0.12,0,.2-0.11.32-0.12a1,1,0,0,0,.27-0.06l0.28-.09a0.81,0.81,0,0,1,.3-0.12s0.06,0,.09,0a1.38,1.38,0,0,0,.58-0.14l0.29-.07a0.72,0.72,0,0,0,.46-0.16c0.12,0.1.18-.06,0.27-0.06a1,1,0,0,0,.27-0.1,7.39,7.39,0,0,0,.84-0.27c0.28-.14.59-0.18,0.89-0.3s0.57-.19.86-0.28,0.6-.22.89-0.32,0.6-.18.89-0.25a0.66,0.66,0,0,0,.21-0.06,1.65,1.65,0,0,1,.63-0.19,0.62,0.62,0,0,1,.35-0.06c0.05-.07.11,0,0.17,0l0.16-.05a0.42,0.42,0,0,0,.18-0.07,0.33,0.33,0,0,1,.22-0.11,7.61,7.61,0,0,1,.77-0.2,0.43,0.43,0,0,0,.2-0.09,1.55,1.55,0,0,1,.4-0.18,2.72,2.72,0,0,0,.54-0.21,3.46,3.46,0,0,0,.42-0.2,1,1,0,0,1,.38-0.11,0.83,0.83,0,0,0,.22-0.06,4.67,4.67,0,0,1,.46-0.22,4.16,4.16,0,0,1,.64-0.24,0.34,0.34,0,0,0,.13-0.06,0.37,0.37,0,0,1,.15-0.09,2.53,2.53,0,0,0,.73-0.35,1.67,1.67,0,0,1,.44-0.13,0.2,0.2,0,0,0,.16-0.07,0.32,0.32,0,0,1,.22-0.05c0.14-.06.29-0.1,0.43-0.17a0.89,0.89,0,0,1,.31-0.09l0.32-.12a1,1,0,0,0,.26-0.13c0.24-.15.53-0.21,0.77-0.37a0.91,0.91,0,0,0,.45-0.18c0.11,0,.22,0,0.32-0.07s0.28-.1.41-0.15a0.6,0.6,0,0,1,.41-0.08c0.08,0,.12-0.1.2,0s0.14,0,.21,0a0.27,0.27,0,0,0,.22,0,0.2,0.2,0,0,1,.13,0,0.82,0.82,0,0,1,.38,0,0.77,0.77,0,0,1,.34.07,3.28,3.28,0,0,0,.5,0h0.17c0.06,0,.13,0,0.19,0a1.66,1.66,0,0,0,.5-0.12,1.35,1.35,0,0,0,.53-0.19h0A0.7,0.7,0,0,0,463,42.4,5.1,5.1,0,0,1,463.8,42a1.23,1.23,0,0,1,.38-0.16,2.1,2.1,0,0,1,.41-0.1l0.07,0a0.84,0.84,0,0,1,.5-0.14,0.17,0.17,0,0,0,.11-0.05,3,3,0,0,1,.6-0.26c0.12,0,.15-0.15.27-0.11s0.18-.06.27-0.12a0.42,0.42,0,0,0,.23-0.19,0.14,0.14,0,0,1,.11-0.05,3.17,3.17,0,0,0,.88-0.37c0.06,0,0-.13.13-0.12a0.73,0.73,0,0,1,.4-0.25,3.23,3.23,0,0,1,1-.33,0.45,0.45,0,0,0,.29-0.13,0.78,0.78,0,0,1,.29-0.18,1.48,1.48,0,0,0,.47-0.22,0.71,0.71,0,0,1,.21-0.06l0.25-.09a0.62,0.62,0,0,1,.24-0.07,0.2,0.2,0,0,0,.15-0.07,0.64,0.64,0,0,1,.3-0.18,2.7,2.7,0,0,0,.67-0.39l0.09,0,0.37-.2A0.19,0.19,0,0,0,472.6,38a0.13,0.13,0,0,1,.08,0,0.49,0.49,0,0,0,.21-0.06,6.27,6.27,0,0,0,.55-0.39,0.76,0.76,0,0,0,.38-0.24,3.36,3.36,0,0,0,.36-0.28l0.13-.08a0.24,0.24,0,0,0,.21-0.2,0.6,0.6,0,0,1,.19-0.21l0.25-.15a0.51,0.51,0,0,1,.17-0.22l0,0a2.7,2.7,0,0,1,.41-0.6l0.19-.27a5.41,5.41,0,0,0,.3-0.51,0.47,0.47,0,0,1,.27-0.26s0,0,0,0l0,0,0,0v0c0.18-.3.36-0.59,0.55-0.89,0,0,0-.08.07-0.08a0.1,0.1,0,0,0,.08-0.06,0.87,0.87,0,0,1,.34-0.44,3.18,3.18,0,0,0,.37-0.43,0.9,0.9,0,0,1,.16-0.17,1.93,1.93,0,0,0,.35-0.41c0.08-.14.2-0.22,0.28-0.36s0.24-.29.33-0.44,0.17,0,.15-0.14a0.63,0.63,0,0,0,.26-0.26l0-.07a3.48,3.48,0,0,0,.59-0.49,0.12,0.12,0,0,0,0-.06,0.24,0.24,0,0,1,0-.09,0.41,0.41,0,0,1,.22-0.17,0.37,0.37,0,0,1,.13-0.24,0.8,0.8,0,0,0,.26-0.34,0.49,0.49,0,0,1,.12-0.14,3.67,3.67,0,0,0,.53-0.58s0.07,0,.08,0l0.2-.18a0.7,0.7,0,0,1,.22-0.14,0.43,0.43,0,0,0,.12-0.14,1,1,0,0,1,.65-0.42,0.23,0.23,0,0,1,.18,0c0.11,0.08.26,0.07,0.36,0.15a2,2,0,0,0,.36.09,1.25,1.25,0,0,0,.53.12,0.85,0.85,0,0,0,.29,0,4.29,4.29,0,0,1,.56-0.06,0.59,0.59,0,0,1,.34,0,0.13,0.13,0,0,1,.09,0c0.06,0.08.13-.09,0.19,0a0.29,0.29,0,0,0,.2,0,1.38,1.38,0,0,1,.64.11,1.79,1.79,0,0,1,.35.22,0.11,0.11,0,0,1,.05.06c0,0.2.17,0.2,0.27,0.29L487.08,29a0.45,0.45,0,0,0,.19.1,0.58,0.58,0,0,1,.2.11,1.77,1.77,0,0,1,.33.22,1.73,1.73,0,0,1,.34.26l0.09,0.12a0.23,0.23,0,0,0,.09.09,2.18,2.18,0,0,1,.71.44c0.2,0.14.31,0.36,0.5,0.51a1,1,0,0,0,.24.3,2.57,2.57,0,0,1,.31.2,2.8,2.8,0,0,0,.35.18,4.75,4.75,0,0,0,.75.22c0.25,0.06.51,0.06,0.76,0.14a0.84,0.84,0,0,0,.26,0h0.5a2.52,2.52,0,0,1,.4.05h0c0.19,0.22.51,0.22,0.72,0.44a2.61,2.61,0,0,1,.51.76c0.07,0.22.17,0.44,0.26,0.67s0.14,0.36.22,0.54a0.21,0.21,0,0,0,0,0,1.06,1.06,0,0,1,.19.24,1.64,1.64,0,0,0,.18.24,0.81,0.81,0,0,0,.22.22q0.22,0.16.46,0.3a0.84,0.84,0,0,1,.38.28,0.59,0.59,0,0,1,.29.17,1.89,1.89,0,0,1,.29.2,2.45,2.45,0,0,1,.32.18,2.24,2.24,0,0,0,.29.18,1.56,1.56,0,0,1,.44.22h0a1.09,1.09,0,0,1,.44.15,1.61,1.61,0,0,1,.38.22,3.62,3.62,0,0,0,.65.4l0.22,0.12a0.88,0.88,0,0,0,.4.18,0.4,0.4,0,0,1,.15.09,1.09,1.09,0,0,0,.38.16,0.46,0.46,0,0,1,.31.18,0.66,0.66,0,0,0,.22.16c0.07,0.07.15,0.11,0.22,0.18a2.6,2.6,0,0,0,.49.29l0.41,0.33c0.22,0.19.42,0.41,0.65,0.59a3.62,3.62,0,0,1,.38.34,1.2,1.2,0,0,0,.17.22,1.15,1.15,0,0,0,.19.16,0.71,0.71,0,0,1,.1.14,1.63,1.63,0,0,0,.26.26c0.1,0.06.17,0.16,0.27,0.22a3,3,0,0,1,.41.35l0.6,0.54a1.57,1.57,0,0,0,.16.06,0.35,0.35,0,0,0,.09.1,1.26,1.26,0,0,1,.4.44,0.51,0.51,0,0,0,.14.17,6.74,6.74,0,0,1,.46.52c0.19,0.2.37,0.41,0.56,0.61a1,1,0,0,0,.29.19c0.14,0.06.29,0.11,0.44,0.16l0.11,0.05a1.66,1.66,0,0,0,.44.22,0.7,0.7,0,0,0,.38.1,0.13,0.13,0,0,1,.1.08,2.34,2.34,0,0,0,.4.17,1.28,1.28,0,0,1,.55.27,0.32,0.32,0,0,1,.22.22,3.19,3.19,0,0,1,.43.43,1.08,1.08,0,0,1,.31.21c0.28,0.06.48,0.27,0.76,0.35a0.3,0.3,0,0,1,.29.12,0.76,0.76,0,0,1,.29.12c0.13,0.07.27,0.1,0.4,0.19a2,2,0,0,1,.38.22,0.14,0.14,0,0,0,.09,0,1.69,1.69,0,0,1,.51.18,1.24,1.24,0,0,1,.34.2,0.91,0.91,0,0,0,.24.12,1.51,1.51,0,0,0,.59.1,2.89,2.89,0,0,1,.59.11,0.25,0.25,0,0,1,.13.06c0.16,0.16.38,0.22,0.53,0.38a4.79,4.79,0,0,1,.41.34,1.52,1.52,0,0,1,.47.27c0.24,0.15.46,0.34,0.69,0.51l0.33,0.22,0.44,0.27a1.49,1.49,0,0,0,.35.1,0.92,0.92,0,0,0,.43.06,1.91,1.91,0,0,0,.44.1,1,1,0,0,0,.34.05l0.35,0.12a0.44,0.44,0,0,1,.35,0c0.27,0,.51.17,0.77,0.1,0.08,0,.11.12,0.18,0s0.08,0,.15,0a0.25,0.25,0,0,1,.22,0,0.5,0.5,0,0,0,.23,0,0.32,0.32,0,0,1,.19.06,1.19,1.19,0,0,0,.39.15,1.14,1.14,0,0,1,.44.16l0.27,0.11a0.32,0.32,0,0,1,.31,0l0.36,0a6.66,6.66,0,0,1,1,.22l0.22,0.06a2.23,2.23,0,0,1,.78.42l0.34,0.19a0.22,0.22,0,0,1,.2.17,0.05,0.05,0,0,0,0,0,0.87,0.87,0,0,1,.38.17l0.09,0a4.75,4.75,0,0,0,.74.06,3.79,3.79,0,0,1,.39,0,1,1,0,0,0,.26,0c0.08,0,.15,0,0.22,0l0.37-.06a1.77,1.77,0,0,0,.35,0,2.73,2.73,0,0,1,.55-0.06,0.59,0.59,0,0,0,.22,0,0.24,0.24,0,0,1,.18,0,3.06,3.06,0,0,1,.46,0,1.73,1.73,0,0,1,.46.1h0.21a0.35,0.35,0,0,1,.36.09,0.17,0.17,0,0,0,.1,0,0.25,0.25,0,0,1,.26.08l0.07,0,0.59,0.05a0.26,0.26,0,0,1,.12,0c0.13,0.11.31,0.07,0.44,0.16a1.56,1.56,0,0,0,.42.13L534,52.85a1.76,1.76,0,0,0,.77.3,2.59,2.59,0,0,1,.43.17,3.85,3.85,0,0,0,.47.22,1.23,1.23,0,0,1,.29.24,0.63,0.63,0,0,1,.3.19l-0.11.3a0.93,0.93,0,0,1-.41-0.14,3,3,0,0,1-.24-0.18,0.47,0.47,0,0,0-.15-0.09,2.27,2.27,0,0,1-.62-0.3,0.83,0.83,0,0,0-.28-0.08,1.42,1.42,0,0,1-.46-0.17,1.63,1.63,0,0,0-.67-0.25,0.66,0.66,0,0,1-.22-0.08,1.39,1.39,0,0,0-.55-0.14,0.72,0.72,0,0,1-.32-0.05,6.43,6.43,0,0,0-.71-0.2c-0.11,0-.24,0-0.37-0.05a2.49,2.49,0,0,0-.5-0.06,0.67,0.67,0,0,0-.24,0,3.6,3.6,0,0,1-.41,0c-0.06-.08-0.1,0-0.15,0s-0.36,0-.53.06a7.83,7.83,0,0,1-1,.06H528a0.25,0.25,0,0,1-.21,0,0.33,0.33,0,0,0-.17,0,0.7,0.7,0,0,0-.24,0,1,1,0,0,1-.6-0.14c-0.32-.15-0.62-0.33-0.93-0.51a1.11,1.11,0,0,0-.27-0.17,0.94,0.94,0,0,1-.26-0.2,0.27,0.27,0,0,0-.13-0.07c-0.25,0-.46-0.18-0.72-0.18l-0.12,0a1.76,1.76,0,0,0-.58-0.12c-0.18,0-.36-0.09-0.54-0.11a4.5,4.5,0,0,1-.5-0.13c-0.17,0-.33-0.09-0.49-0.14h0a2,2,0,0,0-.94-0.17,2.92,2.92,0,0,1-.73-0.13h-0.13a2.62,2.62,0,0,1-.75-0.17l-0.12,0a2,2,0,0,1-.63-0.13,1.39,1.39,0,0,0-.36-0.08c-0.1,0-.18-0.14-0.28,0L518,49.94l-0.25-.1-0.25-.1a0.37,0.37,0,0,0-.22-0.13,0.55,0.55,0,0,1-.22-0.15,2.59,2.59,0,0,1-.22-0.15c-0.06-.06-0.09-0.11-0.14-0.16L516.55,49c-0.16-.11-0.32-0.21-0.47-0.32a0.44,0.44,0,0,1-.21-0.09l-0.16-.12a0.91,0.91,0,0,0-.22-0.22c-0.06-.08-0.16-0.12-0.22-0.19a1.6,1.6,0,0,0-.31-0.15,0.55,0.55,0,0,0-.34-0.07,0.26,0.26,0,0,1-.13,0,1,1,0,0,0-.42-0.07,1,1,0,0,0-.39-0.14,1.3,1.3,0,0,0-.51-0.29q-0.38-.19-0.78-0.34l-0.09-.1-0.14,0-0.4-.18-0.42-.14a1,1,0,0,1-.48-0.22l-0.07,0a0.56,0.56,0,0,1-.2,0,2,2,0,0,1-.5-0.33,1.43,1.43,0,0,1-.36-0.46,0.22,0.22,0,0,0-.18-0.14,0.25,0.25,0,0,1-.14-0.09,2.11,2.11,0,0,0-.37-0.19,0.61,0.61,0,0,0-.39-0.13l-0.09,0-0.08-.06a0.42,0.42,0,0,1-.29-0.08,1.19,1.19,0,0,0-.24-0.13,3.4,3.4,0,0,0-.6-0.26,1.18,1.18,0,0,0-.44-0.16,0.49,0.49,0,0,0-.21-0.2c-0.06-.08-0.16-0.13-0.22-0.2a1.61,1.61,0,0,1-.18-0.22c-0.05-.08-0.1-0.17-0.15-0.25a2.82,2.82,0,0,0-.33-0.33,2.58,2.58,0,0,1-.28-0.33,1.19,1.19,0,0,0-.4-0.43c-0.27-.16-0.46-0.41-0.72-0.56a1,1,0,0,0-.2-0.21,0.62,0.62,0,0,1-.24-0.19,0.29,0.29,0,0,0-.22-0.14l0,0a0.64,0.64,0,0,0-.25-0.34,4.08,4.08,0,0,0-.33-0.34,1.11,1.11,0,0,1-.22-0.22,0.87,0.87,0,0,0-.22-0.22c-0.22-.2-0.42-0.41-0.65-0.59s-0.22-.21-0.35-0.3l-0.47-.32a1.72,1.72,0,0,1-.29-0.19,1.19,1.19,0,0,0-.62-0.35c0-.1-0.17,0-0.18-0.1S500,38.09,500,38a1,1,0,0,0-.48-0.22,1.45,1.45,0,0,0-.29-0.18,1.44,1.44,0,0,1-.31-0.14,1.69,1.69,0,0,0-.52-0.4,1.36,1.36,0,0,0-.44-0.17h-0.08a0.75,0.75,0,0,0-.35-0.18,1.79,1.79,0,0,0-.36-0.15A0.28,0.28,0,0,1,497,36.5a5.14,5.14,0,0,1-.5-0.33,0.42,0.42,0,0,1-.32-0.22,1,1,0,0,0-.21-0.09,2.3,2.3,0,0,0-.4-0.29c-0.12-.08-0.26-0.14-0.38-0.22a1.42,1.42,0,0,1-.39-0.39,0.2,0.2,0,0,0-.2-0.1,0.59,0.59,0,0,0-.17-0.44s0-.08,0-0.11,0-.21-0.13-0.22l0,0a1,1,0,0,0-.16-0.49c-0.06-.16-0.09-0.33-0.17-0.49s0-.15-0.12-0.17a0.37,0.37,0,0,1-.14-0.19,0.48,0.48,0,0,0-.25-0.23l-0.15-.09a0.79,0.79,0,0,0-.6-0.22,0.42,0.42,0,0,1-.22-0.05c-0.08,0-.13.12-0.22,0a0.39,0.39,0,0,0-.22,0,1.73,1.73,0,0,1-.57-0.1h-0.21L491,32c-0.12-.05-0.26,0-0.39-0.09s-0.27-.08-0.39-0.13-0.22-.13-0.35-0.18a1.87,1.87,0,0,1-.42-0.33,0.44,0.44,0,0,1-.22-0.19,0.52,0.52,0,0,0-.18-0.24c-0.26-.19-0.46-0.46-0.74-0.63a2.72,2.72,0,0,1-.52-0.38c-0.2-.2-0.46-0.32-0.67-0.5L487,29.24c-0.06,0-.06-0.16-0.18-0.13a0.39,0.39,0,0,1-.19-0.11l-0.2-.14a0.87,0.87,0,0,1-.19-0.1,0.22,0.22,0,0,0-.19-0.06,0.67,0.67,0,0,1-.52-0.15,0.69,0.69,0,0,0-.54-0.11,0.14,0.14,0,0,1-.1,0,0.22,0.22,0,0,0-.22,0,1.73,1.73,0,0,1-.8,0,1.44,1.44,0,0,1-.74-0.18,0.19,0.19,0,0,0-.12,0,0.37,0.37,0,0,1-.27-0.06c-0.06,0-.09-0.07-0.15,0a0.14,0.14,0,0,1-.09,0,0.34,0.34,0,0,0-.41.1,1,1,0,0,1-.35.3c-0.09.25-.42,0.29-0.51,0.55a0.82,0.82,0,0,1-.19.16,3.6,3.6,0,0,1-.3.34,1.83,1.83,0,0,0-.27.33,13.49,13.49,0,0,1-1.09,1.21,2.17,2.17,0,0,0-.51.67,1.07,1.07,0,0,1-.2.26,0.16,0.16,0,0,0-.06.13,0.07,0.07,0,0,1,0,.05c-0.15,0-.15.1-0.22,0.17-0.2.22-.39,0.44-0.59,0.65s-0.17.2-.27,0.29a3.56,3.56,0,0,0-.27.3,0.5,0.5,0,0,0-.09.15,1.05,1.05,0,0,1-.3.46,0.82,0.82,0,0,0-.11.16,0.35,0.35,0,0,1-.08.12,0.81,0.81,0,0,0-.31.37,2.93,2.93,0,0,0-.32.53l-0.07.18c0,0.06,0,.12-0.14.11s0,0.06,0,.1l0,0Z" transform="translate(-409.2 -27.45)"/><path class="cls-3" d="M489.56,55.83l0.07-.22a0.55,0.55,0,0,0,0-.3,0.72,0.72,0,0,1-.05-0.16,1.67,1.67,0,0,1,0-.22,1.51,1.51,0,0,1,.48-0.4,0.19,0.19,0,0,1,.12,0,0.15,0.15,0,0,0,.18-0.08c0-.09.1,0.1,0.12,0a0.4,0.4,0,0,1,.1-0.14l0.1-.14a0.45,0.45,0,0,0,.12-0.22,0.55,0.55,0,0,0,.1-0.22,0.13,0.13,0,0,1,.06-0.1,0.5,0.5,0,0,1,.23-0.06,0.39,0.39,0,0,1,.22.12,1.39,1.39,0,0,1,.28.46c0.07,0.17.12,0.34,0.17,0.51a0.75,0.75,0,0,1,.15.28,1.14,1.14,0,0,0,0,.31,0.57,0.57,0,0,0,.18.42,0.44,0.44,0,0,0,.22.22,2.25,2.25,0,0,1,.18.22,0.28,0.28,0,0,0,.17.07l0.5,0.06a0.37,0.37,0,0,0,.33-0.17,0.69,0.69,0,0,1,.25-0.22,0.17,0.17,0,0,1,.18,0,0.15,0.15,0,0,0,.12,0,0.17,0.17,0,0,1,.24,0h0a1.24,1.24,0,0,0,.38.11,4.33,4.33,0,0,0,.56,0,1.29,1.29,0,0,0,.7-0.22l0.18-.18a0.22,0.22,0,0,0,.17-0.15,0.08,0.08,0,0,1,.06,0,1.85,1.85,0,0,0,.44.09c0.15,0.09.28,0.07,0.41,0.16a0.16,0.16,0,0,0,.1,0,0.68,0.68,0,0,1,.29.05c0.07,0,.14.08,0.22,0a0.09,0.09,0,0,1,.08,0,0.84,0.84,0,0,0,.41,0,0.41,0.41,0,0,0,.31-0.18,0.36,0.36,0,0,1,.09-0.09l0.16-.06c0.08-.06.08,0,0.11,0s0.27,0.17.4,0.23,0.17,0,.2.1,0.16,0,.14.15a1.84,1.84,0,0,0,.51.36,0.56,0.56,0,0,1,.31.26,0.44,0.44,0,0,0,.24.19,0.31,0.31,0,0,1,.2.27,0.57,0.57,0,0,0,.16.35,1,1,0,0,0,.14.28l0.27,0.1a0.94,0.94,0,0,1,.33.16,5.15,5.15,0,0,1,.6.52l0.05,0.11a0.39,0.39,0,0,0,.24-0.06,1.13,1.13,0,0,1,.39-0.21,0.84,0.84,0,0,0,.2-0.15l0.2-.08c0-.15.12,0,0.17-0.08a0.44,0.44,0,0,0,.25-0.22,0.59,0.59,0,0,1,.12-0.24,0.93,0.93,0,0,1,.66-0.33c0.12,0,.22,0,0.35,0a1.09,1.09,0,0,0,.35,0,0.48,0.48,0,0,0,.32-0.41,0.67,0.67,0,0,1,.06-0.31,0.77,0.77,0,0,0,.09-0.44,0.34,0.34,0,0,1,0-.22,1.23,1.23,0,0,0,.09-0.2c0.1,0,.06-0.14.16-0.11a1.17,1.17,0,0,1,.38-0.25l0.08-.05a0.32,0.32,0,0,1,.22-0.12l0.17-.1a0.55,0.55,0,0,1,.31-0.15c0-.06.1-0.11,0.14-0.18a0.84,0.84,0,0,1,.22-0.31,0.55,0.55,0,0,0,.18-0.34,0.57,0.57,0,0,1,.26-0.33,0.38,0.38,0,0,1,.4,0,0.3,0.3,0,0,1,.22.19,4.48,4.48,0,0,0,.29.54l0.05,0.08a0.33,0.33,0,0,1,.16.3,1.06,1.06,0,0,1,.18.29,0.65,0.65,0,0,0,.13.18,1.09,1.09,0,0,1,.16.36,0.12,0.12,0,0,1,0,.1,0.22,0.22,0,0,0,0,.22,0.71,0.71,0,0,1,0,.14,0.45,0.45,0,0,0,.19.29,0.84,0.84,0,0,0,.79.1,1.12,1.12,0,0,1,.34,0,5.84,5.84,0,0,0,.82-0.06,1.41,1.41,0,0,1,.68.1l0.19,0.06,0.19,0,0.39,0.14,0.27,0A3,3,0,0,1,514,57a1.05,1.05,0,0,0,.59.41l0.1,0a1.34,1.34,0,0,0,.55.27l0.15,0h0.21c0.18,0,.18,0,0.21.18a0.16,0.16,0,0,0,.05.1,0.91,0.91,0,0,0,.36.07,0.62,0.62,0,0,0,.22-0.08c0.06,0,.06-0.15.12-0.21a2,2,0,0,0,.37-0.59,0.27,0.27,0,0,0,0-.09,0.36,0.36,0,0,1,.18-0.38,0.24,0.24,0,0,0,.09-0.22,0.16,0.16,0,0,1,.08-0.2,0.22,0.22,0,0,1,.28.07,1.52,1.52,0,0,0,.46.41,0.15,0.15,0,0,0,.09,0,1.15,1.15,0,0,1,.38.12,0.67,0.67,0,0,1,.31.25,0.28,0.28,0,0,1,.15.2,0.25,0.25,0,0,0,.18.18l0.19,0.05a0.48,0.48,0,0,1,.36.28,1.16,1.16,0,0,0,.31.3,0.64,0.64,0,0,0,.25,0,0.9,0.9,0,0,1,.34,0,0.54,0.54,0,0,0,.42-0.18l0.37-.24a2,2,0,0,0,.35-0.29,0.31,0.31,0,0,0,.1-0.22,1.14,1.14,0,0,1,.12-0.56c0.05-.15.09-0.31,0.16-0.46s0-.17.12-0.16l0,0c-0.09,0,0-.1,0-0.12s0.22-.32.33-0.47a0.87,0.87,0,0,0,.13-0.18A0.27,0.27,0,0,1,523,55a1.37,1.37,0,0,1,.78.22,1.69,1.69,0,0,0,.61.25,1.48,1.48,0,0,0,1-.06l0.18-.08a0.47,0.47,0,0,0,.22-0.11,0.29,0.29,0,0,1,.15,0,0.48,0.48,0,0,1-.31.22,1.5,1.5,0,0,1-1,.3,1.91,1.91,0,0,1-.86-0.28,1.22,1.22,0,0,0-.44-0.13,0.65,0.65,0,0,1-.22,0,0.28,0.28,0,0,0-.28.16,2.11,2.11,0,0,1-.3.43,1.29,1.29,0,0,0-.13.22,0.46,0.46,0,0,0-.09.25c0,0.12-.12.2-0.11,0.32s-0.15.06,0,.15a1,1,0,0,0-.1.19,0.27,0.27,0,0,1-.06.19,0.37,0.37,0,0,1-.13.29,4.45,4.45,0,0,1-.8.74,0.59,0.59,0,0,1-.36.11,0.94,0.94,0,0,0-.32.06,0.35,0.35,0,0,1-.27,0,0.14,0.14,0,0,0-.2.06h0a1.37,1.37,0,0,0-.25-0.13,1,1,0,0,0-.17-0.2,0.74,0.74,0,0,1-.15-0.3,0.87,0.87,0,0,1-.58-0.2,0.19,0.19,0,0,1-.1-0.17,0.08,0.08,0,0,0,0-.06,1.41,1.41,0,0,0-.49-0.34c-0.2-.05-0.39-0.12-0.58-0.18a0.22,0.22,0,0,0-.19,0,0.53,0.53,0,0,0-.22.17,0.52,0.52,0,0,0-.13.32,0.82,0.82,0,0,0-.11.27,0.41,0.41,0,0,0-.14.26,0.65,0.65,0,0,1-.51.35c-0.07,0-.14,0-0.22.05a0.51,0.51,0,0,1-.5-0.18l0,0a1.44,1.44,0,0,1-.5-0.2,3,3,0,0,1-.5-0.19,1.67,1.67,0,0,1-.67-0.38,0.09,0.09,0,0,0-.06,0,0.2,0.2,0,0,1-.19-0.12,2.31,2.31,0,0,1-.15-0.25c-0.2,0-.37-0.14-0.57-0.16l-0.22-.05-0.11,0a1.52,1.52,0,0,0-.48-0.11l-0.24.05a0.53,0.53,0,0,0-.19,0s-0.12-.06-0.16,0a1.13,1.13,0,0,1-.51,0h-0.53a1.92,1.92,0,0,1-.79-0.26l0,0a1.13,1.13,0,0,1-.16-0.59,0.56,0.56,0,0,0-.05-0.36,1.46,1.46,0,0,0-.22-0.38,0.52,0.52,0,0,1-.09-0.4,1.84,1.84,0,0,1-.43-0.57,0.39,0.39,0,0,0-.09-0.1c-0.13-.13-0.29-0.13-0.32,0a1.59,1.59,0,0,1-.32.5c-0.07.12-.2,0.2-0.28,0.34a0.14,0.14,0,0,1-.15.09,0.11,0.11,0,0,0-.08,0,1.8,1.8,0,0,1-.34.22,2.23,2.23,0,0,1-.36.22l-0.33.24a2.77,2.77,0,0,1-.07.32,1.13,1.13,0,0,0-.06.27,1.18,1.18,0,0,1-.08.28,0.85,0.85,0,0,0-.08.23,0.73,0.73,0,0,1-.11.22,0.84,0.84,0,0,1-.52.46,1.41,1.41,0,0,1-.46.09,0.86,0.86,0,0,0-.35,0,0.61,0.61,0,0,0-.38.28,0.58,0.58,0,0,1-.34.26,0.85,0.85,0,0,0-.28.16,4.59,4.59,0,0,0-.72.49,0.38,0.38,0,0,1-.17.09l-0.27.05a0.21,0.21,0,0,1-.28-0.1v0a0.42,0.42,0,0,0-.16-0.25,2.38,2.38,0,0,0-.87-0.52L501,57.85c-0.11-.09-0.11-0.09-0.09-0.27a0.18,0.18,0,0,0,0-.08,2.42,2.42,0,0,1-.22-0.49,0.15,0.15,0,0,0-.08-0.07,1.31,1.31,0,0,1-.38-0.34,0.62,0.62,0,0,0-.22-0.17,0.22,0.22,0,0,1-.16-0.11s0-.14-0.14-0.1h0a1.45,1.45,0,0,0-.52-0.34,0.54,0.54,0,0,0-.28-0.07l-0.07,0a1.32,1.32,0,0,1-.77.24h-0.08a2.12,2.12,0,0,1-1-.17,0.75,0.75,0,0,0-.75.15c0,0.12-.09.09-0.13,0.12a1.1,1.1,0,0,1-.32.12l-0.24.05h-0.24l-0.14,0a0.48,0.48,0,0,1-.25,0,0.24,0.24,0,0,0-.14-0.05l-0.43-.05-0.07,0a0.24,0.24,0,0,0-.34,0h0l-0.22.17a0.81,0.81,0,0,1-.7.12c-0.07,0-.16.08-0.21,0a0.38,0.38,0,0,1-.25-0.1,1.76,1.76,0,0,1-.27-0.23,0.37,0.37,0,0,1-.22-0.22,0.58,0.58,0,0,1-.27-0.28,0.2,0.2,0,0,1,0-.11,2.35,2.35,0,0,0-.19-0.87,3.56,3.56,0,0,1-.19-0.48,0.13,0.13,0,0,0-.16-0.09,0.13,0.13,0,0,0-.08.07,1.82,1.82,0,0,1-.56.55,0.85,0.85,0,0,1-.3.16A0.59,0.59,0,0,0,490,55l0.11,0.09,0,0.11a0.36,0.36,0,0,0,0,.11l0,0.11s0,0,0,.06a2.33,2.33,0,0,0-.06.24,0.42,0.42,0,0,1-.2.38,1,1,0,0,0-.32.35c-0.14.18-.24,0.4-0.39,0.57a0.5,0.5,0,0,1-.34.23,0.78,0.78,0,0,0-.21.07,0.56,0.56,0,0,1-.29,0,1.41,1.41,0,0,1-.4.05,1,1,0,0,1-.48.05,0.72,0.72,0,0,0-.34.06,2.31,2.31,0,0,0-.54.36l-0.08.08c0,0.25-.09.49-0.05,0.74a1.41,1.41,0,0,1-.42.78,0.18,0.18,0,0,1-.21,0,0.57,0.57,0,0,0-.31,0,1.84,1.84,0,0,1-.44-0.06,0.15,0.15,0,0,1-.16-0.13s-0.1,0-.14,0l-0.07-.09a6.66,6.66,0,0,1-.56-0.43,0.63,0.63,0,0,1-.22-0.46c0-.09,0-0.18,0-0.27a1.22,1.22,0,0,0,0-.27,3.1,3.1,0,0,1-.17-0.38,0.56,0.56,0,0,0-.37-0.22l-0.06,0a0.73,0.73,0,0,0-.46-0.17,0.73,0.73,0,0,1-.31-0.07,1.7,1.7,0,0,1-.31-0.2,0.25,0.25,0,0,0-.2-0.1,0.12,0.12,0,0,1-.1-0.05,0.38,0.38,0,0,0-.31-0.21,1.45,1.45,0,0,1-.22-0.16c-0.1-.09-0.2-0.2-0.3-0.3a3.94,3.94,0,0,0-.71-0.07l-0.27,0-0.12,0a0.79,0.79,0,0,1-.75,0l-0.21-.07a1.31,1.31,0,0,1-.34-0.15,0.63,0.63,0,0,0-.32-0.13,0.56,0.56,0,0,1-.33-0.13,1,1,0,0,1-.29-0.16c0-.06-0.14,0-0.17,0a1.34,1.34,0,0,1-.26.37,0.06,0.06,0,0,0,0,0,1,1,0,0,1-.2.55l-0.06.13-0.12.26a3,3,0,0,0-.3.36,0.44,0.44,0,0,1-.36.18,0.32,0.32,0,0,1,0-.43,0.1,0.1,0,0,0,0,0,1.58,1.58,0,0,1-.46-0.67,0.9,0.9,0,0,0-.16-0.22c-0.06-.08-0.2-0.1-0.16-0.25a0.22,0.22,0,0,0-.08-0.1,0.19,0.19,0,0,1-.08-0.15,0.15,0.15,0,0,0-.07-0.1,1.56,1.56,0,0,1-.29-0.19,0.45,0.45,0,0,0-.37-0.13,0.51,0.51,0,0,0-.54.29,0.78,0.78,0,0,0-.24.24c-0.11,0-.07.12-0.14,0.15a0.18,0.18,0,0,0-.1.2l-0.24.18a2,2,0,0,1-.58.21c-0.15.06-.41,0.15-0.54,0.22a1.86,1.86,0,0,1-.68.26,0.52,0.52,0,0,1-.34-0.08l-0.22-.11a0.12,0.12,0,0,0-.16,0,1.35,1.35,0,0,1-.63.34c-0.05,0-.1.06-0.15,0.07a0.38,0.38,0,0,1-.24,0c-0.08,0-.22,0-0.24-0.15a0.45,0.45,0,0,0-.13-0.21,0.32,0.32,0,0,0-.52,0l-0.08.07a1.24,1.24,0,0,1-.74.44,0.23,0.23,0,0,1-.27,0h-0.1l-0.61-.05a0.22,0.22,0,0,1-.17-0.17,0.28,0.28,0,0,0-.34-0.2l-0.1,0c-0.2.12-.41,0.19-0.62,0.3a5.29,5.29,0,0,1-.62.22,0.89,0.89,0,0,1-.54-0.07,3,3,0,0,1-.32-0.13V56.54a0.29,0.29,0,0,0-.05-0.19,0.25,0.25,0,0,1-.05-0.11,0.69,0.69,0,0,1,0-.1,0.42,0.42,0,0,1-.11-0.22,0.26,0.26,0,0,1,0-.09,0.75,0.75,0,0,0-.11-0.42l-0.08-.18a0.31,0.31,0,0,1,0-.27,0.66,0.66,0,0,0-.1-0.48,0.65,0.65,0,0,0-.18-0.16,0.51,0.51,0,0,0-.14.32,2.16,2.16,0,0,1-.1.33,0.65,0.65,0,0,1-.43.4,1.39,1.39,0,0,1-.67.1,0.42,0.42,0,0,0-.08-0.12,0.55,0.55,0,0,0-.2-0.21,0.36,0.36,0,0,0-.12-0.24,1.41,1.41,0,0,1-.16-0.35,2.31,2.31,0,0,0-.15-0.31L461,54.19a0.17,0.17,0,0,1-.24.05,0.44,0.44,0,0,0-.38.14l-0.21.2a0.77,0.77,0,0,0-.17.13,0.14,0.14,0,0,1-.15.1,0.19,0.19,0,0,0-.13.06,2.08,2.08,0,0,0-.54.66,0.08,0.08,0,0,1,0,0,0.83,0.83,0,0,0-.28.22l-0.38.22a0.18,0.18,0,0,1-.15.08,0.91,0.91,0,0,1-.22-0.08c-0.06,0-.11-0.12-0.17-0.16s-0.17,0-.16-0.11a0.35,0.35,0,0,0-.31,0,0.72,0.72,0,0,0-.29.19l-0.06,0a0.94,0.94,0,0,0-.34.33,1.74,1.74,0,0,1-.12.14,1,1,0,0,0-.26.31,0.14,0.14,0,0,1-.08.06,2.6,2.6,0,0,1-.84.33c-0.05.09-.1-0.06-0.17,0a0.22,0.22,0,0,1-.18.07c-0.18-.06-0.39,0-0.55-0.05a1.2,1.2,0,0,0-.52,0l-0.06,0-0.13.13a0.67,0.67,0,0,1-.26.21l-0.31.09a1.7,1.7,0,0,1-.64-0.07l-0.12,0a4.43,4.43,0,0,1-.56-0.06,0.4,0.4,0,0,0-.35,0,1.88,1.88,0,0,0-.53-0.06,1.31,1.31,0,0,0-.59,0,1,1,0,0,1-.68-0.14,5.73,5.73,0,0,1-.44-0.46,0.3,0.3,0,0,1,0-.14h-0.22l0.06-.14a0.57,0.57,0,0,0-.52-0.18,1.45,1.45,0,0,0-.25.19,0.63,0.63,0,0,0-.11.24,0.22,0.22,0,0,1-.17.13,1.77,1.77,0,0,1-.34.07,0.59,0.59,0,0,0-.32,0,0.22,0.22,0,0,1-.16,0l-0.62-.16a0.31,0.31,0,0,1-.13-0.07,0.93,0.93,0,0,0-.34-0.2L446,56.47a1,1,0,0,0-.38,0,1.6,1.6,0,0,0-.59.22c0,0.08-.18.1-0.13,0.22a1.31,1.31,0,0,0-.47.44v0a0.38,0.38,0,0,1-.44.24,5.46,5.46,0,0,1-.69-0.06,0.67,0.67,0,0,1-.32-0.12,1.6,1.6,0,0,0-.32,0,0.91,0.91,0,0,0-.28-0.09,0.56,0.56,0,0,0-.42.08,0.14,0.14,0,0,1-.09,0,0.62,0.62,0,0,0-.37.13,0.61,0.61,0,0,1-.49.05l0,0c-0.21,0-.4-0.09-0.62,0a1.21,1.21,0,0,1-.22-0.29,0.52,0.52,0,0,0-.41-0.29,2.46,2.46,0,0,0-.48-0.08,1.18,1.18,0,0,1-.79.38l-0.27.05h-0.29a0.33,0.33,0,0,1-.28,0,1.3,1.3,0,0,1-.29-0.06,0.19,0.19,0,0,0-.13,0,0.22,0.22,0,0,1-.2-0.08l-0.09,0V57a0.7,0.7,0,0,1-.37-0.21l-0.19-.16c-0.09,0,0-.17-0.16-0.13a0.32,0.32,0,0,0-.17-0.16,0.63,0.63,0,0,0-.09-0.1l-0.09-.15c-0.06.06-.07,0-0.1,0a0.38,0.38,0,0,0-.15-0.08,0.22,0.22,0,0,1-.17-0.15l0,0-0.5-.57a0.24,0.24,0,0,0-.11,0h-0.08c-0.11,0-.2-0.19-0.33-0.05a0.82,0.82,0,0,0-.37.06,1,1,0,0,1-.36,0l-0.43,0a1.32,1.32,0,0,0-.44.06s0,0,0,0a0.75,0.75,0,0,0-.54.22,0.14,0.14,0,0,1-.17,0,0.84,0.84,0,0,0-.39-0.09l-0.19,0a1.58,1.58,0,0,0-.41.09,2.31,2.31,0,0,0-.33.16,0.13,0.13,0,0,0-.06.11,0.57,0.57,0,0,1-.16.36,1,1,0,0,1-.35.29,0.14,0.14,0,0,0-.06.08l0,0.11a1.35,1.35,0,0,0-.3.22,0.77,0.77,0,0,1-.36.1,0.22,0.22,0,0,0-.15,0,0.62,0.62,0,0,1-.42.08h-0.16a1.12,1.12,0,0,0-.44-0.32h0a0.77,0.77,0,0,0-.6-0.2h-0.09a0.78,0.78,0,0,1-.38.26l-0.07,0a1,1,0,0,1-.53.32s0,0-.08,0a0.36,0.36,0,0,0-.26,0,0.22,0.22,0,0,0-.19.18,2.52,2.52,0,0,1-.49.66,0.56,0.56,0,0,1-.3.09,1,1,0,0,0-.52.1,0.21,0.21,0,0,1-.12,0,0.66,0.66,0,0,1-.06,0c-0.2,0-.39,0-0.58-0.06a2.43,2.43,0,0,1-.72-0.17c-0.09,0-.19-0.06-0.28-0.1a0.4,0.4,0,0,1-.28-0.2,0.14,0.14,0,0,0-.13-0.07,2.28,2.28,0,0,1-.75-0.24,1.06,1.06,0,0,0-.53-0.13,0.19,0.19,0,0,1-.19,0,0.11,0.11,0,0,0-.1,0l-0.43.1a3,3,0,0,0-.41.15,0.34,0.34,0,0,1-.15,0h-1a0.84,0.84,0,0,0-.22.11l-0.44.22a1.85,1.85,0,0,1-.43.17l-0.07,0a6.86,6.86,0,0,0-.77.1,0.22,0.22,0,0,0-.14.05s-0.12,0-.18.08a0.14,0.14,0,0,1-.18,0,0.21,0.21,0,0,0-.18,0,1.22,1.22,0,0,1-.48,0,0.28,0.28,0,0,0-.25,0,0.41,0.41,0,0,0-.11,0h-0.18a0.18,0.18,0,0,1-.14,0,0.32,0.32,0,0,1-.21,0,0.13,0.13,0,0,0-.18,0l0,0a0.32,0.32,0,0,0-.22-0.06,0.78,0.78,0,0,0-.35,0,0.25,0.25,0,0,0-.26.08,0.12,0.12,0,0,1-.09,0h-0.3l-0.05-.1a0.13,0.13,0,0,1,0-.18,0.81,0.81,0,0,1,.34-0.19,0.46,0.46,0,0,1,.38,0l0.32,0.11c0.1,0,.21,0,0.32,0a1.08,1.08,0,0,0,.42,0,0.74,0.74,0,0,0,.4,0,0.29,0.29,0,0,1,.15,0,0.8,0.8,0,0,1,.3,0l0.27,0a1.63,1.63,0,0,0,.67-0.12,2.59,2.59,0,0,1,.44-0.1,1.39,1.39,0,0,0,.7-0.22,0.53,0.53,0,0,1,.3-0.16,1.37,1.37,0,0,0,.28-0.14,0.63,0.63,0,0,1,.49,0h0.08a1.63,1.63,0,0,1,.67,0,1.17,1.17,0,0,0,.43-0.11,1.05,1.05,0,0,1,.35-0.1,0.57,0.57,0,0,1,.38,0,0.56,0.56,0,0,1,.26.06,0.48,0.48,0,0,1,.4.11c0.22,0.1.44,0.16,0.65,0.27a0.49,0.49,0,0,1,.28.1,0.74,0.74,0,0,0,.22.15,2.15,2.15,0,0,0,.41.1c0.09,0,.21,0,0.29.06a0.37,0.37,0,0,0,.19,0,0.49,0.49,0,0,1,.31.07,0.31,0.31,0,0,0,.14,0h0.39a2.57,2.57,0,0,1,.48-0.06,0.41,0.41,0,0,0,.08-0.1c0.07-.07.16-0.13,0.22-0.2a0.54,0.54,0,0,0,.12-0.27,0.4,0.4,0,0,1,.06-0.11,0.54,0.54,0,0,1,.52-0.27,1.08,1.08,0,0,0,.65-0.15l0.18-.14,0.33-.28a0.35,0.35,0,0,1,.4,0c0.17,0.11.35,0.19,0.52,0.28a0.31,0.31,0,0,0,.19.16,1.1,1.1,0,0,0,.24.13,0.42,0.42,0,0,0,.22,0,1.27,1.27,0,0,0,.79-0.26c0.05,0,.09-0.11.14-0.16l0.18-.14a0.77,0.77,0,0,0,.16-0.17,1.38,1.38,0,0,0,.14-0.33,0.62,0.62,0,0,1,.32-0.39,1.48,1.48,0,0,1,.93-0.18,0.36,0.36,0,0,1,.22.08c0.13,0.16.26,0,.36,0a0.5,0.5,0,0,1,.29-0.13l0.08-.06,0.06,0a2.92,2.92,0,0,1,.85,0,0.5,0.5,0,0,0,.27,0,1.27,1.27,0,0,0,.5-0.12,0.25,0.25,0,0,1,.17,0,3.24,3.24,0,0,1,.51.11,0.3,0.3,0,0,1,.21.2,0.77,0.77,0,0,0,.18.24,0.52,0.52,0,0,0,.22.22,0.45,0.45,0,0,1,.13.13,0.24,0.24,0,0,0,.09.09,0.83,0.83,0,0,1,.4.29,4.93,4.93,0,0,1,.46.35,0.47,0.47,0,0,0,.19.17,0.65,0.65,0,0,1,.22.15,0.71,0.71,0,0,0,.49.16,0.26,0.26,0,0,1,.25,0,0.1,0.1,0,0,0,.1,0,0.3,0.3,0,0,1,.24,0,0.39,0.39,0,0,0,.14,0s0.11-.09.17,0l0.13,0,0.22-.06a0.21,0.21,0,0,0,.11-0.05c0.08-.13.22-0.19,0.31-0.31a0.63,0.63,0,0,1,.35.06l0.41,0.15a0.82,0.82,0,0,1,.41.27,0.43,0.43,0,0,0,.12.19,0.78,0.78,0,0,0,.35.12,0.66,0.66,0,0,0,.54-0.05,0.44,0.44,0,0,0,.35-0.11,0.22,0.22,0,0,1,.14-0.05,0.13,0.13,0,0,0,.09,0,0.29,0.29,0,0,1,.33-0.08l0.44,0.08a0.41,0.41,0,0,0,.29.06h0a1.53,1.53,0,0,0,.7.15,0.4,0.4,0,0,0,.49-0.2,0.52,0.52,0,0,1,.25-0.22,0.31,0.31,0,0,0,.09-0.11l0.17-.24a0.94,0.94,0,0,1,.67-0.33,0.68,0.68,0,0,0,.1,0c0.06,0.09.08,0,.13,0l0.12,0a0.22,0.22,0,0,1,.14,0c0.07,0.07.22,0,.24,0.12h0a0.33,0.33,0,0,1,.27,0c0.07,0.09.18,0,.24,0.12a0.35,0.35,0,0,0,.22.1l0.14,0.15a0.93,0.93,0,0,0,.38.12,0.57,0.57,0,0,0,.36,0,3,3,0,0,0,.29-0.05,0.18,0.18,0,0,0,.14-0.1,2.74,2.74,0,0,1,.27-0.42,1.42,1.42,0,0,1,.58-0.18l0.08,0.05a0.78,0.78,0,0,0,.28.15,0.69,0.69,0,0,0,.29.12,0.33,0.33,0,0,1,.13.26A0.59,0.59,0,0,0,450,57l0.22,0.19a0.93,0.93,0,0,0,.62,0l0.09,0a0.21,0.21,0,0,0,.12,0,0.38,0.38,0,0,1,.38,0,0.73,0.73,0,0,0,.23,0,0.33,0.33,0,0,1,.22,0,0.27,0.27,0,0,0,.17,0l0.12,0a1.91,1.91,0,0,1,.3,0,0.33,0.33,0,0,1,.27.05,5.24,5.24,0,0,0,.62.11,0.48,0.48,0,0,0,.41-0.17,1.87,1.87,0,0,0,.33-0.34,0.3,0.3,0,0,1,.22-0.08,1.7,1.7,0,0,1,.78.09,1.47,1.47,0,0,0,.39,0,0.18,0.18,0,0,1,.19,0c0.06,0,.11-0.1.17,0l0.2-.1a1.51,1.51,0,0,0,.35-0.22,3.67,3.67,0,0,1,.29-0.28,1.47,1.47,0,0,0,.25-0.37l0-.06a0.5,0.5,0,0,0,.21-0.12,0.33,0.33,0,0,1,.17-0.16,4.36,4.36,0,0,1,.49-0.16,0.3,0.3,0,0,1,.18.09,3.21,3.21,0,0,1,.32.26,0.13,0.13,0,0,0,.18,0h0a0.45,0.45,0,0,1,.22-0.08,0.21,0.21,0,0,0,.14-0.09,2.52,2.52,0,0,0,.26-0.31,1.24,1.24,0,0,1,.63-0.67,0.78,0.78,0,0,0,.22-0.15,4.64,4.64,0,0,1,.74-0.57,0.4,0.4,0,0,1,.31-0.06c0.22-.2.21-0.19,0.48-0.07a0.44,0.44,0,0,1,.24.29l0.16,0.51c0.09,0.14.18,0.28,0.28,0.42l0.12,0.2a0.57,0.57,0,0,0,.39-0.07,0.44,0.44,0,0,0,.27-0.33c0.1-.29.18-0.59,0.27-0.89l0.08-.16,0.26,0.18L463.6,54a0.36,0.36,0,0,1,.25.22,1.83,1.83,0,0,1,.11.33,1.88,1.88,0,0,1,0,.46,0.18,0.18,0,0,0,.06.13,1.13,1.13,0,0,1,.13.18,0.34,0.34,0,0,1,.08.26,1.2,1.2,0,0,0,.06.44,0.37,0.37,0,0,0,.2.31v0.27a0.13,0.13,0,0,0,.12.14h0.53a0.59,0.59,0,0,0,.22-0.05,2.94,2.94,0,0,0,.54-0.28,2.19,2.19,0,0,1,.4-0.19l0.09,0c0.07-.06.14-0.15,0.22,0s0.17,0,.17.16a0.56,0.56,0,0,0,.12.22,1.3,1.3,0,0,1,.36,0c0.1,0,.22,0,0.35.05a0.37,0.37,0,0,0,.34,0,1,1,0,0,0,.38-0.31,0.92,0.92,0,0,1,.49-0.32c0.09,0,.18.09,0.29,0a0.86,0.86,0,0,1,.4.33,0.28,0.28,0,0,0,.14.14,0.37,0.37,0,0,0,.16,0l0.22-.06a0.46,0.46,0,0,0,.27-0.2,2,2,0,0,1,.18-0.27,0.21,0.21,0,0,1,.28-0.06l0.06,0.06L471,56,471,56.08a0.78,0.78,0,0,0,.26.13l0.42-.14c0.09,0,.17-0.1.26-0.14a0.74,0.74,0,0,1,.34-0.14h0.05l0.15-.08h0.14c0.13,0,.2-0.15.34-0.14a0,0,0,0,0,0,0,0.44,0.44,0,0,1,.22-0.31,0.56,0.56,0,0,1,.17-0.22,0.7,0.7,0,0,0,.16-0.17c0.05,0,0-.15.16-0.12s0-.13.11-0.1a0.43,0.43,0,0,1,.35-0.16,0.79,0.79,0,0,0,.29-0.05,0.62,0.62,0,0,0,.33.07c0.17,0.19.38,0.4,0.56,0.62a1.62,1.62,0,0,1,.15.3,0.36,0.36,0,0,0,.16.18,0.28,0.28,0,0,1,.19.28,0.09,0.09,0,0,0,0,.07l0.33,0.39a0.11,0.11,0,0,0,.16,0l0,0a0.87,0.87,0,0,0,.2-0.31,0.43,0.43,0,0,0,.08-0.22c0-.1,0-0.13.06-0.19a0.49,0.49,0,0,1,.12-0.21,0.19,0.19,0,0,0,.08-0.25h0c0.08,0,.14.05,0.15,0a0.56,0.56,0,0,1,.13-0.24,0.28,0.28,0,0,1,.39-0.07h0a1.8,1.8,0,0,0,.69.36c0.09,0,.12.11,0.21,0.13a0.64,0.64,0,0,0,.28.08,0.15,0.15,0,0,1,.13.06l0.11,0a0.74,0.74,0,0,0,.52,0,1.23,1.23,0,0,0,.46-0.1l0,0,0.39,0.09c0.13,0,.26,0,0.38.08a0.66,0.66,0,0,1,.34.18,1,1,0,0,0,.36.32,3.73,3.73,0,0,1,.8.49,0.28,0.28,0,0,0,.21.08,1.28,1.28,0,0,1,.38.1,1,1,0,0,1,.37.13,1.84,1.84,0,0,1,.57.52,1.11,1.11,0,0,1,.09.31,0.51,0.51,0,0,0,0,.08,1.2,1.2,0,0,1,.06.24,0.51,0.51,0,0,0,.17.41c0.07,0.07.13,0.16,0.2,0.22l0.21,0.17L485,59.1a0.3,0.3,0,0,0,.13.06l0.44,0.05a0.22,0.22,0,0,0,.25-0.17,1.82,1.82,0,0,0,.16-0.91V58.05a0.62,0.62,0,0,1,.39-0.63,4.73,4.73,0,0,1,.63-0.32l0.11,0a6.55,6.55,0,0,0,.77-0.05,3.28,3.28,0,0,0,.83-0.17A0.48,0.48,0,0,0,489,56.5c0.06-.13.15-0.25,0.21-0.39A0.61,0.61,0,0,1,489.56,55.83Z" transform="translate(-409.2 -27.45)"/><path class="cls-3" d="M461.89,54.1a0.89,0.89,0,0,1-.07-0.18,0.17,0.17,0,0,1,0-.17,1.26,1.26,0,0,0,.22-0.25,2.44,2.44,0,0,0,.14-0.31l0,0a0.3,0.3,0,0,1,0-.19,0.84,0.84,0,0,1,.44-0.21c0.09,0,.18-0.1.27,0a0.5,0.5,0,0,0,.41-0.26,0.76,0.76,0,0,0,.22-0.41s0.12,0,.1-0.11,0.09-.05.12-0.1a0.39,0.39,0,0,1,.14-0.1c0.31-.19.67-0.29,1-0.44a2.26,2.26,0,0,0,.48-0.11,2.66,2.66,0,0,0,.59-0.16l0.27-.17a0.89,0.89,0,0,0,0-.14,0.54,0.54,0,0,1,.28-0.57,2,2,0,0,1,.74-0.39,3.94,3.94,0,0,1,.66-0.37c0.17-.12.33-0.26,0.49-0.4a1.17,1.17,0,0,1,.51-0.29l0.11-.06a1,1,0,0,0,.28.18,0.3,0.3,0,0,0,.28,0h0.1a0.51,0.51,0,0,0,.33-0.1,1,1,0,0,1,.42-0.11,1.18,1.18,0,0,1,.29,0,0.41,0.41,0,0,0,.27-0.06c0.05,0,.12,0,0.16-0.05a0.81,0.81,0,0,0,.21,0,0.16,0.16,0,0,1,.22,0h0l0,0a0.63,0.63,0,0,1,.34,0,0.77,0.77,0,0,0,.47,0l0.33-.05a1.54,1.54,0,0,1,.44-0.29,0.23,0.23,0,0,1,.2,0,0.77,0.77,0,0,0,.35,0,0.79,0.79,0,0,1,.33,0,0.75,0.75,0,0,0,.31,0,0.83,0.83,0,0,1,.2,0l0.11,0.05h1a0.93,0.93,0,0,0,.53-0.24,0.34,0.34,0,0,0,.18-0.08,1.88,1.88,0,0,0,.61-0.44,0.38,0.38,0,0,1,.15-0.08,1.23,1.23,0,0,0,.27-0.18,1.8,1.8,0,0,0,.58-0.74,0.85,0.85,0,0,0,.16-0.16,1.92,1.92,0,0,0,.47-0.42,1.53,1.53,0,0,0,0-.33,1.5,1.5,0,0,1,0-.44c0-.07.17-0.08,0.06-0.17l0.11-.16a0.43,0.43,0,0,0,.1-0.3,0.3,0.3,0,0,1,0-.27l-0.1-.22c0.13-.08,0-0.15,0-0.22a1.87,1.87,0,0,1-.14-0.22,0.38,0.38,0,0,0-.14-0.21,0.4,0.4,0,0,1-.07-0.39,2.25,2.25,0,0,1,.61-1,2.37,2.37,0,0,1,.54-0.44c0.08-.16.26-0.22,0.34-0.38a0.77,0.77,0,0,1,.35-0.28,0.26,0.26,0,0,0,.1-0.08,2,2,0,0,1,.42-0.37,4.24,4.24,0,0,0,.52-0.63,0.81,0.81,0,0,0,.16-0.22,1,1,0,0,1,.18-0.24c0.06-.07.12-0.14,0.17-0.22s0.08-.16.13-0.25a0.33,0.33,0,0,1,0-.39c0.06-.11.13-0.22,0.19-0.34a3.34,3.34,0,0,1,.2-0.34c0.17-.26.35-0.52,0.52-0.79,0.05-.09.06-0.2,0.12-0.29a1.28,1.28,0,0,1,.33-0.46,1.05,1.05,0,0,1,.29-0.25,0.72,0.72,0,0,0,.28-0.27,0.58,0.58,0,0,1,.17-0.16,2.85,2.85,0,0,0,.58-0.37,0.11,0.11,0,0,1,.09,0,0.27,0.27,0,0,0,.3,0h0a1,1,0,0,1-.47.36,0.49,0.49,0,0,0-.33.21,0.23,0.23,0,0,1-.11.05l-0.07,0a0.35,0.35,0,0,1-.22.22,1.84,1.84,0,0,1-.24.19c-0.08,0-.11.17-0.19,0.22s-0.06.2-.15,0.26a0.84,0.84,0,0,1-.17.43c-0.12.22-.29,0.44-0.44,0.66a0.25,0.25,0,0,0-.07.13,0.64,0.64,0,0,1-.17.38,1.46,1.46,0,0,0-.21.47,0.58,0.58,0,0,1-.15.3,1.22,1.22,0,0,0-.31.48,3.63,3.63,0,0,1-.27.42,1.14,1.14,0,0,1-.29.3c-0.1.11-.22,0.2-0.32,0.3s-0.06,0-.09,0a1.45,1.45,0,0,0-.29.24c-0.11.16-.26,0.28-0.37,0.43a4.72,4.72,0,0,1-.37.42l-0.54.54a0.92,0.92,0,0,0-.26.44,1,1,0,0,0-.11.35,0.3,0.3,0,0,0,.09.22,0.6,0.6,0,0,1,.18.27,0.83,0.83,0,0,1,.05.35,3.88,3.88,0,0,1,0,.9,0.62,0.62,0,0,0-.26.47,3.45,3.45,0,0,0,0,.37,0.55,0.55,0,0,1-.16.65l-0.27.24a2.08,2.08,0,0,0-.43.53l-0.05.06a0.76,0.76,0,0,0-.22.28,1.06,1.06,0,0,0-.26.2,1.29,1.29,0,0,0-.26.22l-0.08,0a1.1,1.1,0,0,1-.32.31,3.4,3.4,0,0,1-.39.2,1,1,0,0,0-.33.22,1.14,1.14,0,0,1-.28.07,2.89,2.89,0,0,0-.49.06,0.14,0.14,0,0,1-.12,0,0.34,0.34,0,0,0-.36,0,0.47,0.47,0,0,1-.17,0,2.1,2.1,0,0,1-.37,0c-0.1,0-.17.12-0.28,0s-0.18,0-.26-0.06h-0.13a0.58,0.58,0,0,0-.19,0l-0.19-.05a0.7,0.7,0,0,0-.29.14l-0.1.07a1.72,1.72,0,0,0-.35.11,0.51,0.51,0,0,0-.33.11h0c-0.19.08-.21,0.08-0.31-0.11-0.24,0-.49,0-0.74,0s-0.25.06-.37,0.06-0.12,0-.15,0a0.2,0.2,0,0,0-.27,0c-0.12-.1-0.17.06-0.24,0.09a0.83,0.83,0,0,1-.4.12h-0.39a0.27,0.27,0,0,1-.22-0.07,0.28,0.28,0,0,0-.35,0,1.85,1.85,0,0,0-.32.26,1.62,1.62,0,0,1-.42.32,0.33,0.33,0,0,1-.22.09,4.43,4.43,0,0,0-.52.27l-0.17.1a0.72,0.72,0,0,0-.27.17,1.15,1.15,0,0,1-.25.22,0.13,0.13,0,0,0-.05.18v0a0.28,0.28,0,0,1,0,.19,1.2,1.2,0,0,1-.11.22,3.73,3.73,0,0,1-.41.17,0.55,0.55,0,0,1-.22.1c-0.22.15-.53,0.11-0.76,0.26a1.79,1.79,0,0,0-.77.25,0.65,0.65,0,0,0-.31.15,0.53,0.53,0,0,0-.17.27,1.37,1.37,0,0,1-.7.67,1.17,1.17,0,0,1-.38,0,0.22,0.22,0,0,0-.26.17v0a0.61,0.61,0,0,1-.14.22,0.4,0.4,0,0,1-.15.2,0.39,0.39,0,0,0-.13.2C462.07,54.09,462.08,54.09,461.89,54.1Zm19.56-14.23v0l0,0a0.09,0.09,0,0,0,0,0,0.25,0.25,0,0,0,.06-0.1l0,0,0,0,0,0s0,0,0,.05h0Z" transform="translate(-409.2 -27.45)"/><path class="cls-3" d="M502.77,45.44v0.19l0,0a1.31,1.31,0,0,0-.66.17,0.8,0.8,0,0,1-.33.1,0.3,0.3,0,0,0-.19.05l-0.35.24a2.8,2.8,0,0,1-.37.26,0.42,0.42,0,0,0-.19.18,0.9,0.9,0,0,1-.35.22c-0.17.09-.38,0.09-0.55,0.2a1.13,1.13,0,0,1-.39.06l-0.27.05h-0.29l-0.09,0a0.3,0.3,0,0,1-.13.06,2.7,2.7,0,0,0-.53.13,1.67,1.67,0,0,0-.6.22,1.23,1.23,0,0,1-.29.12,0.69,0.69,0,0,0-.3.11,0.37,0.37,0,0,0-.3,0,1.36,1.36,0,0,0-.49.09h-0.37a0.24,0.24,0,0,0-.22,0,0.12,0.12,0,0,0-.17,0l0,0a0.08,0.08,0,0,1-.07,0,1.46,1.46,0,0,0-.43,0c-0.11.12-.29,0-0.4,0.11s-0.44.13-.66,0.11h-0.05a1.23,1.23,0,0,1-.64.11l-0.27.06-0.29.07-0.22,0a0.2,0.2,0,0,1-.13,0,1.14,1.14,0,0,0-.54,0,0.79,0.79,0,0,1-.21,0,0.49,0.49,0,0,0-.33,0,0.44,0.44,0,0,0-.35,0,0.1,0.1,0,0,1-.1,0,0.22,0.22,0,0,0-.2,0,0.36,0.36,0,0,0-.21,0,0.17,0.17,0,0,1-.17,0l-1.24,0a0.34,0.34,0,0,0-.3,0h-0.05c-0.1-.06-0.22,0-0.33-0.06a0.23,0.23,0,0,0-.12,0,2.53,2.53,0,0,1-.32,0,3,3,0,0,1-.63-0.09v-0.1a0.11,0.11,0,0,1,.09-0.13h0a1.65,1.65,0,0,1,.43,0,1.16,1.16,0,0,0,.42.06c0.08,0,.15.11,0.22,0l0.24,0.05h0.79a0.25,0.25,0,0,1,.22,0,0.07,0.07,0,0,0,.07,0,1.57,1.57,0,0,0,.34,0,0.19,0.19,0,0,1,.12,0c0.08,0,.15.06,0.24,0.06s0.13-.1.19,0a1.8,1.8,0,0,1,.32,0,0.68,0.68,0,0,1,.32,0,0.84,0.84,0,0,0,.36,0,1.77,1.77,0,0,0,.46-0.09,0.66,0.66,0,0,0,.37.05,0.62,0.62,0,0,0,.32,0,0.69,0.69,0,0,0,.29-0.05,0.15,0.15,0,0,1,.1,0,1.46,1.46,0,0,0,.68-0.14,1.06,1.06,0,0,1,.39-0.07,0.92,0.92,0,0,0,.44-0.06,3.08,3.08,0,0,1,.37-0.07,1,1,0,0,1,.38,0,2,2,0,0,1,.39,0,0.44,0.44,0,0,0,.17,0c0.26,0,.53-0.09.8-0.12a1.57,1.57,0,0,0,.76-0.26l0.14,0,0.13-.08c0.08,0.06.08,0,.12,0l0.16-.05,0.15,0h0c0.06,0,.06-0.16.18-0.06a0.41,0.41,0,0,0,.21,0l0.22-.05a0.37,0.37,0,0,1,.15,0c0.07,0.09.09-.05,0.15,0h0.18a1.17,1.17,0,0,0,.35-0.06,1.35,1.35,0,0,0,.32-0.06,1.55,1.55,0,0,0,.68-0.4,1.13,1.13,0,0,1,.33-0.22,0.81,0.81,0,0,0,.27-0.18,0.17,0.17,0,0,1,.09,0,0.4,0.4,0,0,0,.24-0.13,0.38,0.38,0,0,1,.29-0.12,1.82,1.82,0,0,0,.55-0.14,0.25,0.25,0,0,1,.22,0A0.22,0.22,0,0,0,502.77,45.44Z" transform="translate(-409.2 -27.45)"/><path class="cls-3" d="M495.92,39.45l0.06-.09a0.38,0.38,0,0,1-.17-0.31,0.17,0.17,0,0,0-.05-0.08l-0.1-.12s0-.1-0.05-0.12a0.14,0.14,0,0,1-.11-0.12,0.15,0.15,0,0,0-.12-0.07,0.4,0.4,0,0,1-.22-0.22,0.38,0.38,0,0,1,0-.19,0.34,0.34,0,0,1,.34.09,1.84,1.84,0,0,1,.63.73,1.52,1.52,0,0,0,.17.37c0.09,0.11.08,0.25,0.18,0.35a0.34,0.34,0,0,1,.06.29,0.71,0.71,0,0,0,.18.56c0.14,0.2.27,0.41,0.42,0.6l0.14,0.15a0.32,0.32,0,0,1,.06.21,0.74,0.74,0,0,1,.13.16,0.31,0.31,0,0,0,.12.18c0.11,0.1.2,0.22,0.31,0.32a1.21,1.21,0,0,1,.33.57,0.81,0.81,0,0,0,.27.39l0,0a1.2,1.2,0,0,1,.49.17,0.86,0.86,0,0,1,.29.2,1,1,0,0,1,.27.22,0.52,0.52,0,0,1,.21.25,2,2,0,0,0,.67.5,0.31,0.31,0,0,0,.14,0,0.62,0.62,0,0,1,.18,0c0.07,0.08.12,0,.17,0a1.78,1.78,0,0,1,.71.13,0.55,0.55,0,0,1,.24.12,0.28,0.28,0,0,0,.23.07h0.21c0.07,0,.11.1,0.18,0a0.36,0.36,0,0,0,.08.09s0.08,0,.12,0A0.56,0.56,0,0,0,503,45a0.12,0.12,0,0,1,.14.11,0.19,0.19,0,0,1,0,0,0.3,0.3,0,0,1-.31.28,0.11,0.11,0,0,1-.06-0.06,0.49,0.49,0,0,0-.12-0.11,0.35,0.35,0,0,0-.31-0.1,0.78,0.78,0,0,1-.64-0.19,0.37,0.37,0,0,0-.21-0.07,3,3,0,0,1-.54-0.1,1.13,1.13,0,0,1-.47,0,0.63,0.63,0,0,1-.44-0.16l-0.14-.1-0.2-.16a0.59,0.59,0,0,1-.18-0.2,1.94,1.94,0,0,0-.3-0.28l-0.1-.08a1,1,0,0,0-.67-0.34h0a0.5,0.5,0,0,0-.34-0.27,0.49,0.49,0,0,1-.2-0.31,0.73,0.73,0,0,0-.22-0.44,2.07,2.07,0,0,0-.22-0.25,0.6,0.6,0,0,0-.2-0.21,2.45,2.45,0,0,0-.33-0.55c0-.08-0.17-0.12-0.11-0.24a0.22,0.22,0,0,0-.06-0.08c-0.15-.18-0.3-0.37-0.44-0.55a0.62,0.62,0,0,1-.07-0.21,0.43,0.43,0,0,0,0-.27c0.08-.08,0-0.14,0-0.22s0-.15-0.09-0.15a0.1,0.1,0,0,1,0-.07A0.21,0.21,0,0,0,495.92,39.45Z" transform="translate(-409.2 -27.45)"/><path class="cls-3" d="M531.49,57.13V56.42a0.25,0.25,0,0,0-.16-0.26,1.83,1.83,0,0,1-.42-0.28,0.55,0.55,0,0,0-.2-0.06,1.18,1.18,0,0,0-.06.27,0.43,0.43,0,0,0-.12.14,0.24,0.24,0,0,1-.09.14,2.07,2.07,0,0,0-.37.43,1.6,1.6,0,0,0-.5.5,3.07,3.07,0,0,0-.36.35l-0.06,0-0.27.1a0.25,0.25,0,0,1-.14-0.22,1,1,0,0,0-.36-0.38,0.17,0.17,0,0,1-.17-0.16l0,0a0.78,0.78,0,0,1-.44-0.44,3,3,0,0,1-.22-0.28,5.14,5.14,0,0,1-.31-0.59,0.86,0.86,0,0,0-.06-0.24,0.72,0.72,0,0,0-.2-0.15,1.67,1.67,0,0,1-.4-0.24,0.49,0.49,0,0,0-.39.07,0.8,0.8,0,0,1-.18.1A0.44,0.44,0,0,1,526,55.1a0.75,0.75,0,0,0,.17-0.15,0.22,0.22,0,0,1,.17-0.17,0.39,0.39,0,0,1,.35.05l0.11,0a0.8,0.8,0,0,1,.36.27,0.3,0.3,0,0,0,.16.18,0.57,0.57,0,0,1,.18.17,0.44,0.44,0,0,0,.12.39l0,0a0.31,0.31,0,0,0,.16.29,2.07,2.07,0,0,0,.24.33,1.74,1.74,0,0,1,.25.33,0.88,0.88,0,0,0,.25.17,0.42,0.42,0,0,1,.25.22,0.54,0.54,0,0,0,.13.15,0.33,0.33,0,0,0,.28-0.12,1.07,1.07,0,0,0,.25-0.29,0.45,0.45,0,0,1,.18-0.13c0.15-.1.27-0.22,0.42-0.32a1,1,0,0,0,.33-0.55v0a2.77,2.77,0,0,0,.15-0.41,0.85,0.85,0,0,1,.08-0.42h0.22a0.26,0.26,0,0,0,.08.19,0.1,0.1,0,0,1,0,.08,0.22,0.22,0,0,0,.11.19,1.58,1.58,0,0,0,.5.47c0.2,0.12.21,0.11,0.14,0.35a0.08,0.08,0,0,0,0,.05,0.69,0.69,0,0,1,0,.38,0.41,0.41,0,0,0,.41.39,1.11,1.11,0,0,1,.39,0,1,1,0,0,0,.38,0,0.56,0.56,0,0,0,.35,0,0.5,0.5,0,0,1,.22,0A2.27,2.27,0,0,1,534,57.2a0.29,0.29,0,0,0,.22,0,0.36,0.36,0,0,1,.18,0l0.27,0.06a0.12,0.12,0,0,1,.06.06l0.17,0.31h0.44a0.48,0.48,0,0,0,.28-0.09,0.36,0.36,0,0,1,.32-0.06c0.05,0,.13,0,0.07.13s-0.06.18-.24,0.18a0.78,0.78,0,0,0-.32,0c-0.1,0-.21,0-0.32,0a0.82,0.82,0,0,1-.39,0,0.15,0.15,0,0,1-.1-0.07,1.82,1.82,0,0,1-.11-0.27,0.27,0.27,0,0,0-.29-0.23h-0.42a0.86,0.86,0,0,0-.38.1,1.48,1.48,0,0,1-.59.16,0.63,0.63,0,0,1-.3.06l-0.27-.11a3.16,3.16,0,0,1-.51-0.16l-0.1-.06A0.74,0.74,0,0,0,531.49,57.13Z" transform="translate(-409.2 -27.45)"/><path class="cls-3" d="M448.9,52h-0.24a0.22,0.22,0,0,1,0-.31l0.07-.06a0.49,0.49,0,0,1,.33-0.1,2.16,2.16,0,0,1,.42-0.26l0.11-.06a2,2,0,0,0,.55-0.27,0.74,0.74,0,0,1,.36-0.15,0.22,0.22,0,0,0,.13-0.07,1.3,1.3,0,0,1,.73-0.34,1.48,1.48,0,0,0,.41-0.15,2.32,2.32,0,0,1,.6-0.28l0,0a0.84,0.84,0,0,1,.43-0.25A0.83,0.83,0,0,0,453,49.5c0.15-.13.31-0.24,0.44-0.37l0.25-.25,0.26-.22a1.47,1.47,0,0,1,.27-0.21l0.07,0a0.48,0.48,0,0,1,.19-0.29,1.31,1.31,0,0,1,.21-0.25,1.44,1.44,0,0,0,.26-0.26,0.19,0.19,0,0,1,.08-0.07,3.51,3.51,0,0,0,.5-0.39,1,1,0,0,1,.6-0.3L456.22,47a1.78,1.78,0,0,0-.29.21,0.5,0.5,0,0,0-.28.27c-0.14.08-.22,0.2-0.36,0.28a2.54,2.54,0,0,0-.59.63l0,0.07a3.4,3.4,0,0,1-.64.6l-0.07.07c-0.2.18-.39,0.37-0.6,0.54a0.89,0.89,0,0,1-.3.16,1.47,1.47,0,0,0-.36.18,1.71,1.71,0,0,0-.3.16,0.72,0.72,0,0,1-.39.2l-0.06,0a1.76,1.76,0,0,1-.32.17,0.65,0.65,0,0,1-.35.11,2.41,2.41,0,0,0-.73.33,0.87,0.87,0,0,1-.2.1l-0.63.32a0.48,0.48,0,0,0-.14.09,1,1,0,0,1-.4.24A0.32,0.32,0,0,0,448.9,52Z" transform="translate(-409.2 -27.45)"/><path class="cls-3" d="M482.86,32.69l0-.18a1.49,1.49,0,0,0,.25-0.32c0.1,0,.09-0.06.08-0.12a0.68,0.68,0,0,1,.06-0.29,1,1,0,0,1,.25-0.44,0.61,0.61,0,0,1,.11-0.32,2.63,2.63,0,0,0,.06-0.35,1.34,1.34,0,0,0,0-.31,1.16,1.16,0,0,1,0-.29,2.18,2.18,0,0,1,.08-0.31c0-.1.07-0.2,0.09-0.3A4.89,4.89,0,0,0,484,29a0.9,0.9,0,0,1,.17-0.28c0.09,0.07,0,.1,0,0.15a5.45,5.45,0,0,1-.16.62,1.63,1.63,0,0,0-.1.72,2,2,0,0,1-.06.67,2.07,2.07,0,0,1-.18.48,2.11,2.11,0,0,0-.13.32A2.08,2.08,0,0,1,482.86,32.69Z" transform="translate(-409.2 -27.45)"/><path class="cls-3" d="M427.14,60.48c0.06,0.25-.11.31-0.31,0.37a0.19,0.19,0,0,1,0-.09A0.7,0.7,0,0,1,427.14,60.48Z" transform="translate(-409.2 -27.45)"/><path class="cls-3" d="M426.79,61h-0.18C426.67,60.85,426.72,60.85,426.79,61Z" transform="translate(-409.2 -27.45)"/><path class="cls-3" d="M539.94,59.28H540v0h-0.11v0h0Z" transform="translate(-409.2 -27.45)"/><path class="cls-3" d="M475.7,35.78l0,0,0,0V35.78Z" transform="translate(-409.2 -27.45)"/><path class="cls-3" d="M478.43,55.21v0l0,0,0,0Z" transform="translate(-409.2 -27.45)"/><path class="cls-3" d="M485.2,35l0,0,0,0,0,0Z" transform="translate(-409.2 -27.45)"/><path class="cls-3" d="M539.8,59.15l0,0,0,0,0,0Z" transform="translate(-409.2 -27.45)"/><path class="cls-3" d="M427.17,60.43l0,0,0,0,0,0Z" transform="translate(-409.2 -27.45)"/><path class="cls-3" d="M475.7,35.78v0.05l0,0Z" transform="translate(-409.2 -27.45)"/><path class="cls-3" d="M476.28,34.44l0,0,0,0,0,0Z" transform="translate(-409.2 -27.45)"/><path class="cls-3" d="M481.46,39.87l0,0a0.08,0.08,0,0,1,0,0l0,0v0h0Z" transform="translate(-409.2 -27.45)"/><path class="cls-3" d="M481.49,39.79l0,0,0,0,0,0Z" transform="translate(-409.2 -27.45)"/><path class="cls-4" d="M475.7,35.83a0.32,0.32,0,0,1,0,.12,3.22,3.22,0,0,1-.3.29,1.4,1.4,0,0,0-.2.2,0.23,0.23,0,0,1-.09.09,0.87,0.87,0,0,0-.38.34,1.81,1.81,0,0,1-.46.36,1.2,1.2,0,0,0-.26.2c-0.08.06-.16,0.13-0.24,0.18l-0.38.22a4.43,4.43,0,0,0-.42.26,0.43,0.43,0,0,0-.26.15c-0.12,0-.15.09-0.22,0.13l-0.26.14a1.39,1.39,0,0,0-.44.25,1.5,1.5,0,0,1-.53.27,0.76,0.76,0,0,0-.24.12,0.38,0.38,0,0,1-.25.1,1.56,1.56,0,0,1-.32.11,1.1,1.1,0,0,1-.46.22,5.75,5.75,0,0,1-.58.32A0.48,0.48,0,0,1,469,40l-0.14,0-0.16,0a0.32,0.32,0,0,0-.19.06l-0.06,0a1.46,1.46,0,0,0-.62.35,4.18,4.18,0,0,0-.37.25l-0.16.13-0.15.09c-0.35.18-.72,0.34-1.08,0.5s-0.76.28-1.15,0.41c-0.08,0-.17,0-0.25,0l-0.32.11c-0.1,0-.22.06-0.33,0.1a1.53,1.53,0,0,0-.42.24,0.24,0.24,0,0,1-.19.06,0.2,0.2,0,0,0-.16.05,2.48,2.48,0,0,1-.74.31A1.35,1.35,0,0,1,462,43L462,43c-0.15.12-.35,0.08-0.51,0.18h-0.08a6,6,0,0,1-1,0,8.22,8.22,0,0,0-1,0,3.1,3.1,0,0,0-.71.12,0.46,0.46,0,0,0-.21.06,0.67,0.67,0,0,1-.2.09,2.62,2.62,0,0,0-.39.14l-0.36.14-0.38.17c-0.12.06-.22,0.12-0.35,0.17a1,1,0,0,1-.35.11l-0.07,0a1.52,1.52,0,0,1-.74.24,2.33,2.33,0,0,0-.46.17c-0.24.11-.49,0.17-0.72,0.3l-0.24.11a1.2,1.2,0,0,1-.34.14,2.15,2.15,0,0,1-.35.12,2,2,0,0,0-.38.17c-0.27.12-.54,0.22-0.82,0.31l-0.09,0c-0.11.08-.25,0.12-0.37,0.2a1.7,1.7,0,0,1-.37.12l-0.5.19a0.5,0.5,0,0,0-.35.19,1.13,1.13,0,0,0-.4.12,2.26,2.26,0,0,0-.33.1l-0.32.05-0.06,0a0.9,0.9,0,0,1-.29.12,1.1,1.1,0,0,0-.5.13,0.73,0.73,0,0,0-.44.08c-0.27.08-.54,0.12-0.8,0.22a2.2,2.2,0,0,1-.5.13c-0.12,0-.22.09-0.35,0.1a1,1,0,0,0-.32.14L446,47.8a0.59,0.59,0,0,0-.34.1,0.72,0.72,0,0,1-.31.07l-0.11.05a2.49,2.49,0,0,1-.82.32,0.37,0.37,0,0,0-.18.06,1.09,1.09,0,0,1-.58.2l-0.19.06c-0.26.08-.51,0.24-0.77,0.3a3.19,3.19,0,0,1-.77.18,1.73,1.73,0,0,0-.47.13,1.86,1.86,0,0,1-.61.18l-0.07,0-0.58.19a1,1,0,0,0-.46.15c-0.06-.08-0.13,0-0.19,0l-0.19,0A0.69,0.69,0,0,0,439,50a0.37,0.37,0,0,0-.3.16s-0.11,0-.15,0a0.34,0.34,0,0,1-.09.14,1.5,1.5,0,0,1-.61.24l-0.13,0-0.13,0a0.89,0.89,0,0,0-.57,0H437c-0.22,0-.46,0-0.69.06l-0.37.06a2.11,2.11,0,0,0-.33.11,0.46,0.46,0,0,1-.19,0,0.42,0.42,0,0,0-.31.14l0,0a1.11,1.11,0,0,0-.54.24,1.17,1.17,0,0,1-.25.08,0.32,0.32,0,0,0-.24.21l-0.07,0a1.1,1.1,0,0,1-.31,0,1,1,0,0,0-.3.1h-0.1a2.64,2.64,0,0,0-.84.19,0.22,0.22,0,0,1-.24,0l-0.06,0C432.12,52,432,52,432,52a1.59,1.59,0,0,0-.47.15l-0.27,0a0.28,0.28,0,0,1-.1.1,1.9,1.9,0,0,0-.58.13c-0.2,0-.37.17-0.58,0.2a1.59,1.59,0,0,0-.44.17c-0.1.05-.19,0-0.3,0.06a7.49,7.49,0,0,1-.71.25,1.08,1.08,0,0,0-.37.14,1.15,1.15,0,0,1-.35.16,2.75,2.75,0,0,1-.6.22,0.39,0.39,0,0,0-.19.1,0.74,0.74,0,0,1-.41.16,4.54,4.54,0,0,0-.53.12l-0.7.22L425,54.3c-0.21,0-.38.15-0.59,0.18a1.62,1.62,0,0,0-.2.09,2.2,2.2,0,0,1-.48.05,2.72,2.72,0,0,0-.66.06,3.9,3.9,0,0,1-.46.11c-0.14,0-.28.1-0.43,0.11a0.84,0.84,0,0,0-.14,0h-0.13c-0.08,0-.07.16-0.18,0.07a0.23,0.23,0,0,0-.18,0,0.76,0.76,0,0,0-.2.1c-0.22,0-.38.15-0.59,0.18s-0.34,0-.51,0l-0.4,0a2,2,0,0,0-.38.1l-0.1,0a2.2,2.2,0,0,0-.62.1,3.68,3.68,0,0,1-.56.06l-0.2,0a0.49,0.49,0,0,0-.18,0,0.26,0.26,0,0,1-.19,0l-0.19,0a3,3,0,0,0-.43.06,0.5,0.5,0,0,1-.19,0,1.34,1.34,0,0,0-.5.07c-0.17,0-.35.1-0.52,0.13a1,1,0,0,0-.22.09,1.7,1.7,0,0,1-.47.14,1.06,1.06,0,0,0-.48.12,0.26,0.26,0,0,1-.12,0h-0.22a4.72,4.72,0,0,0-1.25.16l-0.32.13-0.19,0c0-.1-0.14-0.17,0-0.26s0-.05.06-0.06a1.86,1.86,0,0,1,.57-0.2l0,0a0.31,0.31,0,0,1,.18-0.07l0,0,0.51-.05a1.19,1.19,0,0,0,.29,0,0.75,0.75,0,0,1,.25,0h0.08a1,1,0,0,1,.48-0.12l0.14,0a0.8,0.8,0,0,0,.32-0.11,0.82,0.82,0,0,1,.31-0.14l0.32-.06a2.59,2.59,0,0,1,.43-0.05,2.11,2.11,0,0,1,.44,0,0.52,0.52,0,0,1,.22,0c0.06,0,.17-0.06.26,0a0.47,0.47,0,0,0,.24,0,2,2,0,0,1,.24,0,1.88,1.88,0,0,1,.44,0,3.46,3.46,0,0,0,.77-0.13l0.2,0a0.71,0.71,0,0,0,.4-0.12l0,0c0.11,0.12.22,0,.33,0h0.34a0.57,0.57,0,0,0,.32-0.05c0.1-.06.24,0,0.33-0.08l0.33-.09c0.16-.08.34-0.06,0.49-0.14H422a0.34,0.34,0,0,0,.22-0.07,1.06,1.06,0,0,1,.36-0.14l0.29,0a3.44,3.44,0,0,1,.71-0.05,1.48,1.48,0,0,0,.44-0.07c0.16,0,.33-0.07.5-0.13a1.83,1.83,0,0,1,.5-0.12,1.4,1.4,0,0,0,.32-0.12,0.35,0.35,0,0,0,.31-0.14,1.64,1.64,0,0,0,.32-0.05,2.48,2.48,0,0,0,.73-0.21,0.53,0.53,0,0,0,.34-0.13,2.13,2.13,0,0,1,.34-0.12,1.76,1.76,0,0,0,.34-0.14,9,9,0,0,1,1-.38c0.36-.09.68-0.27,1-0.34a3.44,3.44,0,0,1,.59-0.24c0.19-.09.4-0.13,0.59-0.22a0.14,0.14,0,0,1,.13,0,0.18,0.18,0,0,0,.22,0,1.67,1.67,0,0,1,.22,0,0.31,0.31,0,0,1,.22-0.08,0.69,0.69,0,0,0,.16-0.12,0.92,0.92,0,0,0,.43-0.11l0.42-.14h0.05l0.61-.05a0.17,0.17,0,0,0,.1,0,0.39,0.39,0,0,1,.22-0.08c0.06-.06.18,0,0.18-0.14l0.07,0a0.47,0.47,0,0,0,.31-0.09,1.21,1.21,0,0,0,.37-0.2,0.53,0.53,0,0,1,.26-0.07,1,1,0,0,0,.39-0.15,0.16,0.16,0,0,1,.23,0h0.05a0.51,0.51,0,0,1,.37-0.08h0.08a0.47,0.47,0,0,1,.35-0.1,0.8,0.8,0,0,1,.33-0.06l0,0,0,0c0.06,0,.1.06,0.18,0a0.66,0.66,0,0,1,.22,0,0.49,0.49,0,0,1,.18,0,1.2,1.2,0,0,0,.52,0,0.63,0.63,0,0,0,.38-0.17,0.87,0.87,0,0,1,.49-0.22l0.07,0a0.35,0.35,0,0,1,.31-0.16,0.74,0.74,0,0,0,.2-0.08c0.05,0,.09-0.09.17,0a0.5,0.5,0,0,0,.18-0.08l0.19-.05h0.22c0.12,0,.2-0.11.32-0.12a1,1,0,0,0,.27-0.06l0.28-.09a0.81,0.81,0,0,1,.3-0.12s0.06,0,.09,0a1.38,1.38,0,0,0,.58-0.14l0.29-.07a0.72,0.72,0,0,0,.46-0.16c0.12,0.1.18-.06,0.27-0.06a1,1,0,0,0,.27-0.1,7.39,7.39,0,0,0,.84-0.27c0.28-.14.59-0.18,0.89-0.3s0.57-.19.86-0.28,0.6-.22.89-0.32,0.6-.18.89-0.25a0.66,0.66,0,0,0,.21-0.06,1.65,1.65,0,0,1,.63-0.19,0.62,0.62,0,0,1,.35-0.06c0.05-.07.11,0,0.17,0l0.16-.05a0.42,0.42,0,0,0,.18-0.07,0.33,0.33,0,0,1,.22-0.11,7.61,7.61,0,0,1,.77-0.2,0.43,0.43,0,0,0,.2-0.09,1.55,1.55,0,0,1,.4-0.18,2.72,2.72,0,0,0,.54-0.21,3.46,3.46,0,0,0,.42-0.2,1,1,0,0,1,.38-0.11,0.83,0.83,0,0,0,.22-0.06,4.67,4.67,0,0,1,.46-0.22,4.16,4.16,0,0,1,.64-0.24,0.34,0.34,0,0,0,.13-0.06,0.37,0.37,0,0,1,.15-0.09,2.53,2.53,0,0,0,.73-0.35,1.67,1.67,0,0,1,.44-0.13,0.2,0.2,0,0,0,.16-0.07,0.32,0.32,0,0,1,.22-0.05c0.14-.06.29-0.1,0.43-0.17a0.89,0.89,0,0,1,.31-0.09l0.32-.12a1,1,0,0,0,.26-0.13c0.24-.15.53-0.21,0.77-0.37a0.91,0.91,0,0,0,.45-0.18c0.11,0,.22,0,0.32-0.07s0.28-.1.41-0.15a0.6,0.6,0,0,1,.41-0.08c0.08,0,.12-0.1.2,0s0.14,0,.21,0a0.27,0.27,0,0,0,.22,0,0.2,0.2,0,0,1,.13,0,0.82,0.82,0,0,1,.38,0,0.77,0.77,0,0,1,.34.07,3.28,3.28,0,0,0,.5,0h0.17c0.06,0,.13,0,0.19,0a1.66,1.66,0,0,0,.5-0.12,1.35,1.35,0,0,0,.53-0.19h0A0.7,0.7,0,0,0,463,42.4,5.1,5.1,0,0,1,463.8,42a1.23,1.23,0,0,1,.38-0.16,2.1,2.1,0,0,1,.41-0.1l0.07,0a0.84,0.84,0,0,1,.5-0.14,0.17,0.17,0,0,0,.11-0.05,3,3,0,0,1,.6-0.26c0.12,0,.15-0.15.27-0.11s0.18-.06.27-0.12a0.42,0.42,0,0,0,.23-0.19,0.14,0.14,0,0,1,.11-0.05,3.17,3.17,0,0,0,.88-0.37c0.06,0,0-.13.13-0.12a0.73,0.73,0,0,1,.4-0.25,3.23,3.23,0,0,1,1-.33,0.45,0.45,0,0,0,.29-0.13,0.78,0.78,0,0,1,.29-0.18,1.48,1.48,0,0,0,.47-0.22,0.71,0.71,0,0,1,.21-0.06l0.25-.09a0.62,0.62,0,0,1,.24-0.07,0.2,0.2,0,0,0,.15-0.07,0.64,0.64,0,0,1,.3-0.18,2.7,2.7,0,0,0,.67-0.39l0.09,0,0.37-.2A0.19,0.19,0,0,0,472.6,38a0.13,0.13,0,0,1,.08,0,0.49,0.49,0,0,0,.21-0.06,6.27,6.27,0,0,0,.55-0.39,0.76,0.76,0,0,0,.38-0.24,3.36,3.36,0,0,0,.36-0.28l0.13-.08a0.24,0.24,0,0,0,.21-0.2,0.6,0.6,0,0,1,.19-0.21l0.25-.15a0.51,0.51,0,0,1,.17-0.22l0,0a2.7,2.7,0,0,1,.41-0.6l0.19-.27a5.41,5.41,0,0,0,.3-0.51,0.47,0.47,0,0,1,.27-0.26s0,0,0,0l0,0,0,0v0c0.18-.3.36-0.59,0.55-0.89,0,0,0-.08.07-0.08a0.1,0.1,0,0,0,.08-0.06,0.87,0.87,0,0,1,.34-0.44,3.18,3.18,0,0,0,.37-0.43,0.9,0.9,0,0,1,.16-0.17,1.93,1.93,0,0,0,.35-0.41c0.08-.14.2-0.22,0.28-0.36s0.24-.29.33-0.44,0.17,0,.15-0.14a0.63,0.63,0,0,0,.26-0.26l0-.07a3.48,3.48,0,0,0,.59-0.49,0.12,0.12,0,0,0,0-.06,0.24,0.24,0,0,1,0-.09,0.41,0.41,0,0,1,.22-0.17,0.37,0.37,0,0,1,.13-0.24,0.8,0.8,0,0,0,.26-0.34,0.49,0.49,0,0,1,.12-0.14,3.67,3.67,0,0,0,.53-0.58s0.07,0,.08,0l0.2-.18a0.7,0.7,0,0,1,.22-0.14,0.43,0.43,0,0,0,.12-0.14,1,1,0,0,1,.65-0.42,0.23,0.23,0,0,1,.18,0c0.11,0.08.26,0.07,0.36,0.15a2,2,0,0,0,.36.09,1.25,1.25,0,0,0,.53.12,0.85,0.85,0,0,0,.29,0,4.29,4.29,0,0,1,.56-0.06,0.59,0.59,0,0,1,.34,0,0.13,0.13,0,0,1,.09,0c0.06,0.08.13-.09,0.19,0a0.29,0.29,0,0,0,.2,0,1.38,1.38,0,0,1,.64.11,1.79,1.79,0,0,1,.35.22,0.11,0.11,0,0,1,.05.06c0,0.2.17,0.2,0.27,0.29L487.08,29a0.45,0.45,0,0,0,.19.1,0.58,0.58,0,0,1,.2.11,1.77,1.77,0,0,1,.33.22,1.73,1.73,0,0,1,.34.26l0.09,0.12a0.23,0.23,0,0,0,.09.09,2.18,2.18,0,0,1,.71.44c0.2,0.14.31,0.36,0.5,0.51a1,1,0,0,0,.24.3,2.57,2.57,0,0,1,.31.2,2.8,2.8,0,0,0,.35.18,4.75,4.75,0,0,0,.75.22c0.25,0.06.51,0.06,0.76,0.14a0.84,0.84,0,0,0,.26,0h0.5a2.52,2.52,0,0,1,.4.05h0c0.19,0.22.51,0.22,0.72,0.44a2.61,2.61,0,0,1,.51.76c0.07,0.22.17,0.44,0.26,0.67s0.14,0.36.22,0.54a0.21,0.21,0,0,0,0,0,1.06,1.06,0,0,1,.19.24,1.64,1.64,0,0,0,.18.24,0.81,0.81,0,0,0,.22.22q0.22,0.16.46,0.3a0.84,0.84,0,0,1,.38.28,0.59,0.59,0,0,1,.29.17,1.89,1.89,0,0,1,.29.2,2.45,2.45,0,0,1,.32.18,2.24,2.24,0,0,0,.29.18,1.56,1.56,0,0,1,.44.22h0a1.09,1.09,0,0,1,.44.15,1.61,1.61,0,0,1,.38.22,3.62,3.62,0,0,0,.65.4l0.22,0.12a0.88,0.88,0,0,0,.4.18,0.4,0.4,0,0,1,.15.09,1.09,1.09,0,0,0,.38.16,0.46,0.46,0,0,1,.31.18,0.66,0.66,0,0,0,.22.16c0.07,0.07.15,0.11,0.22,0.18a2.6,2.6,0,0,0,.49.29l0.41,0.33c0.22,0.19.42,0.41,0.65,0.59a3.62,3.62,0,0,1,.38.34,1.2,1.2,0,0,0,.17.22,1.15,1.15,0,0,0,.19.16,0.71,0.71,0,0,1,.1.14,1.63,1.63,0,0,0,.26.26c0.1,0.06.17,0.16,0.27,0.22a3,3,0,0,1,.41.35l0.6,0.54a1.57,1.57,0,0,0,.16.06,0.35,0.35,0,0,0,.09.1,1.26,1.26,0,0,1,.4.44,0.51,0.51,0,0,0,.14.17,6.74,6.74,0,0,1,.46.52c0.19,0.2.37,0.41,0.56,0.61a1,1,0,0,0,.29.19c0.14,0.06.29,0.11,0.44,0.16l0.11,0.05a1.66,1.66,0,0,0,.44.22,0.7,0.7,0,0,0,.38.1,0.13,0.13,0,0,1,.1.08,2.34,2.34,0,0,0,.4.17,1.28,1.28,0,0,1,.55.27,0.32,0.32,0,0,1,.22.22,3.19,3.19,0,0,1,.43.43,1.08,1.08,0,0,1,.31.21c0.28,0.06.48,0.27,0.76,0.35a0.3,0.3,0,0,1,.29.12,0.76,0.76,0,0,1,.29.12c0.13,0.07.27,0.1,0.4,0.19a2,2,0,0,1,.38.22,0.14,0.14,0,0,0,.09,0,1.69,1.69,0,0,1,.51.18,1.24,1.24,0,0,1,.34.2,0.91,0.91,0,0,0,.24.12,1.51,1.51,0,0,0,.59.1,2.89,2.89,0,0,1,.59.11,0.25,0.25,0,0,1,.13.06c0.16,0.16.38,0.22,0.53,0.38a4.79,4.79,0,0,1,.41.34,1.52,1.52,0,0,1,.47.27c0.24,0.15.46,0.34,0.69,0.51l0.33,0.22,0.44,0.27a1.49,1.49,0,0,0,.35.1,0.92,0.92,0,0,0,.43.06,1.91,1.91,0,0,0,.44.1,1,1,0,0,0,.34.05l0.35,0.12a0.44,0.44,0,0,1,.35,0c0.27,0,.51.17,0.77,0.1,0.08,0,.11.12,0.18,0s0.08,0,.15,0a0.25,0.25,0,0,1,.22,0,0.5,0.5,0,0,0,.23,0,0.32,0.32,0,0,1,.19.06,1.19,1.19,0,0,0,.39.15,1.14,1.14,0,0,1,.44.16l0.27,0.11a0.32,0.32,0,0,1,.31,0l0.36,0a6.66,6.66,0,0,1,1,.22l0.22,0.06a2.23,2.23,0,0,1,.78.42l0.34,0.19a0.22,0.22,0,0,1,.2.17,0.05,0.05,0,0,0,0,0,0.87,0.87,0,0,1,.38.17l0.09,0a4.75,4.75,0,0,0,.74.06,3.79,3.79,0,0,1,.39,0,1,1,0,0,0,.26,0c0.08,0,.15,0,0.22,0l0.37-.06a1.77,1.77,0,0,0,.35,0,2.73,2.73,0,0,1,.55-0.06,0.59,0.59,0,0,0,.22,0,0.24,0.24,0,0,1,.18,0,3.06,3.06,0,0,1,.46,0,1.73,1.73,0,0,1,.46.1h0.21a0.35,0.35,0,0,1,.36.09,0.17,0.17,0,0,0,.1,0,0.25,0.25,0,0,1,.26.08l0.07,0,0.59,0.05a0.26,0.26,0,0,1,.12,0c0.13,0.11.31,0.07,0.44,0.16a1.56,1.56,0,0,0,.42.13L534,52.85a1.76,1.76,0,0,0,.77.3,2.59,2.59,0,0,1,.43.17,3.85,3.85,0,0,0,.47.22,1.23,1.23,0,0,1,.29.24,0.63,0.63,0,0,1,.3.19l-0.11.3a0.93,0.93,0,0,1-.41-0.14,3,3,0,0,1-.24-0.18,0.47,0.47,0,0,0-.15-0.09,2.27,2.27,0,0,1-.62-0.3,0.83,0.83,0,0,0-.28-0.08,1.42,1.42,0,0,1-.46-0.17,1.63,1.63,0,0,0-.67-0.25,0.66,0.66,0,0,1-.22-0.08,1.39,1.39,0,0,0-.55-0.14,0.72,0.72,0,0,1-.32-0.05,6.43,6.43,0,0,0-.71-0.2c-0.11,0-.24,0-0.37-0.05a2.49,2.49,0,0,0-.5-0.06,0.67,0.67,0,0,0-.24,0,3.6,3.6,0,0,1-.41,0c-0.06-.08-0.1,0-0.15,0s-0.36,0-.53.06a7.83,7.83,0,0,1-1,.06H528a0.25,0.25,0,0,1-.21,0,0.33,0.33,0,0,0-.17,0,0.7,0.7,0,0,0-.24,0,1,1,0,0,1-.6-0.14c-0.32-.15-0.62-0.33-0.93-0.51a1.11,1.11,0,0,0-.27-0.17,0.94,0.94,0,0,1-.26-0.2,0.27,0.27,0,0,0-.13-0.07c-0.25,0-.46-0.18-0.72-0.18l-0.12,0a1.76,1.76,0,0,0-.58-0.12c-0.18,0-.36-0.09-0.54-0.11a4.5,4.5,0,0,1-.5-0.13c-0.17,0-.33-0.09-0.49-0.14h0a2,2,0,0,0-.94-0.17,2.92,2.92,0,0,1-.73-0.13h-0.13a2.62,2.62,0,0,1-.75-0.17l-0.12,0a2,2,0,0,1-.63-0.13,1.39,1.39,0,0,0-.36-0.08c-0.1,0-.18-0.14-0.28,0L518,49.94l-0.25-.1-0.25-.1a0.37,0.37,0,0,0-.22-0.13,0.55,0.55,0,0,1-.22-0.15,2.59,2.59,0,0,1-.22-0.15c-0.06-.06-0.09-0.11-0.14-0.16L516.55,49c-0.16-.11-0.32-0.21-0.47-0.32a0.44,0.44,0,0,1-.21-0.09l-0.16-.12a0.91,0.91,0,0,0-.22-0.22c-0.06-.08-0.16-0.12-0.22-0.19a1.6,1.6,0,0,0-.31-0.15,0.55,0.55,0,0,0-.34-0.07,0.26,0.26,0,0,1-.13,0,1,1,0,0,0-.42-0.07,1,1,0,0,0-.39-0.14,1.3,1.3,0,0,0-.51-0.29q-0.38-.19-0.78-0.34l-0.09-.1-0.14,0-0.4-.18-0.42-.14a1,1,0,0,1-.48-0.22l-0.07,0a0.56,0.56,0,0,1-.2,0,2,2,0,0,1-.5-0.33,1.43,1.43,0,0,1-.36-0.46,0.22,0.22,0,0,0-.18-0.14,0.25,0.25,0,0,1-.14-0.09,2.11,2.11,0,0,0-.37-0.19,0.61,0.61,0,0,0-.39-0.13l-0.09,0-0.08-.06a0.42,0.42,0,0,1-.29-0.08,1.19,1.19,0,0,0-.24-0.13,3.4,3.4,0,0,0-.6-0.26,1.18,1.18,0,0,0-.44-0.16,0.49,0.49,0,0,0-.21-0.2c-0.06-.08-0.16-0.13-0.22-0.2a1.61,1.61,0,0,1-.18-0.22c-0.05-.08-0.1-0.17-0.15-0.25a2.82,2.82,0,0,0-.33-0.33,2.58,2.58,0,0,1-.28-0.33,1.19,1.19,0,0,0-.4-0.43c-0.27-.16-0.46-0.41-0.72-0.56a1,1,0,0,0-.2-0.21,0.62,0.62,0,0,1-.24-0.19,0.29,0.29,0,0,0-.22-0.14l0,0a0.64,0.64,0,0,0-.25-0.34,4.08,4.08,0,0,0-.33-0.34,1.11,1.11,0,0,1-.22-0.22,0.87,0.87,0,0,0-.22-0.22c-0.22-.2-0.42-0.41-0.65-0.59s-0.22-.21-0.35-0.3l-0.47-.32a1.72,1.72,0,0,1-.29-0.19,1.19,1.19,0,0,0-.62-0.35c0-.1-0.17,0-0.18-0.1S500,38.09,500,38a1,1,0,0,0-.48-0.22,1.45,1.45,0,0,0-.29-0.18,1.44,1.44,0,0,1-.31-0.14,1.69,1.69,0,0,0-.52-0.4,1.36,1.36,0,0,0-.44-0.17h-0.08a0.75,0.75,0,0,0-.35-0.18,1.79,1.79,0,0,0-.36-0.15A0.28,0.28,0,0,1,497,36.5a5.14,5.14,0,0,1-.5-0.33,0.42,0.42,0,0,1-.32-0.22,1,1,0,0,0-.21-0.09,2.3,2.3,0,0,0-.4-0.29c-0.12-.08-0.26-0.14-0.38-0.22a1.42,1.42,0,0,1-.39-0.39,0.2,0.2,0,0,0-.2-0.1,0.59,0.59,0,0,0-.17-0.44s0-.08,0-0.11,0-.21-0.13-0.22l0,0a1,1,0,0,0-.16-0.49c-0.06-.16-0.09-0.33-0.17-0.49s0-.15-0.12-0.17a0.37,0.37,0,0,1-.14-0.19,0.48,0.48,0,0,0-.25-0.23l-0.15-.09a0.79,0.79,0,0,0-.6-0.22,0.42,0.42,0,0,1-.22-0.05c-0.08,0-.13.12-0.22,0a0.39,0.39,0,0,0-.22,0,1.73,1.73,0,0,1-.57-0.1h-0.21L491,32c-0.12-.05-0.26,0-0.39-0.09s-0.27-.08-0.39-0.13-0.22-.13-0.35-0.18a1.87,1.87,0,0,1-.42-0.33,0.44,0.44,0,0,1-.22-0.19,0.52,0.52,0,0,0-.18-0.24c-0.26-.19-0.46-0.46-0.74-0.63a2.72,2.72,0,0,1-.52-0.38c-0.2-.2-0.46-0.32-0.67-0.5L487,29.24c-0.06,0-.06-0.16-0.18-0.13a0.39,0.39,0,0,1-.19-0.11l-0.2-.14a0.87,0.87,0,0,1-.19-0.1,0.22,0.22,0,0,0-.19-0.06,0.67,0.67,0,0,1-.52-0.15,0.69,0.69,0,0,0-.54-0.11,0.14,0.14,0,0,1-.1,0,0.22,0.22,0,0,0-.22,0,1.73,1.73,0,0,1-.8,0,1.44,1.44,0,0,1-.74-0.18,0.19,0.19,0,0,0-.12,0,0.37,0.37,0,0,1-.27-0.06c-0.06,0-.09-0.07-0.15,0a0.14,0.14,0,0,1-.09,0,0.34,0.34,0,0,0-.41.1,1,1,0,0,1-.35.3c-0.09.25-.42,0.29-0.51,0.55a0.82,0.82,0,0,1-.19.16,3.6,3.6,0,0,1-.3.34,1.83,1.83,0,0,0-.27.33,13.49,13.49,0,0,1-1.09,1.21,2.17,2.17,0,0,0-.51.67,1.07,1.07,0,0,1-.2.26,0.16,0.16,0,0,0-.06.13,0.07,0.07,0,0,1,0,.05c-0.15,0-.15.1-0.22,0.17-0.2.22-.39,0.44-0.59,0.65s-0.17.2-.27,0.29a3.56,3.56,0,0,0-.27.3,0.5,0.5,0,0,0-.09.15,1.05,1.05,0,0,1-.3.46,0.82,0.82,0,0,0-.11.16,0.35,0.35,0,0,1-.08.12,0.81,0.81,0,0,0-.31.37,2.93,2.93,0,0,0-.32.53l-0.07.18c0,0.06,0,.12-0.14.11s0,0.06,0,.1l0,0Z" transform="translate(-409.2 -27.45)"/><path class="cls-4" d="M489.56,55.83l0.07-.22a0.55,0.55,0,0,0,0-.3,0.72,0.72,0,0,1-.05-0.16,1.67,1.67,0,0,1,0-.22,1.51,1.51,0,0,1,.48-0.4,0.19,0.19,0,0,1,.12,0,0.15,0.15,0,0,0,.18-0.08c0-.09.1,0.1,0.12,0a0.4,0.4,0,0,1,.1-0.14l0.1-.14a0.45,0.45,0,0,0,.12-0.22,0.55,0.55,0,0,0,.1-0.22,0.13,0.13,0,0,1,.06-0.1,0.5,0.5,0,0,1,.23-0.06,0.39,0.39,0,0,1,.22.12,1.39,1.39,0,0,1,.28.46c0.07,0.17.12,0.34,0.17,0.51a0.75,0.75,0,0,1,.15.28,1.14,1.14,0,0,0,0,.31,0.57,0.57,0,0,0,.18.42,0.44,0.44,0,0,0,.22.22,2.25,2.25,0,0,1,.18.22,0.28,0.28,0,0,0,.17.07l0.5,0.06a0.37,0.37,0,0,0,.33-0.17,0.69,0.69,0,0,1,.25-0.22,0.17,0.17,0,0,1,.18,0,0.15,0.15,0,0,0,.12,0,0.17,0.17,0,0,1,.24,0h0a1.24,1.24,0,0,0,.38.11,4.33,4.33,0,0,0,.56,0,1.29,1.29,0,0,0,.7-0.22l0.18-.18a0.22,0.22,0,0,0,.17-0.15,0.08,0.08,0,0,1,.06,0,1.85,1.85,0,0,0,.44.09c0.15,0.09.28,0.07,0.41,0.16a0.16,0.16,0,0,0,.1,0,0.68,0.68,0,0,1,.29.05c0.07,0,.14.08,0.22,0a0.09,0.09,0,0,1,.08,0,0.84,0.84,0,0,0,.41,0,0.41,0.41,0,0,0,.31-0.18,0.36,0.36,0,0,1,.09-0.09l0.16-.06c0.08-.06.08,0,0.11,0s0.27,0.17.4,0.23,0.17,0,.2.1,0.16,0,.14.15a1.84,1.84,0,0,0,.51.36,0.56,0.56,0,0,1,.31.26,0.44,0.44,0,0,0,.24.19,0.31,0.31,0,0,1,.2.27,0.57,0.57,0,0,0,.16.35,1,1,0,0,0,.14.28l0.27,0.1a0.94,0.94,0,0,1,.33.16,5.15,5.15,0,0,1,.6.52l0.05,0.11a0.39,0.39,0,0,0,.24-0.06,1.13,1.13,0,0,1,.39-0.21,0.84,0.84,0,0,0,.2-0.15l0.2-.08c0-.15.12,0,0.17-0.08a0.44,0.44,0,0,0,.25-0.22,0.59,0.59,0,0,1,.12-0.24,0.93,0.93,0,0,1,.66-0.33c0.12,0,.22,0,0.35,0a1.09,1.09,0,0,0,.35,0,0.48,0.48,0,0,0,.32-0.41,0.67,0.67,0,0,1,.06-0.31,0.77,0.77,0,0,0,.09-0.44,0.34,0.34,0,0,1,0-.22,1.23,1.23,0,0,0,.09-0.2c0.1,0,.06-0.14.16-0.11a1.17,1.17,0,0,1,.38-0.25l0.08-.05a0.32,0.32,0,0,1,.22-0.12l0.17-.1a0.55,0.55,0,0,1,.31-0.15c0-.06.1-0.11,0.14-0.18a0.84,0.84,0,0,1,.22-0.31,0.55,0.55,0,0,0,.18-0.34,0.57,0.57,0,0,1,.26-0.33,0.38,0.38,0,0,1,.4,0,0.3,0.3,0,0,1,.22.19,4.48,4.48,0,0,0,.29.54l0.05,0.08a0.33,0.33,0,0,1,.16.3,1.06,1.06,0,0,1,.18.29,0.65,0.65,0,0,0,.13.18,1.09,1.09,0,0,1,.16.36,0.12,0.12,0,0,1,0,.1,0.22,0.22,0,0,0,0,.22,0.71,0.71,0,0,1,0,.14,0.45,0.45,0,0,0,.19.29,0.84,0.84,0,0,0,.79.1,1.12,1.12,0,0,1,.34,0,5.84,5.84,0,0,0,.82-0.06,1.41,1.41,0,0,1,.68.1l0.19,0.06,0.19,0,0.39,0.14,0.27,0A3,3,0,0,1,514,57a1.05,1.05,0,0,0,.59.41l0.1,0a1.34,1.34,0,0,0,.55.27l0.15,0h0.21c0.18,0,.18,0,0.21.18a0.16,0.16,0,0,0,.05.1,0.91,0.91,0,0,0,.36.07,0.62,0.62,0,0,0,.22-0.08c0.06,0,.06-0.15.12-0.21a2,2,0,0,0,.37-0.59,0.27,0.27,0,0,0,0-.09,0.36,0.36,0,0,1,.18-0.38,0.24,0.24,0,0,0,.09-0.22,0.16,0.16,0,0,1,.08-0.2,0.22,0.22,0,0,1,.28.07,1.52,1.52,0,0,0,.46.41,0.15,0.15,0,0,0,.09,0,1.15,1.15,0,0,1,.38.12,0.67,0.67,0,0,1,.31.25,0.28,0.28,0,0,1,.15.2,0.25,0.25,0,0,0,.18.18l0.19,0.05a0.48,0.48,0,0,1,.36.28,1.16,1.16,0,0,0,.31.3,0.64,0.64,0,0,0,.25,0,0.9,0.9,0,0,1,.34,0,0.54,0.54,0,0,0,.42-0.18l0.37-.24a2,2,0,0,0,.35-0.29,0.31,0.31,0,0,0,.1-0.22,1.14,1.14,0,0,1,.12-0.56c0.05-.15.09-0.31,0.16-0.46s0-.17.12-0.16l0,0c-0.09,0,0-.1,0-0.12s0.22-.32.33-0.47a0.87,0.87,0,0,0,.13-0.18A0.27,0.27,0,0,1,523,55a1.37,1.37,0,0,1,.78.22,1.69,1.69,0,0,0,.61.25,1.48,1.48,0,0,0,1-.06l0.18-.08a0.47,0.47,0,0,0,.22-0.11,0.29,0.29,0,0,1,.15,0,0.48,0.48,0,0,1-.31.22,1.5,1.5,0,0,1-1,.3,1.91,1.91,0,0,1-.86-0.28,1.22,1.22,0,0,0-.44-0.13,0.65,0.65,0,0,1-.22,0,0.28,0.28,0,0,0-.28.16,2.11,2.11,0,0,1-.3.43,1.29,1.29,0,0,0-.13.22,0.46,0.46,0,0,0-.09.25c0,0.12-.12.2-0.11,0.32s-0.15.06,0,.15a1,1,0,0,0-.1.19,0.27,0.27,0,0,1-.06.19,0.37,0.37,0,0,1-.13.29,4.45,4.45,0,0,1-.8.74,0.59,0.59,0,0,1-.36.11,0.94,0.94,0,0,0-.32.06,0.35,0.35,0,0,1-.27,0,0.14,0.14,0,0,0-.2.06h0a1.37,1.37,0,0,0-.25-0.13,1,1,0,0,0-.17-0.2,0.74,0.74,0,0,1-.15-0.3,0.87,0.87,0,0,1-.58-0.2,0.19,0.19,0,0,1-.1-0.17,0.08,0.08,0,0,0,0-.06,1.41,1.41,0,0,0-.49-0.34c-0.2-.05-0.39-0.12-0.58-0.18a0.22,0.22,0,0,0-.19,0,0.53,0.53,0,0,0-.22.17,0.52,0.52,0,0,0-.13.32,0.82,0.82,0,0,0-.11.27,0.41,0.41,0,0,0-.14.26,0.65,0.65,0,0,1-.51.35c-0.07,0-.14,0-0.22.05a0.51,0.51,0,0,1-.5-0.18l0,0a1.44,1.44,0,0,1-.5-0.2,3,3,0,0,1-.5-0.19,1.67,1.67,0,0,1-.67-0.38,0.09,0.09,0,0,0-.06,0,0.2,0.2,0,0,1-.19-0.12,2.31,2.31,0,0,1-.15-0.25c-0.2,0-.37-0.14-0.57-0.16l-0.22-.05-0.11,0a1.52,1.52,0,0,0-.48-0.11l-0.24.05a0.53,0.53,0,0,0-.19,0s-0.12-.06-0.16,0a1.13,1.13,0,0,1-.51,0h-0.53a1.92,1.92,0,0,1-.79-0.26l0,0a1.13,1.13,0,0,1-.16-0.59,0.56,0.56,0,0,0-.05-0.36,1.46,1.46,0,0,0-.22-0.38,0.52,0.52,0,0,1-.09-0.4,1.84,1.84,0,0,1-.43-0.57,0.39,0.39,0,0,0-.09-0.1c-0.13-.13-0.29-0.13-0.32,0a1.59,1.59,0,0,1-.32.5c-0.07.12-.2,0.2-0.28,0.34a0.14,0.14,0,0,1-.15.09,0.11,0.11,0,0,0-.08,0,1.8,1.8,0,0,1-.34.22,2.23,2.23,0,0,1-.36.22l-0.33.24a2.77,2.77,0,0,1-.07.32,1.13,1.13,0,0,0-.06.27,1.18,1.18,0,0,1-.08.28,0.85,0.85,0,0,0-.08.23,0.73,0.73,0,0,1-.11.22,0.84,0.84,0,0,1-.52.46,1.41,1.41,0,0,1-.46.09,0.86,0.86,0,0,0-.35,0,0.61,0.61,0,0,0-.38.28,0.58,0.58,0,0,1-.34.26,0.85,0.85,0,0,0-.28.16,4.59,4.59,0,0,0-.72.49,0.38,0.38,0,0,1-.17.09l-0.27.05a0.21,0.21,0,0,1-.28-0.1v0a0.42,0.42,0,0,0-.16-0.25,2.38,2.38,0,0,0-.87-0.52L501,57.85c-0.11-.09-0.11-0.09-0.09-0.27a0.18,0.18,0,0,0,0-.08,2.42,2.42,0,0,1-.22-0.49,0.15,0.15,0,0,0-.08-0.07,1.31,1.31,0,0,1-.38-0.34,0.62,0.62,0,0,0-.22-0.17,0.22,0.22,0,0,1-.16-0.11s0-.14-0.14-0.1h0a1.45,1.45,0,0,0-.52-0.34,0.54,0.54,0,0,0-.28-0.07l-0.07,0a1.32,1.32,0,0,1-.77.24h-0.08a2.12,2.12,0,0,1-1-.17,0.75,0.75,0,0,0-.75.15c0,0.12-.09.09-0.13,0.12a1.1,1.1,0,0,1-.32.12l-0.24.05h-0.24l-0.14,0a0.48,0.48,0,0,1-.25,0,0.24,0.24,0,0,0-.14-0.05l-0.43-.05-0.07,0a0.24,0.24,0,0,0-.34,0h0l-0.22.17a0.81,0.81,0,0,1-.7.12c-0.07,0-.16.08-0.21,0a0.38,0.38,0,0,1-.25-0.1,1.76,1.76,0,0,1-.27-0.23,0.37,0.37,0,0,1-.22-0.22,0.58,0.58,0,0,1-.27-0.28,0.2,0.2,0,0,1,0-.11,2.35,2.35,0,0,0-.19-0.87,3.56,3.56,0,0,1-.19-0.48,0.13,0.13,0,0,0-.16-0.09,0.13,0.13,0,0,0-.08.07,1.82,1.82,0,0,1-.56.55,0.85,0.85,0,0,1-.3.16A0.59,0.59,0,0,0,490,55l0.11,0.09,0,0.11a0.36,0.36,0,0,0,0,.11l0,0.11s0,0,0,.06a2.33,2.33,0,0,0-.06.24,0.42,0.42,0,0,1-.2.38,1,1,0,0,0-.32.35c-0.14.18-.24,0.4-0.39,0.57a0.5,0.5,0,0,1-.34.23,0.78,0.78,0,0,0-.21.07,0.56,0.56,0,0,1-.29,0,1.41,1.41,0,0,1-.4.05,1,1,0,0,1-.48.05,0.72,0.72,0,0,0-.34.06,2.31,2.31,0,0,0-.54.36l-0.08.08c0,0.25-.09.49-0.05,0.74a1.41,1.41,0,0,1-.42.78,0.18,0.18,0,0,1-.21,0,0.57,0.57,0,0,0-.31,0,1.84,1.84,0,0,1-.44-0.06,0.15,0.15,0,0,1-.16-0.13s-0.1,0-.14,0l-0.07-.09a6.66,6.66,0,0,1-.56-0.43,0.63,0.63,0,0,1-.22-0.46c0-.09,0-0.18,0-0.27a1.22,1.22,0,0,0,0-.27,3.1,3.1,0,0,1-.17-0.38,0.56,0.56,0,0,0-.37-0.22l-0.06,0a0.73,0.73,0,0,0-.46-0.17,0.73,0.73,0,0,1-.31-0.07,1.7,1.7,0,0,1-.31-0.2,0.25,0.25,0,0,0-.2-0.1,0.12,0.12,0,0,1-.1-0.05,0.38,0.38,0,0,0-.31-0.21,1.45,1.45,0,0,1-.22-0.16c-0.1-.09-0.2-0.2-0.3-0.3a3.94,3.94,0,0,0-.71-0.07l-0.27,0-0.12,0a0.79,0.79,0,0,1-.75,0l-0.21-.07a1.31,1.31,0,0,1-.34-0.15,0.63,0.63,0,0,0-.32-0.13,0.56,0.56,0,0,1-.33-0.13,1,1,0,0,1-.29-0.16c0-.06-0.14,0-0.17,0a1.34,1.34,0,0,1-.26.37,0.06,0.06,0,0,0,0,0,1,1,0,0,1-.2.55l-0.06.13-0.12.26a3,3,0,0,0-.3.36,0.44,0.44,0,0,1-.36.18,0.32,0.32,0,0,1,0-.43,0.1,0.1,0,0,0,0,0,1.58,1.58,0,0,1-.46-0.67,0.9,0.9,0,0,0-.16-0.22c-0.06-.08-0.2-0.1-0.16-0.25a0.22,0.22,0,0,0-.08-0.1,0.19,0.19,0,0,1-.08-0.15,0.15,0.15,0,0,0-.07-0.1,1.56,1.56,0,0,1-.29-0.19,0.45,0.45,0,0,0-.37-0.13,0.51,0.51,0,0,0-.54.29,0.78,0.78,0,0,0-.24.24c-0.11,0-.07.12-0.14,0.15a0.18,0.18,0,0,0-.1.2l-0.24.18a2,2,0,0,1-.58.21c-0.15.06-.41,0.15-0.54,0.22a1.86,1.86,0,0,1-.68.26,0.52,0.52,0,0,1-.34-0.08l-0.22-.11a0.12,0.12,0,0,0-.16,0,1.35,1.35,0,0,1-.63.34c-0.05,0-.1.06-0.15,0.07a0.38,0.38,0,0,1-.24,0c-0.08,0-.22,0-0.24-0.15a0.45,0.45,0,0,0-.13-0.21,0.32,0.32,0,0,0-.52,0l-0.08.07a1.24,1.24,0,0,1-.74.44,0.23,0.23,0,0,1-.27,0h-0.1l-0.61-.05a0.22,0.22,0,0,1-.17-0.17,0.28,0.28,0,0,0-.34-0.2l-0.1,0c-0.2.12-.41,0.19-0.62,0.3a5.29,5.29,0,0,1-.62.22,0.89,0.89,0,0,1-.54-0.07,3,3,0,0,1-.32-0.13V56.54a0.29,0.29,0,0,0-.05-0.19,0.25,0.25,0,0,1-.05-0.11,0.69,0.69,0,0,1,0-.1,0.42,0.42,0,0,1-.11-0.22,0.26,0.26,0,0,1,0-.09,0.75,0.75,0,0,0-.11-0.42l-0.08-.18a0.31,0.31,0,0,1,0-.27,0.66,0.66,0,0,0-.1-0.48,0.65,0.65,0,0,0-.18-0.16,0.51,0.51,0,0,0-.14.32,2.16,2.16,0,0,1-.1.33,0.65,0.65,0,0,1-.43.4,1.39,1.39,0,0,1-.67.1,0.42,0.42,0,0,0-.08-0.12,0.55,0.55,0,0,0-.2-0.21,0.36,0.36,0,0,0-.12-0.24,1.41,1.41,0,0,1-.16-0.35,2.31,2.31,0,0,0-.15-0.31L461,54.19a0.17,0.17,0,0,1-.24.05,0.44,0.44,0,0,0-.38.14l-0.21.2a0.77,0.77,0,0,0-.17.13,0.14,0.14,0,0,1-.15.1,0.19,0.19,0,0,0-.13.06,2.08,2.08,0,0,0-.54.66,0.08,0.08,0,0,1,0,0,0.83,0.83,0,0,0-.28.22l-0.38.22a0.18,0.18,0,0,1-.15.08,0.91,0.91,0,0,1-.22-0.08c-0.06,0-.11-0.12-0.17-0.16s-0.17,0-.16-0.11a0.35,0.35,0,0,0-.31,0,0.72,0.72,0,0,0-.29.19l-0.06,0a0.94,0.94,0,0,0-.34.33,1.74,1.74,0,0,1-.12.14,1,1,0,0,0-.26.31,0.14,0.14,0,0,1-.08.06,2.6,2.6,0,0,1-.84.33c-0.05.09-.1-0.06-0.17,0a0.22,0.22,0,0,1-.18.07c-0.18-.06-0.39,0-0.55-0.05a1.2,1.2,0,0,0-.52,0l-0.06,0-0.13.13a0.67,0.67,0,0,1-.26.21l-0.31.09a1.7,1.7,0,0,1-.64-0.07l-0.12,0a4.43,4.43,0,0,1-.56-0.06,0.4,0.4,0,0,0-.35,0,1.88,1.88,0,0,0-.53-0.06,1.31,1.31,0,0,0-.59,0,1,1,0,0,1-.68-0.14,5.73,5.73,0,0,1-.44-0.46,0.3,0.3,0,0,1,0-.14h-0.22l0.06-.14a0.57,0.57,0,0,0-.52-0.18,1.45,1.45,0,0,0-.25.19,0.63,0.63,0,0,0-.11.24,0.22,0.22,0,0,1-.17.13,1.77,1.77,0,0,1-.34.07,0.59,0.59,0,0,0-.32,0,0.22,0.22,0,0,1-.16,0l-0.62-.16a0.31,0.31,0,0,1-.13-0.07,0.93,0.93,0,0,0-.34-0.2L446,56.47a1,1,0,0,0-.38,0,1.6,1.6,0,0,0-.59.22c0,0.08-.18.1-0.13,0.22a1.31,1.31,0,0,0-.47.44v0a0.38,0.38,0,0,1-.44.24,5.46,5.46,0,0,1-.69-0.06,0.67,0.67,0,0,1-.32-0.12,1.6,1.6,0,0,0-.32,0,0.91,0.91,0,0,0-.28-0.09,0.56,0.56,0,0,0-.42.08,0.14,0.14,0,0,1-.09,0,0.62,0.62,0,0,0-.37.13,0.61,0.61,0,0,1-.49.05l0,0c-0.21,0-.4-0.09-0.62,0a1.21,1.21,0,0,1-.22-0.29,0.52,0.52,0,0,0-.41-0.29,2.46,2.46,0,0,0-.48-0.08,1.18,1.18,0,0,1-.79.38l-0.27.05h-0.29a0.33,0.33,0,0,1-.28,0,1.3,1.3,0,0,1-.29-0.06,0.19,0.19,0,0,0-.13,0,0.22,0.22,0,0,1-.2-0.08l-0.09,0V57a0.7,0.7,0,0,1-.37-0.21l-0.19-.16c-0.09,0,0-.17-0.16-0.13a0.32,0.32,0,0,0-.17-0.16,0.63,0.63,0,0,0-.09-0.1l-0.09-.15c-0.06.06-.07,0-0.1,0a0.38,0.38,0,0,0-.15-0.08,0.22,0.22,0,0,1-.17-0.15l0,0-0.5-.57a0.24,0.24,0,0,0-.11,0h-0.08c-0.11,0-.2-0.19-0.33-0.05a0.82,0.82,0,0,0-.37.06,1,1,0,0,1-.36,0l-0.43,0a1.32,1.32,0,0,0-.44.06s0,0,0,0a0.75,0.75,0,0,0-.54.22,0.14,0.14,0,0,1-.17,0,0.84,0.84,0,0,0-.39-0.09l-0.19,0a1.58,1.58,0,0,0-.41.09,2.31,2.31,0,0,0-.33.16,0.13,0.13,0,0,0-.06.11,0.57,0.57,0,0,1-.16.36,1,1,0,0,1-.35.29,0.14,0.14,0,0,0-.06.08l0,0.11a1.35,1.35,0,0,0-.3.22,0.77,0.77,0,0,1-.36.1,0.22,0.22,0,0,0-.15,0,0.62,0.62,0,0,1-.42.08h-0.16a1.12,1.12,0,0,0-.44-0.32h0a0.77,0.77,0,0,0-.6-0.2h-0.09a0.78,0.78,0,0,1-.38.26l-0.07,0a1,1,0,0,1-.53.32s0,0-.08,0a0.36,0.36,0,0,0-.26,0,0.22,0.22,0,0,0-.19.18,2.52,2.52,0,0,1-.49.66,0.56,0.56,0,0,1-.3.09,1,1,0,0,0-.52.1,0.21,0.21,0,0,1-.12,0,0.66,0.66,0,0,1-.06,0c-0.2,0-.39,0-0.58-0.06a2.43,2.43,0,0,1-.72-0.17c-0.09,0-.19-0.06-0.28-0.1a0.4,0.4,0,0,1-.28-0.2,0.14,0.14,0,0,0-.13-0.07,2.28,2.28,0,0,1-.75-0.24,1.06,1.06,0,0,0-.53-0.13,0.19,0.19,0,0,1-.19,0,0.11,0.11,0,0,0-.1,0l-0.43.1a3,3,0,0,0-.41.15,0.34,0.34,0,0,1-.15,0h-1a0.84,0.84,0,0,0-.22.11l-0.44.22a1.85,1.85,0,0,1-.43.17l-0.07,0a6.86,6.86,0,0,0-.77.1,0.22,0.22,0,0,0-.14.05s-0.12,0-.18.08a0.14,0.14,0,0,1-.18,0,0.21,0.21,0,0,0-.18,0,1.22,1.22,0,0,1-.48,0,0.28,0.28,0,0,0-.25,0,0.41,0.41,0,0,0-.11,0h-0.18a0.18,0.18,0,0,1-.14,0,0.32,0.32,0,0,1-.21,0,0.13,0.13,0,0,0-.18,0l0,0a0.32,0.32,0,0,0-.22-0.06,0.78,0.78,0,0,0-.35,0,0.25,0.25,0,0,0-.26.08,0.12,0.12,0,0,1-.09,0h-0.3l-0.05-.1a0.13,0.13,0,0,1,0-.18,0.81,0.81,0,0,1,.34-0.19,0.46,0.46,0,0,1,.38,0l0.32,0.11c0.1,0,.21,0,0.32,0a1.08,1.08,0,0,0,.42,0,0.74,0.74,0,0,0,.4,0,0.29,0.29,0,0,1,.15,0,0.8,0.8,0,0,1,.3,0l0.27,0a1.63,1.63,0,0,0,.67-0.12,2.59,2.59,0,0,1,.44-0.1,1.39,1.39,0,0,0,.7-0.22,0.53,0.53,0,0,1,.3-0.16,1.37,1.37,0,0,0,.28-0.14,0.63,0.63,0,0,1,.49,0h0.08a1.63,1.63,0,0,1,.67,0,1.17,1.17,0,0,0,.43-0.11,1.05,1.05,0,0,1,.35-0.1,0.57,0.57,0,0,1,.38,0,0.56,0.56,0,0,1,.26.06,0.48,0.48,0,0,1,.4.11c0.22,0.1.44,0.16,0.65,0.27a0.49,0.49,0,0,1,.28.1,0.74,0.74,0,0,0,.22.15,2.15,2.15,0,0,0,.41.1c0.09,0,.21,0,0.29.06a0.37,0.37,0,0,0,.19,0,0.49,0.49,0,0,1,.31.07,0.31,0.31,0,0,0,.14,0h0.39a2.57,2.57,0,0,1,.48-0.06,0.41,0.41,0,0,0,.08-0.1c0.07-.07.16-0.13,0.22-0.2a0.54,0.54,0,0,0,.12-0.27,0.4,0.4,0,0,1,.06-0.11,0.54,0.54,0,0,1,.52-0.27,1.08,1.08,0,0,0,.65-0.15l0.18-.14,0.33-.28a0.35,0.35,0,0,1,.4,0c0.17,0.11.35,0.19,0.52,0.28a0.31,0.31,0,0,0,.19.16,1.1,1.1,0,0,0,.24.13,0.42,0.42,0,0,0,.22,0,1.27,1.27,0,0,0,.79-0.26c0.05,0,.09-0.11.14-0.16l0.18-.14a0.77,0.77,0,0,0,.16-0.17,1.38,1.38,0,0,0,.14-0.33,0.62,0.62,0,0,1,.32-0.39,1.48,1.48,0,0,1,.93-0.18,0.36,0.36,0,0,1,.22.08c0.13,0.16.26,0,.36,0a0.5,0.5,0,0,1,.29-0.13l0.08-.06,0.06,0a2.92,2.92,0,0,1,.85,0,0.5,0.5,0,0,0,.27,0,1.27,1.27,0,0,0,.5-0.12,0.25,0.25,0,0,1,.17,0,3.24,3.24,0,0,1,.51.11,0.3,0.3,0,0,1,.21.2,0.77,0.77,0,0,0,.18.24,0.52,0.52,0,0,0,.22.22,0.45,0.45,0,0,1,.13.13,0.24,0.24,0,0,0,.09.09,0.83,0.83,0,0,1,.4.29,4.93,4.93,0,0,1,.46.35,0.47,0.47,0,0,0,.19.17,0.65,0.65,0,0,1,.22.15,0.71,0.71,0,0,0,.49.16,0.26,0.26,0,0,1,.25,0,0.1,0.1,0,0,0,.1,0,0.3,0.3,0,0,1,.24,0,0.39,0.39,0,0,0,.14,0s0.11-.09.17,0l0.13,0,0.22-.06a0.21,0.21,0,0,0,.11-0.05c0.08-.13.22-0.19,0.31-0.31a0.63,0.63,0,0,1,.35.06l0.41,0.15a0.82,0.82,0,0,1,.41.27,0.43,0.43,0,0,0,.12.19,0.78,0.78,0,0,0,.35.12,0.66,0.66,0,0,0,.54-0.05,0.44,0.44,0,0,0,.35-0.11,0.22,0.22,0,0,1,.14-0.05,0.13,0.13,0,0,0,.09,0,0.29,0.29,0,0,1,.33-0.08l0.44,0.08a0.41,0.41,0,0,0,.29.06h0a1.53,1.53,0,0,0,.7.15,0.4,0.4,0,0,0,.49-0.2,0.52,0.52,0,0,1,.25-0.22,0.31,0.31,0,0,0,.09-0.11l0.17-.24a0.94,0.94,0,0,1,.67-0.33,0.68,0.68,0,0,0,.1,0c0.06,0.09.08,0,.13,0l0.12,0a0.22,0.22,0,0,1,.14,0c0.07,0.07.22,0,.24,0.12h0a0.33,0.33,0,0,1,.27,0c0.07,0.09.18,0,.24,0.12a0.35,0.35,0,0,0,.22.1l0.14,0.15a0.93,0.93,0,0,0,.38.12,0.57,0.57,0,0,0,.36,0,3,3,0,0,0,.29-0.05,0.18,0.18,0,0,0,.14-0.1,2.74,2.74,0,0,1,.27-0.42,1.42,1.42,0,0,1,.58-0.18l0.08,0.05a0.78,0.78,0,0,0,.28.15,0.69,0.69,0,0,0,.29.12,0.33,0.33,0,0,1,.13.26A0.59,0.59,0,0,0,450,57l0.22,0.19a0.93,0.93,0,0,0,.62,0l0.09,0a0.21,0.21,0,0,0,.12,0,0.38,0.38,0,0,1,.38,0,0.73,0.73,0,0,0,.23,0,0.33,0.33,0,0,1,.22,0,0.27,0.27,0,0,0,.17,0l0.12,0a1.91,1.91,0,0,1,.3,0,0.33,0.33,0,0,1,.27.05,5.24,5.24,0,0,0,.62.11,0.48,0.48,0,0,0,.41-0.17,1.87,1.87,0,0,0,.33-0.34,0.3,0.3,0,0,1,.22-0.08,1.7,1.7,0,0,1,.78.09,1.47,1.47,0,0,0,.39,0,0.18,0.18,0,0,1,.19,0c0.06,0,.11-0.1.17,0l0.2-.1a1.51,1.51,0,0,0,.35-0.22,3.67,3.67,0,0,1,.29-0.28,1.47,1.47,0,0,0,.25-0.37l0-.06a0.5,0.5,0,0,0,.21-0.12,0.33,0.33,0,0,1,.17-0.16,4.36,4.36,0,0,1,.49-0.16,0.3,0.3,0,0,1,.18.09,3.21,3.21,0,0,1,.32.26,0.13,0.13,0,0,0,.18,0h0a0.45,0.45,0,0,1,.22-0.08,0.21,0.21,0,0,0,.14-0.09,2.52,2.52,0,0,0,.26-0.31,1.24,1.24,0,0,1,.63-0.67,0.78,0.78,0,0,0,.22-0.15,4.64,4.64,0,0,1,.74-0.57,0.4,0.4,0,0,1,.31-0.06c0.22-.2.21-0.19,0.48-0.07a0.44,0.44,0,0,1,.24.29l0.16,0.51c0.09,0.14.18,0.28,0.28,0.42l0.12,0.2a0.57,0.57,0,0,0,.39-0.07,0.44,0.44,0,0,0,.27-0.33c0.1-.29.18-0.59,0.27-0.89l0.08-.16,0.26,0.18L463.6,54a0.36,0.36,0,0,1,.25.22,1.83,1.83,0,0,1,.11.33,1.88,1.88,0,0,1,0,.46,0.18,0.18,0,0,0,.06.13,1.13,1.13,0,0,1,.13.18,0.34,0.34,0,0,1,.08.26,1.2,1.2,0,0,0,.06.44,0.37,0.37,0,0,0,.2.31v0.27a0.13,0.13,0,0,0,.12.14h0.53a0.59,0.59,0,0,0,.22-0.05,2.94,2.94,0,0,0,.54-0.28,2.19,2.19,0,0,1,.4-0.19l0.09,0c0.07-.06.14-0.15,0.22,0s0.17,0,.17.16a0.56,0.56,0,0,0,.12.22,1.3,1.3,0,0,1,.36,0c0.1,0,.22,0,0.35.05a0.37,0.37,0,0,0,.34,0,1,1,0,0,0,.38-0.31,0.92,0.92,0,0,1,.49-0.32c0.09,0,.18.09,0.29,0a0.86,0.86,0,0,1,.4.33,0.28,0.28,0,0,0,.14.14,0.37,0.37,0,0,0,.16,0l0.22-.06a0.46,0.46,0,0,0,.27-0.2,2,2,0,0,1,.18-0.27,0.21,0.21,0,0,1,.28-0.06l0.06,0.06L471,56,471,56.08a0.78,0.78,0,0,0,.26.13l0.42-.14c0.09,0,.17-0.1.26-0.14a0.74,0.74,0,0,1,.34-0.14h0.05l0.15-.08h0.14c0.13,0,.2-0.15.34-0.14a0,0,0,0,0,0,0,0.44,0.44,0,0,1,.22-0.31,0.56,0.56,0,0,1,.17-0.22,0.7,0.7,0,0,0,.16-0.17c0.05,0,0-.15.16-0.12s0-.13.11-0.1a0.43,0.43,0,0,1,.35-0.16,0.79,0.79,0,0,0,.29-0.05,0.62,0.62,0,0,0,.33.07c0.17,0.19.38,0.4,0.56,0.62a1.62,1.62,0,0,1,.15.3,0.36,0.36,0,0,0,.16.18,0.28,0.28,0,0,1,.19.28,0.09,0.09,0,0,0,0,.07l0.33,0.39a0.11,0.11,0,0,0,.16,0l0,0a0.87,0.87,0,0,0,.2-0.31,0.43,0.43,0,0,0,.08-0.22c0-.1,0-0.13.06-0.19a0.49,0.49,0,0,1,.12-0.21,0.19,0.19,0,0,0,.08-0.25h0c0.08,0,.14.05,0.15,0a0.56,0.56,0,0,1,.13-0.24,0.28,0.28,0,0,1,.39-0.07h0a1.8,1.8,0,0,0,.69.36c0.09,0,.12.11,0.21,0.13a0.64,0.64,0,0,0,.28.08,0.15,0.15,0,0,1,.13.06l0.11,0a0.74,0.74,0,0,0,.52,0,1.23,1.23,0,0,0,.46-0.1l0,0,0.39,0.09c0.13,0,.26,0,0.38.08a0.66,0.66,0,0,1,.34.18,1,1,0,0,0,.36.32,3.73,3.73,0,0,1,.8.49,0.28,0.28,0,0,0,.21.08,1.28,1.28,0,0,1,.38.1,1,1,0,0,1,.37.13,1.84,1.84,0,0,1,.57.52,1.11,1.11,0,0,1,.09.31,0.51,0.51,0,0,0,0,.08,1.2,1.2,0,0,1,.06.24,0.51,0.51,0,0,0,.17.41c0.07,0.07.13,0.16,0.2,0.22l0.21,0.17L485,59.1a0.3,0.3,0,0,0,.13.06l0.44,0.05a0.22,0.22,0,0,0,.25-0.17,1.82,1.82,0,0,0,.16-0.91V58.05a0.62,0.62,0,0,1,.39-0.63,4.73,4.73,0,0,1,.63-0.32l0.11,0a6.55,6.55,0,0,0,.77-0.05,3.28,3.28,0,0,0,.83-0.17A0.48,0.48,0,0,0,489,56.5c0.06-.13.15-0.25,0.21-0.39A0.61,0.61,0,0,1,489.56,55.83Z" transform="translate(-409.2 -27.45)"/><path class="cls-4" d="M461.89,54.1a0.89,0.89,0,0,1-.07-0.18,0.17,0.17,0,0,1,0-.17,1.26,1.26,0,0,0,.22-0.25,2.44,2.44,0,0,0,.14-0.31l0,0a0.3,0.3,0,0,1,0-.19,0.84,0.84,0,0,1,.44-0.21c0.09,0,.18-0.1.27,0a0.5,0.5,0,0,0,.41-0.26,0.76,0.76,0,0,0,.22-0.41s0.12,0,.1-0.11,0.09-.05.12-0.1a0.39,0.39,0,0,1,.14-0.1c0.31-.19.67-0.29,1-0.44a2.26,2.26,0,0,0,.48-0.11,2.66,2.66,0,0,0,.59-0.16l0.27-.17a0.89,0.89,0,0,0,0-.14,0.54,0.54,0,0,1,.28-0.57,2,2,0,0,1,.74-0.39,3.94,3.94,0,0,1,.66-0.37c0.17-.12.33-0.26,0.49-0.4a1.17,1.17,0,0,1,.51-0.29l0.11-.06a1,1,0,0,0,.28.18,0.3,0.3,0,0,0,.28,0h0.1a0.51,0.51,0,0,0,.33-0.1,1,1,0,0,1,.42-0.11,1.18,1.18,0,0,1,.29,0,0.41,0.41,0,0,0,.27-0.06c0.05,0,.12,0,0.16-0.05a0.81,0.81,0,0,0,.21,0,0.16,0.16,0,0,1,.22,0h0l0,0a0.63,0.63,0,0,1,.34,0,0.77,0.77,0,0,0,.47,0l0.33-.05a1.54,1.54,0,0,1,.44-0.29,0.23,0.23,0,0,1,.2,0,0.77,0.77,0,0,0,.35,0,0.79,0.79,0,0,1,.33,0,0.75,0.75,0,0,0,.31,0,0.83,0.83,0,0,1,.2,0l0.11,0.05h1a0.93,0.93,0,0,0,.53-0.24,0.34,0.34,0,0,0,.18-0.08,1.88,1.88,0,0,0,.61-0.44,0.38,0.38,0,0,1,.15-0.08,1.23,1.23,0,0,0,.27-0.18,1.8,1.8,0,0,0,.58-0.74,0.85,0.85,0,0,0,.16-0.16,1.92,1.92,0,0,0,.47-0.42,1.53,1.53,0,0,0,0-.33,1.5,1.5,0,0,1,0-.44c0-.07.17-0.08,0.06-0.17l0.11-.16a0.43,0.43,0,0,0,.1-0.3,0.3,0.3,0,0,1,0-.27l-0.1-.22c0.13-.08,0-0.15,0-0.22a1.87,1.87,0,0,1-.14-0.22,0.38,0.38,0,0,0-.14-0.21,0.4,0.4,0,0,1-.07-0.39,2.25,2.25,0,0,1,.61-1,2.37,2.37,0,0,1,.54-0.44c0.08-.16.26-0.22,0.34-0.38a0.77,0.77,0,0,1,.35-0.28,0.26,0.26,0,0,0,.1-0.08,2,2,0,0,1,.42-0.37,4.24,4.24,0,0,0,.52-0.63,0.81,0.81,0,0,0,.16-0.22,1,1,0,0,1,.18-0.24c0.06-.07.12-0.14,0.17-0.22s0.08-.16.13-0.25a0.33,0.33,0,0,1,0-.39c0.06-.11.13-0.22,0.19-0.34a3.34,3.34,0,0,1,.2-0.34c0.17-.26.35-0.52,0.52-0.79,0.05-.09.06-0.2,0.12-0.29a1.28,1.28,0,0,1,.33-0.46,1.05,1.05,0,0,1,.29-0.25,0.72,0.72,0,0,0,.28-0.27,0.58,0.58,0,0,1,.17-0.16,2.85,2.85,0,0,0,.58-0.37,0.11,0.11,0,0,1,.09,0,0.27,0.27,0,0,0,.3,0h0a1,1,0,0,1-.47.36,0.49,0.49,0,0,0-.33.21,0.23,0.23,0,0,1-.11.05l-0.07,0a0.35,0.35,0,0,1-.22.22,1.84,1.84,0,0,1-.24.19c-0.08,0-.11.17-0.19,0.22s-0.06.2-.15,0.26a0.84,0.84,0,0,1-.17.43c-0.12.22-.29,0.44-0.44,0.66a0.25,0.25,0,0,0-.07.13,0.64,0.64,0,0,1-.17.38,1.46,1.46,0,0,0-.21.47,0.58,0.58,0,0,1-.15.3,1.22,1.22,0,0,0-.31.48,3.63,3.63,0,0,1-.27.42,1.14,1.14,0,0,1-.29.3c-0.1.11-.22,0.2-0.32,0.3s-0.06,0-.09,0a1.45,1.45,0,0,0-.29.24c-0.11.16-.26,0.28-0.37,0.43a4.72,4.72,0,0,1-.37.42l-0.54.54a0.92,0.92,0,0,0-.26.44,1,1,0,0,0-.11.35,0.3,0.3,0,0,0,.09.22,0.6,0.6,0,0,1,.18.27,0.83,0.83,0,0,1,.05.35,3.88,3.88,0,0,1,0,.9,0.62,0.62,0,0,0-.26.47,3.45,3.45,0,0,0,0,.37,0.55,0.55,0,0,1-.16.65l-0.27.24a2.08,2.08,0,0,0-.43.53l-0.05.06a0.76,0.76,0,0,0-.22.28,1.06,1.06,0,0,0-.26.2,1.29,1.29,0,0,0-.26.22l-0.08,0a1.1,1.1,0,0,1-.32.31,3.4,3.4,0,0,1-.39.2,1,1,0,0,0-.33.22,1.14,1.14,0,0,1-.28.07,2.89,2.89,0,0,0-.49.06,0.14,0.14,0,0,1-.12,0,0.34,0.34,0,0,0-.36,0,0.47,0.47,0,0,1-.17,0,2.1,2.1,0,0,1-.37,0c-0.1,0-.17.12-0.28,0s-0.18,0-.26-0.06h-0.13a0.58,0.58,0,0,0-.19,0l-0.19-.05a0.7,0.7,0,0,0-.29.14l-0.1.07a1.72,1.72,0,0,0-.35.11,0.51,0.51,0,0,0-.33.11h0c-0.19.08-.21,0.08-0.31-0.11-0.24,0-.49,0-0.74,0s-0.25.06-.37,0.06-0.12,0-.15,0a0.2,0.2,0,0,0-.27,0c-0.12-.1-0.17.06-0.24,0.09a0.83,0.83,0,0,1-.4.12h-0.39a0.27,0.27,0,0,1-.22-0.07,0.28,0.28,0,0,0-.35,0,1.85,1.85,0,0,0-.32.26,1.62,1.62,0,0,1-.42.32,0.33,0.33,0,0,1-.22.09,4.43,4.43,0,0,0-.52.27l-0.17.1a0.72,0.72,0,0,0-.27.17,1.15,1.15,0,0,1-.25.22,0.13,0.13,0,0,0-.05.18v0a0.28,0.28,0,0,1,0,.19,1.2,1.2,0,0,1-.11.22,3.73,3.73,0,0,1-.41.17,0.55,0.55,0,0,1-.22.1c-0.22.15-.53,0.11-0.76,0.26a1.79,1.79,0,0,0-.77.25,0.65,0.65,0,0,0-.31.15,0.53,0.53,0,0,0-.17.27,1.37,1.37,0,0,1-.7.67,1.17,1.17,0,0,1-.38,0,0.22,0.22,0,0,0-.26.17v0a0.61,0.61,0,0,1-.14.22,0.4,0.4,0,0,1-.15.2,0.39,0.39,0,0,0-.13.2C462.07,54.09,462.08,54.09,461.89,54.1Zm19.56-14.23v0l0,0a0.09,0.09,0,0,0,0,0,0.25,0.25,0,0,0,.06-0.1l0,0,0,0,0,0s0,0,0,.05h0Z" transform="translate(-409.2 -27.45)"/><path class="cls-4" d="M502.77,45.44v0.19l0,0a1.31,1.31,0,0,0-.66.17,0.8,0.8,0,0,1-.33.1,0.3,0.3,0,0,0-.19.05l-0.35.24a2.8,2.8,0,0,1-.37.26,0.42,0.42,0,0,0-.19.18,0.9,0.9,0,0,1-.35.22c-0.17.09-.38,0.09-0.55,0.2a1.13,1.13,0,0,1-.39.06l-0.27.05h-0.29l-0.09,0a0.3,0.3,0,0,1-.13.06,2.7,2.7,0,0,0-.53.13,1.67,1.67,0,0,0-.6.22,1.23,1.23,0,0,1-.29.12,0.69,0.69,0,0,0-.3.11,0.37,0.37,0,0,0-.3,0,1.36,1.36,0,0,0-.49.09h-0.37a0.24,0.24,0,0,0-.22,0,0.12,0.12,0,0,0-.17,0l0,0a0.08,0.08,0,0,1-.07,0,1.46,1.46,0,0,0-.43,0c-0.11.12-.29,0-0.4,0.11s-0.44.13-.66,0.11h-0.05a1.23,1.23,0,0,1-.64.11l-0.27.06-0.29.07-0.22,0a0.2,0.2,0,0,1-.13,0,1.14,1.14,0,0,0-.54,0,0.79,0.79,0,0,1-.21,0,0.49,0.49,0,0,0-.33,0,0.44,0.44,0,0,0-.35,0,0.1,0.1,0,0,1-.1,0,0.22,0.22,0,0,0-.2,0,0.36,0.36,0,0,0-.21,0,0.17,0.17,0,0,1-.17,0l-1.24,0a0.34,0.34,0,0,0-.3,0h-0.05c-0.1-.06-0.22,0-0.33-0.06a0.23,0.23,0,0,0-.12,0,2.53,2.53,0,0,1-.32,0,3,3,0,0,1-.63-0.09v-0.1a0.11,0.11,0,0,1,.09-0.13h0a1.65,1.65,0,0,1,.43,0,1.16,1.16,0,0,0,.42.06c0.08,0,.15.11,0.22,0l0.24,0.05h0.79a0.25,0.25,0,0,1,.22,0,0.07,0.07,0,0,0,.07,0,1.57,1.57,0,0,0,.34,0,0.19,0.19,0,0,1,.12,0c0.08,0,.15.06,0.24,0.06s0.13-.1.19,0a1.8,1.8,0,0,1,.32,0,0.68,0.68,0,0,1,.32,0,0.84,0.84,0,0,0,.36,0,1.77,1.77,0,0,0,.46-0.09,0.66,0.66,0,0,0,.37.05,0.62,0.62,0,0,0,.32,0,0.69,0.69,0,0,0,.29-0.05,0.15,0.15,0,0,1,.1,0,1.46,1.46,0,0,0,.68-0.14,1.06,1.06,0,0,1,.39-0.07,0.92,0.92,0,0,0,.44-0.06,3.08,3.08,0,0,1,.37-0.07,1,1,0,0,1,.38,0,2,2,0,0,1,.39,0,0.44,0.44,0,0,0,.17,0c0.26,0,.53-0.09.8-0.12a1.57,1.57,0,0,0,.76-0.26l0.14,0,0.13-.08c0.08,0.06.08,0,.12,0l0.16-.05,0.15,0h0c0.06,0,.06-0.16.18-0.06a0.41,0.41,0,0,0,.21,0l0.22-.05a0.37,0.37,0,0,1,.15,0c0.07,0.09.09-.05,0.15,0h0.18a1.17,1.17,0,0,0,.35-0.06,1.35,1.35,0,0,0,.32-0.06,1.55,1.55,0,0,0,.68-0.4,1.13,1.13,0,0,1,.33-0.22,0.81,0.81,0,0,0,.27-0.18,0.17,0.17,0,0,1,.09,0,0.4,0.4,0,0,0,.24-0.13,0.38,0.38,0,0,1,.29-0.12,1.82,1.82,0,0,0,.55-0.14,0.25,0.25,0,0,1,.22,0A0.22,0.22,0,0,0,502.77,45.44Z" transform="translate(-409.2 -27.45)"/><path class="cls-4" d="M495.92,39.45l0.06-.09a0.38,0.38,0,0,1-.17-0.31,0.17,0.17,0,0,0-.05-0.08l-0.1-.12s0-.1-0.05-0.12a0.14,0.14,0,0,1-.11-0.12,0.15,0.15,0,0,0-.12-0.07,0.4,0.4,0,0,1-.22-0.22,0.38,0.38,0,0,1,0-.19,0.34,0.34,0,0,1,.34.09,1.84,1.84,0,0,1,.63.73,1.52,1.52,0,0,0,.17.37c0.09,0.11.08,0.25,0.18,0.35a0.34,0.34,0,0,1,.06.29,0.71,0.71,0,0,0,.18.56c0.14,0.2.27,0.41,0.42,0.6l0.14,0.15a0.32,0.32,0,0,1,.06.21,0.74,0.74,0,0,1,.13.16,0.31,0.31,0,0,0,.12.18c0.11,0.1.2,0.22,0.31,0.32a1.21,1.21,0,0,1,.33.57,0.81,0.81,0,0,0,.27.39l0,0a1.2,1.2,0,0,1,.49.17,0.86,0.86,0,0,1,.29.2,1,1,0,0,1,.27.22,0.52,0.52,0,0,1,.21.25,2,2,0,0,0,.67.5,0.31,0.31,0,0,0,.14,0,0.62,0.62,0,0,1,.18,0c0.07,0.08.12,0,.17,0a1.78,1.78,0,0,1,.71.13,0.55,0.55,0,0,1,.24.12,0.28,0.28,0,0,0,.23.07h0.21c0.07,0,.11.1,0.18,0a0.36,0.36,0,0,0,.08.09s0.08,0,.12,0A0.56,0.56,0,0,0,503,45a0.12,0.12,0,0,1,.14.11,0.19,0.19,0,0,1,0,0,0.3,0.3,0,0,1-.31.28,0.11,0.11,0,0,1-.06-0.06,0.49,0.49,0,0,0-.12-0.11,0.35,0.35,0,0,0-.31-0.1,0.78,0.78,0,0,1-.64-0.19,0.37,0.37,0,0,0-.21-0.07,3,3,0,0,1-.54-0.1,1.13,1.13,0,0,1-.47,0,0.63,0.63,0,0,1-.44-0.16l-0.14-.1-0.2-.16a0.59,0.59,0,0,1-.18-0.2,1.94,1.94,0,0,0-.3-0.28l-0.1-.08a1,1,0,0,0-.67-0.34h0a0.5,0.5,0,0,0-.34-0.27,0.49,0.49,0,0,1-.2-0.31,0.73,0.73,0,0,0-.22-0.44,2.07,2.07,0,0,0-.22-0.25,0.6,0.6,0,0,0-.2-0.21,2.45,2.45,0,0,0-.33-0.55c0-.08-0.17-0.12-0.11-0.24a0.22,0.22,0,0,0-.06-0.08c-0.15-.18-0.3-0.37-0.44-0.55a0.62,0.62,0,0,1-.07-0.21,0.43,0.43,0,0,0,0-.27c0.08-.08,0-0.14,0-0.22s0-.15-0.09-0.15a0.1,0.1,0,0,1,0-.07A0.21,0.21,0,0,0,495.92,39.45Z" transform="translate(-409.2 -27.45)"/><path class="cls-4" d="M531.49,57.13V56.42a0.25,0.25,0,0,0-.16-0.26,1.83,1.83,0,0,1-.42-0.28,0.55,0.55,0,0,0-.2-0.06,1.18,1.18,0,0,0-.06.27,0.43,0.43,0,0,0-.12.14,0.24,0.24,0,0,1-.09.14,2.07,2.07,0,0,0-.37.43,1.6,1.6,0,0,0-.5.5,3.07,3.07,0,0,0-.36.35l-0.06,0-0.27.1a0.25,0.25,0,0,1-.14-0.22,1,1,0,0,0-.36-0.38,0.17,0.17,0,0,1-.17-0.16l0,0a0.78,0.78,0,0,1-.44-0.44,3,3,0,0,1-.22-0.28,5.14,5.14,0,0,1-.31-0.59,0.86,0.86,0,0,0-.06-0.24,0.72,0.72,0,0,0-.2-0.15,1.67,1.67,0,0,1-.4-0.24,0.49,0.49,0,0,0-.39.07,0.8,0.8,0,0,1-.18.1A0.44,0.44,0,0,1,526,55.1a0.75,0.75,0,0,0,.17-0.15,0.22,0.22,0,0,1,.17-0.17,0.39,0.39,0,0,1,.35.05l0.11,0a0.8,0.8,0,0,1,.36.27,0.3,0.3,0,0,0,.16.18,0.57,0.57,0,0,1,.18.17,0.44,0.44,0,0,0,.12.39l0,0a0.31,0.31,0,0,0,.16.29,2.07,2.07,0,0,0,.24.33,1.74,1.74,0,0,1,.25.33,0.88,0.88,0,0,0,.25.17,0.42,0.42,0,0,1,.25.22,0.54,0.54,0,0,0,.13.15,0.33,0.33,0,0,0,.28-0.12,1.07,1.07,0,0,0,.25-0.29,0.45,0.45,0,0,1,.18-0.13c0.15-.1.27-0.22,0.42-0.32a1,1,0,0,0,.33-0.55v0a2.77,2.77,0,0,0,.15-0.41,0.85,0.85,0,0,1,.08-0.42h0.22a0.26,0.26,0,0,0,.08.19,0.1,0.1,0,0,1,0,.08,0.22,0.22,0,0,0,.11.19,1.58,1.58,0,0,0,.5.47c0.2,0.12.21,0.11,0.14,0.35a0.08,0.08,0,0,0,0,.05,0.69,0.69,0,0,1,0,.38,0.41,0.41,0,0,0,.41.39,1.11,1.11,0,0,1,.39,0,1,1,0,0,0,.38,0,0.56,0.56,0,0,0,.35,0,0.5,0.5,0,0,1,.22,0A2.27,2.27,0,0,1,534,57.2a0.29,0.29,0,0,0,.22,0,0.36,0.36,0,0,1,.18,0l0.27,0.06a0.12,0.12,0,0,1,.06.06l0.17,0.31h0.44a0.48,0.48,0,0,0,.28-0.09,0.36,0.36,0,0,1,.32-0.06c0.05,0,.13,0,0.07.13s-0.06.18-.24,0.18a0.78,0.78,0,0,0-.32,0c-0.1,0-.21,0-0.32,0a0.82,0.82,0,0,1-.39,0,0.15,0.15,0,0,1-.1-0.07,1.82,1.82,0,0,1-.11-0.27,0.27,0.27,0,0,0-.29-0.23h-0.42a0.86,0.86,0,0,0-.38.1,1.48,1.48,0,0,1-.59.16,0.63,0.63,0,0,1-.3.06l-0.27-.11a3.16,3.16,0,0,1-.51-0.16l-0.1-.06A0.74,0.74,0,0,0,531.49,57.13Z" transform="translate(-409.2 -27.45)"/><path class="cls-4" d="M448.9,52h-0.24a0.22,0.22,0,0,1,0-.31l0.07-.06a0.49,0.49,0,0,1,.33-0.1,2.16,2.16,0,0,1,.42-0.26l0.11-.06a2,2,0,0,0,.55-0.27,0.74,0.74,0,0,1,.36-0.15,0.22,0.22,0,0,0,.13-0.07,1.3,1.3,0,0,1,.73-0.34,1.48,1.48,0,0,0,.41-0.15,2.32,2.32,0,0,1,.6-0.28l0,0a0.84,0.84,0,0,1,.43-0.25A0.83,0.83,0,0,0,453,49.5c0.15-.13.31-0.24,0.44-0.37l0.25-.25,0.26-.22a1.47,1.47,0,0,1,.27-0.21l0.07,0a0.48,0.48,0,0,1,.19-0.29,1.31,1.31,0,0,1,.21-0.25,1.44,1.44,0,0,0,.26-0.26,0.19,0.19,0,0,1,.08-0.07,3.51,3.51,0,0,0,.5-0.39,1,1,0,0,1,.6-0.3L456.22,47a1.78,1.78,0,0,0-.29.21,0.5,0.5,0,0,0-.28.27c-0.14.08-.22,0.2-0.36,0.28a2.54,2.54,0,0,0-.59.63l0,0.07a3.4,3.4,0,0,1-.64.6l-0.07.07c-0.2.18-.39,0.37-0.6,0.54a0.89,0.89,0,0,1-.3.16,1.47,1.47,0,0,0-.36.18,1.71,1.71,0,0,0-.3.16,0.72,0.72,0,0,1-.39.2l-0.06,0a1.76,1.76,0,0,1-.32.17,0.65,0.65,0,0,1-.35.11,2.41,2.41,0,0,0-.73.33,0.87,0.87,0,0,1-.2.1l-0.63.32a0.48,0.48,0,0,0-.14.09,1,1,0,0,1-.4.24A0.32,0.32,0,0,0,448.9,52Z" transform="translate(-409.2 -27.45)"/><path class="cls-4" d="M482.86,32.69l0-.18a1.49,1.49,0,0,0,.25-0.32c0.1,0,.09-0.06.08-0.12a0.68,0.68,0,0,1,.06-0.29,1,1,0,0,1,.25-0.44,0.61,0.61,0,0,1,.11-0.32,2.63,2.63,0,0,0,.06-0.35,1.34,1.34,0,0,0,0-.31,1.16,1.16,0,0,1,0-.29,2.18,2.18,0,0,1,.08-0.31c0-.1.07-0.2,0.09-0.3A4.89,4.89,0,0,0,484,29a0.9,0.9,0,0,1,.17-0.28c0.09,0.07,0,.1,0,0.15a5.45,5.45,0,0,1-.16.62,1.63,1.63,0,0,0-.1.72,2,2,0,0,1-.06.67,2.07,2.07,0,0,1-.18.48,2.11,2.11,0,0,0-.13.32A2.08,2.08,0,0,1,482.86,32.69Z" transform="translate(-409.2 -27.45)"/><path class="cls-4" d="M427.14,60.48c0.06,0.25-.11.31-0.31,0.37a0.19,0.19,0,0,1,0-.09A0.7,0.7,0,0,1,427.14,60.48Z" transform="translate(-409.2 -27.45)"/><path class="cls-4" d="M426.79,61h-0.18C426.67,60.85,426.72,60.85,426.79,61Z" transform="translate(-409.2 -27.45)"/><path class="cls-4" d="M539.94,59.28H540v0h-0.11v0h0Z" transform="translate(-409.2 -27.45)"/><path class="cls-4" d="M475.7,35.78l0,0,0,0V35.78Z" transform="translate(-409.2 -27.45)"/><path class="cls-4" d="M478.43,55.21v0l0,0,0,0Z" transform="translate(-409.2 -27.45)"/><path class="cls-4" d="M485.2,35l0,0,0,0,0,0Z" transform="translate(-409.2 -27.45)"/><path class="cls-4" d="M539.8,59.15l0,0,0,0,0,0Z" transform="translate(-409.2 -27.45)"/><path class="cls-4" d="M427.17,60.43l0,0,0,0,0,0Z" transform="translate(-409.2 -27.45)"/><path class="cls-4" d="M475.7,35.78v0.05l0,0Z" transform="translate(-409.2 -27.45)"/><path class="cls-4" d="M476.28,34.44l0,0,0,0,0,0Z" transform="translate(-409.2 -27.45)"/><path class="cls-4" d="M481.46,39.87l0,0a0.08,0.08,0,0,1,0,0l0,0v0h0Z" transform="translate(-409.2 -27.45)"/><path class="cls-4" d="M481.49,39.79l0,0,0,0,0,0Z" transform="translate(-409.2 -27.45)"/><text class="cls-5" transform="translate(48.02 74.15)">hood river, or</text></svg>